<svg width="80" height="80" viewBox="0 0 80 80" fill="none" xmlns="http://www.w3.org/2000/svg">
<g clip-path="url(#clip0_296_1286)">
<path d="M40 80C62.0914 80 80 62.0914 80 40C80 17.9086 62.0914 0 40 0C17.9086 0 0 17.9086 0 40C0 62.0914 17.9086 80 40 80Z" fill="#EEF2F6"/>
<path d="M64 25.9922H16V60.9442H64V25.9922Z" fill="#424259"/>
<path opacity="0.5" d="M40 16.9438C42.1217 16.9438 44.1566 17.7866 45.6569 19.2869C47.1571 20.7872 48 22.822 48 24.9437V35.8957C48 38.0175 47.1571 40.0523 45.6569 41.5526C44.1566 43.0529 42.1217 43.8957 40 43.8957C37.8783 43.8957 35.8434 43.0529 34.3431 41.5526C32.8429 40.0523 32 38.0175 32 35.8957V24.9437C32 22.822 32.8429 20.7872 34.3431 19.2869C35.8434 17.7866 37.8783 16.9438 40 16.9438ZM40 12.9438C36.8174 12.9438 33.7652 14.208 31.5147 16.4585C29.2643 18.7089 28 21.7612 28 24.9437V35.8957C28 37.4716 28.3104 39.032 28.9134 40.488C29.5165 41.9439 30.4004 43.2667 31.5147 44.381C32.629 45.4953 33.9519 46.3792 35.4078 46.9823C36.8637 47.5854 38.4241 47.8957 40 47.8957C41.5759 47.8957 43.1363 47.5854 44.5922 46.9823C46.0481 46.3792 47.371 45.4953 48.4853 44.381C49.5996 43.2667 50.4835 41.9439 51.0866 40.488C51.6896 39.032 52 37.4716 52 35.8957V24.9437C52 21.7612 50.7357 18.7089 48.4853 16.4585C46.2348 14.208 43.1826 12.9438 40 12.9438Z" fill="#424259"/>
<path d="M16 25.9922H64V37.9922C64.0021 39.2952 63.7473 40.5858 63.2501 41.7903C62.7529 42.9947 62.0231 44.0893 61.1025 45.0114C60.1819 45.9335 59.0885 46.665 57.8849 47.1642C56.6812 47.6633 55.391 47.9202 54.088 47.9202H25.912C23.2832 47.9202 20.762 46.8759 18.9032 45.017C17.0443 43.1582 16 40.637 16 38.0082V26.0082V25.9922Z" fill="#00F5BC"/>
<path d="M30.2393 42.5672H25.6313V47.8952H30.2393V42.5672Z" fill="#424259"/>
<path d="M54.0894 42.5672H49.4814V47.8952H54.0894V42.5672Z" fill="#424259"/>
<path d="M30.2393 47.8953H25.6313V52.2953H30.2393V47.8953Z" fill="#EEF2F6"/>
<path d="M54.0894 47.8953H49.4814V52.2953H54.0894V47.8953Z" fill="#EEF2F6"/>
</g>
<defs>
<clipPath id="clip0_296_1286">
<rect width="80" height="80" fill="white"/>
</clipPath>
</defs>
</svg>
