<svg width="48" height="48" viewBox="0 0 48 48" fill="none" xmlns="http://www.w3.org/2000/svg">
<g clip-path="url(#clip0_296_1526)">
<path d="M24 48C37.2548 48 48 37.2548 48 24C48 10.7452 37.2548 0 24 0C10.7452 0 0 10.7452 0 24C0 37.2548 10.7452 48 24 48Z" fill="#EEF2F6"/>
<path d="M38.4001 15.5953H9.6001V36.5665H38.4001V15.5953Z" fill="#424259"/>
<path opacity="0.5" d="M24.0003 10.1662C25.2733 10.1662 26.4942 10.6719 27.3944 11.5721C28.2946 12.4723 28.8003 13.6932 28.8003 14.9662V21.5374C28.8003 22.8105 28.2946 24.0314 27.3944 24.9315C26.4942 25.8317 25.2733 26.3374 24.0003 26.3374C22.7273 26.3374 21.5064 25.8317 20.6062 24.9315C19.706 24.0314 19.2003 22.8105 19.2003 21.5374V14.9662C19.2003 13.6932 19.706 12.4723 20.6062 11.5721C21.5064 10.6719 22.7273 10.1662 24.0003 10.1662ZM24.0003 7.76624C22.0907 7.76624 20.2594 8.5248 18.9091 9.87507C17.5589 11.2253 16.8003 13.0567 16.8003 14.9662V21.5374C16.8003 22.483 16.9865 23.4192 17.3484 24.2928C17.7102 25.1663 18.2405 25.96 18.9091 26.6286C19.5777 27.2972 20.3714 27.8275 21.245 28.1894C22.1185 28.5512 23.0548 28.7374 24.0003 28.7374C24.9458 28.7374 25.8821 28.5512 26.7556 28.1894C27.6292 27.8275 28.4229 27.2972 29.0915 26.6286C29.76 25.96 30.2904 25.1663 30.6522 24.2928C31.0141 23.4192 31.2003 22.483 31.2003 21.5374V14.9662C31.2003 13.0567 30.4417 11.2253 29.0915 9.87507C27.7412 8.5248 25.9099 7.76624 24.0003 7.76624Z" fill="#424259"/>
<path d="M9.6001 15.5953H38.4001V22.7953C38.4014 23.5771 38.2485 24.3515 37.9502 25.0741C37.6518 25.7968 37.214 26.4535 36.6616 27.0068C36.1092 27.5601 35.4532 27.999 34.731 28.2985C34.0088 28.5979 33.2347 28.7521 32.4529 28.7521H15.5473C13.97 28.7521 12.4573 28.1255 11.342 27.0102C10.2267 25.8949 9.6001 24.3822 9.6001 22.8049V15.6049V15.5953Z" fill="#FF4171"/>
<path d="M18.1437 25.5403H15.3789V28.7371H18.1437V25.5403Z" fill="#424259"/>
<path d="M32.4538 25.5403H29.689V28.7371H32.4538V25.5403Z" fill="#424259"/>
<path d="M18.1437 28.7372H15.3789V31.3772H18.1437V28.7372Z" fill="#EEF2F6"/>
<path d="M32.4538 28.7372H29.689V31.3772H32.4538V28.7372Z" fill="#EEF2F6"/>
</g>
<defs>
<clipPath id="clip0_296_1526">
<rect width="48" height="48" fill="white"/>
</clipPath>
</defs>
</svg>
