<svg width="48" height="48" viewBox="0 0 48 48" fill="none" xmlns="http://www.w3.org/2000/svg">
<g clip-path="url(#clip0_296_1535)">
<path d="M24 48C37.2548 48 48 37.2548 48 24C48 10.7452 37.2548 0 24 0C10.7452 0 0 10.7452 0 24C0 37.2548 10.7452 48 24 48Z" fill="#EEF2F6"/>
<path d="M17.493 24C17.493 22.2742 18.1786 20.6191 19.3989 19.3987C20.6192 18.1784 22.2744 17.4928 24.0002 17.4928V7.20001H20.5282L19.845 10.616C19.7958 10.8648 19.6859 11.0977 19.525 11.2938C19.3642 11.4899 19.1574 11.6433 18.923 11.7402C18.6886 11.8372 18.4339 11.8748 18.1815 11.8496C17.9291 11.8245 17.6868 11.7373 17.4762 11.596L14.5754 9.66401L9.6642 14.5752L11.5962 17.476C11.7375 17.6866 11.8246 17.9289 11.8498 18.1813C11.875 18.4337 11.8374 18.6884 11.7404 18.9228C11.6435 19.1572 11.4901 19.364 11.294 19.5248C11.0978 19.6857 10.865 19.7956 10.6162 19.8448L7.2002 20.528V27.472L10.6162 28.1552C10.865 28.2044 11.0978 28.3143 11.294 28.4752C11.4901 28.636 11.6435 28.8428 11.7404 29.0772C11.8374 29.3116 11.875 29.5663 11.8498 29.8187C11.8246 30.0711 11.7375 30.3134 11.5962 30.524L9.6642 33.4248L14.5754 38.336L17.4762 36.404C17.6868 36.2627 17.9291 36.1756 18.1815 36.1504C18.4339 36.1252 18.6886 36.1628 18.923 36.2598C19.1574 36.3568 19.3642 36.5101 19.525 36.7062C19.6859 36.9024 19.7958 37.1352 19.845 37.384L20.5282 40.8H24.0002V30.5072C22.2744 30.5072 20.6192 29.8216 19.3989 28.6013C18.1786 27.381 17.493 25.7258 17.493 24Z" fill="#00F5BC"/>
<path d="M36.404 17.476L38.336 14.5752L33.4248 9.66401L30.524 11.596C30.3134 11.7373 30.0711 11.8245 29.8187 11.8496C29.5663 11.8748 29.3116 11.8372 29.0772 11.7402C28.8428 11.6433 28.636 11.4899 28.4752 11.2938C28.3143 11.0977 28.2044 10.8648 28.1552 10.616L27.472 7.20001H24V17.4928C25.7258 17.4928 27.3809 18.1784 28.6013 19.3987C29.8216 20.6191 30.5072 22.2742 30.5072 24C30.5072 25.7258 29.8216 27.381 28.6013 28.6013C27.3809 29.8216 25.7258 30.5072 24 30.5072V40.8H27.472L28.1552 37.384C28.2044 37.1352 28.3143 36.9024 28.4752 36.7062C28.636 36.5101 28.8428 36.3568 29.0772 36.2598C29.3116 36.1628 29.5663 36.1252 29.8187 36.1504C30.0711 36.1756 30.3134 36.2627 30.524 36.404L33.4248 38.336L38.336 33.4248L36.404 30.524C36.2627 30.3134 36.1756 30.0711 36.1504 29.8187C36.1252 29.5663 36.1628 29.3116 36.2598 29.0772C36.3567 28.8428 36.5101 28.636 36.7062 28.4752C36.9023 28.3143 37.1352 28.2044 37.384 28.1552L40.8 27.472V20.528L37.384 19.8448C37.1352 19.7956 36.9023 19.6857 36.7062 19.5248C36.5101 19.364 36.3567 19.1572 36.2598 18.9228C36.1628 18.6884 36.1252 18.4337 36.1504 18.1813C36.1756 17.9289 36.2627 17.6866 36.404 17.476Z" fill="#424259"/>
<path d="M13.6504 23.9997C13.6534 26.7435 14.7446 29.374 16.6848 31.3142C18.6249 33.2543 21.2554 34.3456 23.9992 34.3485V32.5733C21.7253 32.5733 19.5446 31.6701 17.9367 30.0622C16.3289 28.4543 15.4256 26.2736 15.4256 23.9997C15.4256 21.7259 16.3289 19.5452 17.9367 17.9373C19.5446 16.3294 21.7253 15.4261 23.9992 15.4261V13.6509C21.2554 13.6539 18.6249 14.7452 16.6848 16.6853C14.7446 18.6254 13.6534 21.256 13.6504 23.9997Z" fill="#424259"/>
<path d="M24 15.4265C26.2739 15.4265 28.4546 16.3298 30.0625 17.9377C31.6703 19.5455 32.5736 21.7262 32.5736 24.0001C32.5736 26.274 31.6703 28.4547 30.0625 30.0626C28.4546 31.6704 26.2739 32.5737 24 32.5737V34.3489C26.7476 34.3489 29.3827 33.2574 31.3256 31.3145C33.2685 29.3717 34.36 26.7365 34.36 23.9889C34.36 21.2413 33.2685 18.6062 31.3256 16.6633C29.3827 14.7204 26.7476 13.6289 24 13.6289V15.4041V15.4265Z" fill="#EEF2F6"/>
</g>
<defs>
<clipPath id="clip0_296_1535">
<rect width="48" height="48" fill="white"/>
</clipPath>
</defs>
</svg>
