<svg width="80" height="80" viewBox="0 0 80 80" fill="none" xmlns="http://www.w3.org/2000/svg">
<g clip-path="url(#clip0_296_1583)">
<path d="M40 80C62.0914 80 80 62.0914 80 40C80 17.9086 62.0914 0 40 0C17.9086 0 0 17.9086 0 40C0 62.0914 17.9086 80 40 80Z" fill="#00F5BC"/>
<path opacity="0.5" d="M28.7995 33.6H23.9995V55.1097H28.7995V33.6Z" fill="#424259"/>
<path d="M29.5997 33.6672H23.1997V36.8573H29.5997V33.6672Z" fill="#424259"/>
<path opacity="0.5" d="M42.2717 33.6H37.4717V55.1097H42.2717V33.6Z" fill="#424259"/>
<path d="M43.1998 33.6672H36.7998V36.8573H43.1998V33.6672Z" fill="#424259"/>
<path opacity="0.5" d="M55.9997 33.6H51.1997V55.1097H55.9997V33.6Z" fill="#424259"/>
<path d="M56.7999 33.6672H50.3999V36.8573H56.7999V33.6672Z" fill="#424259"/>
<path d="M61.7378 63.2001H18.584V57.8039H61.7378V63.2001Z" fill="#424259"/>
<path opacity="0.5" d="M63.481 33.468H16.7998V28.7513L40.1404 15.2L63.481 28.7513V33.468Z" fill="#424259"/>
<path d="M35.9155 25.8794C35.9177 27.0053 36.3658 28.0844 37.1619 28.8805C37.958 29.6765 39.0371 30.1247 40.1629 30.1269V21.632C39.0371 21.6342 37.958 22.0823 37.1619 22.8784C36.3658 23.6745 35.9177 24.7536 35.9155 25.8794Z" fill="#EEF2F6"/>
<path d="M40.1621 21.632V30.1269C41.2886 30.1269 42.3689 29.6794 43.1655 28.8828C43.962 28.0863 44.4095 27.0059 44.4095 25.8794C44.4095 24.753 43.962 23.6726 43.1655 22.8761C42.3689 22.0795 41.2886 21.632 40.1621 21.632Z" fill="#424259"/>
</g>
<defs>
<clipPath id="clip0_296_1583">
<rect width="80" height="80" fill="white"/>
</clipPath>
</defs>
</svg>
