<svg width="48" height="48" viewBox="0 0 48 48" fill="none" xmlns="http://www.w3.org/2000/svg">
<g clip-path="url(#clip0_296_1512)">
<path d="M24 48C37.2548 48 48 37.2548 48 24C48 10.7452 37.2548 0 24 0C10.7452 0 0 10.7452 0 24C0 37.2548 10.7452 48 24 48Z" fill="#EEF2F6"/>
<g clip-path="url(#clip1_296_1512)">
<path opacity="0.5" d="M18.9331 24.6403V15.7699C18.9331 14.4029 19.4678 13.0918 20.4195 12.1252C21.3713 11.1586 22.6621 10.6155 24.008 10.6155C25.354 10.6155 26.6448 11.1586 27.5965 12.1252C28.5482 13.0918 29.0829 14.4029 29.0829 15.7699V24.6403H31.9829V15.7699C31.9829 13.6217 31.1427 11.5615 29.6471 10.0425C28.1515 8.52353 26.1231 7.67017 24.008 7.67017C21.893 7.67017 19.8645 8.52353 18.369 10.0425C16.8734 11.5615 16.0332 13.6217 16.0332 15.7699V24.6403H18.9331Z" fill="#424259"/>
<path d="M23.998 10.6253C25.341 10.6266 26.6287 11.1691 27.5783 12.1336C28.5279 13.0981 29.062 14.4059 29.0633 15.7699V24.6403H31.9632V15.7699C31.9632 14.7075 31.7572 13.6555 31.3569 12.674C30.9566 11.6925 30.3699 10.8007 29.6303 10.0495C28.8906 9.29825 28.0126 8.70235 27.0462 8.2958C26.0798 7.88924 25.044 7.67999 23.998 7.67999V10.6253Z" fill="#424259"/>
<path d="M12.48 22.2006V38.4H35.52V22.2006H12.48Z" fill="#FF4171"/>
<path d="M26.6559 28.4987C26.6559 28.0059 26.5231 27.5224 26.2719 27.1008C26.0207 26.6792 25.6606 26.3354 25.2308 26.1068C24.8009 25.8782 24.3176 25.7734 23.8333 25.8039C23.349 25.8343 22.8821 25.9989 22.4833 26.2796C22.0845 26.5604 21.7689 26.9467 21.5709 27.3966C21.3728 27.8465 21.2998 28.3429 21.3597 28.832C21.4196 29.321 21.6102 29.7841 21.9108 30.171C22.2113 30.5579 22.6104 30.8539 23.0648 31.0268L22.8183 34.7969H25.1818L24.9304 31.0268C25.4376 30.8345 25.8748 30.4893 26.1832 30.0374C26.4916 29.5855 26.6566 29.0486 26.6559 28.4987Z" fill="#424259"/>
</g>
</g>
<defs>
<clipPath id="clip0_296_1512">
<rect width="48" height="48" fill="white"/>
</clipPath>
<clipPath id="clip1_296_1512">
<rect width="23.04" height="30.72" fill="white" transform="translate(12.48 7.67999)"/>
</clipPath>
</defs>
</svg>
