<svg width="48" height="48" viewBox="0 0 48 48" fill="none" xmlns="http://www.w3.org/2000/svg">
<g clip-path="url(#clip0_296_1507)">
<path d="M24 48C37.2548 48 48 37.2548 48 24C48 10.7452 37.2548 0 24 0C10.7452 0 0 10.7452 0 24C0 37.2548 10.7452 48 24 48Z" fill="#EEF2F6"/>
<ellipse opacity="0.5" cx="24.0003" cy="16.8" rx="7.2" ry="7.2" fill="#424259"/>
<path d="M38.4001 16.8H9.6001V38.4H38.4001V16.8Z" fill="#00F5BC"/>
<path d="M32.1603 24H38.4003V30.72H32.1603C31.2692 30.72 30.4145 30.366 29.7844 29.7359C29.1543 29.1058 28.8003 28.2511 28.8003 27.36C28.8003 26.4689 29.1543 25.6142 29.7844 24.9841C30.4145 24.354 31.2692 24 32.1603 24Z" fill="#424259"/>
<path d="M32.2025 29.0496C33.0667 29.0496 33.7673 28.349 33.7673 27.4848C33.7673 26.6206 33.0667 25.92 32.2025 25.92C31.3383 25.92 30.6377 26.6206 30.6377 27.4848C30.6377 28.349 31.3383 29.0496 32.2025 29.0496Z" fill="#EEF2F6"/>
</g>
<defs>
<clipPath id="clip0_296_1507">
<rect width="48" height="48" fill="white"/>
</clipPath>
</defs>
</svg>
