<svg width="48" height="48" viewBox="0 0 48 48" fill="none" xmlns="http://www.w3.org/2000/svg">
<g clip-path="url(#clip0_296_1521)">
<path d="M24 48C37.2548 48 48 37.2548 48 24C48 10.7452 37.2548 0 24 0C10.7452 0 0 10.7452 0 24C0 37.2548 10.7452 48 24 48Z" fill="#EEF2F6"/>
<path opacity="0.5" d="M35.9047 34.2H32.3047V37.8H35.9047C36.8595 37.8 37.7751 37.4207 38.4503 36.7456C39.1254 36.0705 39.5047 35.1548 39.5047 34.2H35.9047Z" fill="#424259"/>
<path d="M32.3046 34.2V9H10.7046V34.2C10.7046 35.1548 11.0839 36.0705 11.759 36.7456C12.4341 37.4207 13.3498 37.8 14.3046 37.8H35.9046C34.9498 37.8 34.0341 37.4207 33.359 36.7456C32.6839 36.0705 32.3046 35.1548 32.3046 34.2Z" fill="#00F5BC"/>
<path d="M32.3046 34.2H10.7046C10.7046 35.1548 11.0839 36.0705 11.759 36.7456C12.4341 37.4207 13.3498 37.8 14.3046 37.8H35.9046C34.9498 37.8 34.0341 37.4207 33.359 36.7456C32.6839 36.0705 32.3046 35.1548 32.3046 34.2Z" fill="#424259"/>
<path d="M28.7047 14.2176H14.3047V15.12H28.7047V14.2176ZM28.7047 16.92H14.3047V17.8176H28.7047V16.92ZM28.7047 19.6176H14.3047V20.52H28.7047V19.6176ZM25.1047 22.32H17.9047V23.2176H25.1047V22.32Z" fill="#424259"/>
</g>
<defs>
<clipPath id="clip0_296_1521">
<rect width="48" height="48" fill="white"/>
</clipPath>
</defs>
</svg>
