<svg width="80" height="80" viewBox="0 0 80 80" fill="none" xmlns="http://www.w3.org/2000/svg">
<g clip-path="url(#clip0_296_1551)">
<path d="M40 80C62.0914 80 80 62.0914 80 40C80 17.9086 62.0914 0 40 0C17.9086 0 0 17.9086 0 40C0 62.0914 17.9086 80 40 80Z" fill="#00F5BC"/>
<path d="M26.464 64H16L53.536 16H64L26.464 64Z" fill="#424259"/>
<path opacity="0.3" d="M25.76 35.52C31.1503 35.52 35.52 31.1503 35.52 25.76C35.52 20.3697 31.1503 16 25.76 16C20.3697 16 16 20.3697 16 25.76C16 31.1503 20.3697 35.52 25.76 35.52Z" fill="#424259"/>
<path d="M25.7593 19.3602C27.4567 19.3602 29.0845 20.0345 30.2848 21.2347C31.485 22.4349 32.1593 24.0628 32.1593 25.7602C32.1593 27.4576 31.485 29.0854 30.2848 30.2856C29.0845 31.4859 27.4567 32.1602 25.7593 32.1602" stroke="white" stroke-width="2" stroke-miterlimit="10"/>
<path d="M25.7594 32.1602C24.062 32.1602 22.4341 31.4859 21.2339 30.2856C20.0337 29.0854 19.3594 27.4576 19.3594 25.7602C19.3594 24.0628 20.0337 22.4349 21.2339 21.2347C22.4341 20.0345 24.062 19.3602 25.7594 19.3602" stroke="#424259" stroke-width="2" stroke-miterlimit="10"/>
<path opacity="0.3" d="M54.2414 63.9997C59.6317 63.9997 64.0014 59.63 64.0014 54.2397C64.0014 48.8494 59.6317 44.4797 54.2414 44.4797C48.8511 44.4797 44.4814 48.8494 44.4814 54.2397C44.4814 59.63 48.8511 63.9997 54.2414 63.9997Z" fill="#424259"/>
<path d="M54.2408 60.6398C52.5434 60.6398 50.9156 59.9656 49.7153 58.7653C48.5151 57.5651 47.8408 55.9372 47.8408 54.2398C47.8408 52.5425 48.5151 50.9146 49.7153 49.7144C50.9156 48.5141 52.5434 47.8398 54.2408 47.8398" stroke="white" stroke-width="2" stroke-miterlimit="10"/>
<path d="M54.2407 47.8398C55.9381 47.8398 57.566 48.5141 58.7662 49.7144C59.9664 50.9146 60.6407 52.5425 60.6407 54.2398C60.6407 55.9372 59.9664 57.5651 58.7662 58.7653C57.566 59.9656 55.9381 60.6398 54.2407 60.6398" stroke="#424259" stroke-width="2" stroke-miterlimit="10"/>
</g>
<defs>
<clipPath id="clip0_296_1551">
<rect width="80" height="80" fill="white"/>
</clipPath>
</defs>
</svg>
