<svg width="48" height="48" viewBox="0 0 48 48" fill="none" xmlns="http://www.w3.org/2000/svg">
<g clip-path="url(#clip0_296_1540)">
<path d="M24 48C37.2548 48 48 37.2548 48 24C48 10.7452 37.2548 0 24 0C10.7452 0 0 10.7452 0 24C0 37.2548 10.7452 48 24 48Z" fill="#EEF2F6"/>
<path opacity="0.5" d="M35.1925 28.582V32.7336C35.191 33.9728 34.6918 35.1607 33.8042 36.037C32.9166 36.9132 31.7133 37.4061 30.4581 37.4076H27.8403V39.0749H30.4581C32.1616 39.0749 33.7954 38.4068 35 37.2175C36.2047 36.0283 36.8814 34.4154 36.8814 32.7336V28.582H35.1925Z" fill="#424259"/>
<path d="M12.2751 31.5164C10.9141 31.4724 9.62368 30.9077 8.67667 29.9416C7.72965 28.9756 7.2002 27.6839 7.2002 26.3395C7.2002 24.9951 7.72965 23.7034 8.67667 22.7374C9.62368 21.7713 10.9141 21.2066 12.2751 21.1626V31.5164Z" fill="#FF4171"/>
<path d="M40.8007 26.3367C40.8014 27.0167 40.6664 27.6901 40.4033 28.3185C40.1403 28.9469 39.7543 29.518 39.2676 29.999C38.7808 30.4801 38.2028 30.8617 37.5666 31.1221C36.9303 31.3824 36.2483 31.5164 35.5596 31.5164V21.1626C36.2478 21.1626 36.9294 21.2964 37.5653 21.5564C38.2011 21.8165 38.7789 22.1976 39.2656 22.678C39.7523 23.1585 40.1383 23.7289 40.4017 24.3567C40.6651 24.9844 40.8007 25.6572 40.8007 26.3367Z" fill="#FF4171"/>
<path opacity="0.5" d="M13.7948 20.4681C13.7948 17.815 14.8624 15.2705 16.7627 13.3944C18.663 11.5183 21.2405 10.4644 23.928 10.4644V7.68555C20.4939 7.68555 17.2006 9.03228 14.7724 11.4295C12.3441 13.8267 10.98 17.078 10.98 20.4681H13.7948Z" fill="#424259"/>
<path d="M23.9287 10.4588C26.6162 10.4588 29.1936 11.5128 31.094 13.3888C32.9943 15.2649 34.0619 17.8094 34.0619 20.4626H36.8767C36.8767 17.0724 35.5125 13.8211 33.0843 11.4239C30.6561 9.02672 27.3627 7.67999 23.9287 7.67999V10.4588Z" fill="#424259"/>
<path d="M13.9636 33.2121H11.9708C11.708 33.2121 11.456 33.1091 11.2702 32.9257C11.0844 32.7422 10.98 32.4934 10.98 32.234V20.4463C10.98 20.1868 11.0844 19.938 11.2702 19.7546C11.456 19.5712 11.708 19.4681 11.9708 19.4681H13.9636C14.2264 19.4681 14.4784 19.5712 14.6642 19.7546C14.8501 19.938 14.9544 20.1868 14.9544 20.4463V32.234C14.9544 32.4934 14.8501 32.7422 14.6642 32.9257C14.4784 33.1091 14.2264 33.2121 13.9636 33.2121Z" fill="#424259"/>
<path d="M35.9202 33.2121H33.9161C33.6533 33.2121 33.4013 33.1091 33.2155 32.9257C33.0297 32.7422 32.9253 32.4934 32.9253 32.234V20.4463C32.9253 20.1868 33.0297 19.938 33.2155 19.7546C33.4013 19.5712 33.6533 19.4681 33.9161 19.4681H35.9202C36.0503 19.4681 36.1792 19.4934 36.2994 19.5426C36.4196 19.5917 36.5288 19.6638 36.6208 19.7546C36.7128 19.8454 36.7858 19.9533 36.8356 20.0719C36.8854 20.1906 36.911 20.3178 36.911 20.4463V32.234C36.911 32.3625 36.8854 32.4896 36.8356 32.6083C36.7858 32.727 36.7128 32.8348 36.6208 32.9257C36.5288 33.0165 36.4196 33.0885 36.2994 33.1377C36.1792 33.1868 36.0503 33.2121 35.9202 33.2121Z" fill="#424259"/>
<path d="M26.5343 35.874H23.1566C21.913 35.874 20.9048 36.8693 20.9048 38.097C20.9048 39.3248 21.913 40.3201 23.1566 40.3201H26.5343C27.778 40.3201 28.7862 39.3248 28.7862 38.097C28.7862 36.8693 27.778 35.874 26.5343 35.874Z" fill="#FF4171"/>
</g>
<defs>
<clipPath id="clip0_296_1540">
<rect width="48" height="48" fill="white"/>
</clipPath>
</defs>
</svg>
