<svg width="17" height="10" viewBox="0 0 17 10" fill="none" xmlns="http://www.w3.org/2000/svg">
<path fill-rule="evenodd" clip-rule="evenodd" d="M0.75 5C0.75 4.58579 1.08579 4.25 1.5 4.25H15.5C15.9142 4.25 16.25 4.58579 16.25 5C16.25 5.41421 15.9142 5.75 15.5 5.75H1.5C1.08579 5.75 0.75 5.41421 0.75 5Z" fill="#424259"/>
<path fill-rule="evenodd" clip-rule="evenodd" d="M16.0303 4.46967C16.3232 4.76256 16.3232 5.23744 16.0303 5.53033L12.0303 9.53033C11.7374 9.82322 11.2626 9.82322 10.9697 9.53033C10.6768 9.23744 10.6768 8.76256 10.9697 8.46967L14.9697 4.46967C15.2626 4.17678 15.7374 4.17678 16.0303 4.46967Z" fill="#424259"/>
<path fill-rule="evenodd" clip-rule="evenodd" d="M10.9697 0.46967C11.2626 0.176777 11.7374 0.176777 12.0303 0.46967L16.0303 4.46967C16.3232 4.76256 16.3232 5.23744 16.0303 5.53033C15.7374 5.82322 15.2626 5.82322 14.9697 5.53033L10.9697 1.53033C10.6768 1.23744 10.6768 0.762563 10.9697 0.46967Z" fill="#424259"/>
</svg>
