<svg width="384" height="202" viewBox="0 0 384 202" fill="none" xmlns="http://www.w3.org/2000/svg">
<path d="M0 30C0 20.6812 0 16.0218 1.52241 12.3463C3.55229 7.44577 7.44577 3.55229 12.3463 1.52241C16.0218 0 20.6812 0 30 0H354C363.319 0 367.978 0 371.654 1.52241C376.554 3.55229 380.448 7.44577 382.478 12.3463C384 16.0218 384 20.6812 384 30V172C384 181.319 384 185.978 382.478 189.654C380.448 194.554 376.554 198.448 371.654 200.478C367.978 202 363.319 202 354 202H30C20.6812 202 16.0218 202 12.3463 200.478C7.44577 198.448 3.55229 194.554 1.52241 189.654C0 185.978 0 181.319 0 172V30Z" fill="#EEF2F6"/>
<path d="M152 64C152 52.7989 152 47.1984 154.18 42.9202C156.097 39.1569 159.157 36.0973 162.92 34.1799C167.198 32 172.799 32 184 32H200C211.201 32 216.802 32 221.08 34.1799C224.843 36.0973 227.903 39.1569 229.82 42.9202C232 47.1984 232 52.799 232 64V80C232 91.201 232 96.8016 229.82 101.08C227.903 104.843 224.843 107.903 221.08 109.82C216.802 112 211.201 112 200 112H184C172.799 112 167.198 112 162.92 109.82C159.157 107.903 156.097 104.843 154.18 101.08C152 96.8016 152 91.201 152 80V64Z" fill="#3B5998"/>
<path d="M194.722 88V71.9981H199.169L199.758 66.4838H194.722L194.73 63.7238C194.73 62.2856 194.867 61.515 196.947 61.515H199.726V56H195.279C189.937 56 188.057 58.675 188.057 63.1736V66.4844H184.728V71.9988H188.057V88H194.722Z" fill="white"/>
<path d="M137.276 162.496V146.704C137.276 146.512 137.308 146.384 137.372 146.32C137.452 146.24 137.588 146.2 137.78 146.2H148.58C148.772 146.2 148.9 146.24 148.964 146.32C149.044 146.384 149.084 146.512 149.084 146.704V148.168C149.084 148.36 149.044 148.496 148.964 148.576C148.9 148.64 148.772 148.672 148.58 148.672H140.18V153.28H148.34C148.676 153.28 148.844 153.456 148.844 153.808V155.272C148.844 155.464 148.804 155.6 148.724 155.68C148.66 155.744 148.532 155.776 148.34 155.776H140.18V162.496C140.18 162.688 140.14 162.824 140.06 162.904C139.996 162.968 139.868 163 139.676 163H137.78C137.588 163 137.452 162.968 137.372 162.904C137.308 162.824 137.276 162.688 137.276 162.496ZM159.73 162.496L159.562 161.368C158.442 162.632 156.946 163.264 155.074 163.264C153.89 163.264 152.898 162.92 152.098 162.232C151.282 161.528 150.874 160.536 150.874 159.256C150.874 158.04 151.298 157.096 152.146 156.424C153.01 155.736 154.138 155.392 155.53 155.392C156.698 155.392 157.882 155.6 159.082 156.016C159.082 154.848 158.874 154.032 158.458 153.568C158.058 153.104 157.33 152.872 156.274 152.872C155.17 152.872 154.002 152.992 152.77 153.232C152.562 153.232 152.426 153.208 152.362 153.16C152.298 153.096 152.234 152.96 152.17 152.752L151.882 151.6C151.834 151.408 151.826 151.272 151.858 151.192C151.906 151.096 152.018 151.024 152.194 150.976C152.338 150.944 152.914 150.856 153.922 150.712C154.866 150.584 155.69 150.52 156.394 150.52C158.618 150.52 160.098 151.024 160.834 152.032C161.49 152.928 161.818 154.36 161.818 156.328V162.496C161.818 162.688 161.778 162.824 161.698 162.904C161.634 162.968 161.506 163 161.314 163H160.282C160.026 163 159.842 162.832 159.73 162.496ZM159.082 159.472V157.96C157.834 157.544 156.866 157.336 156.178 157.336C155.33 157.336 154.682 157.512 154.234 157.864C153.802 158.2 153.586 158.664 153.586 159.256C153.586 159.8 153.794 160.256 154.21 160.624C154.642 160.992 155.226 161.176 155.962 161.176C157.098 161.176 158.138 160.608 159.082 159.472ZM174.207 159.88L175.095 160.84C175.303 161.096 175.327 161.304 175.167 161.464C173.951 162.664 172.471 163.264 170.727 163.264C168.999 163.264 167.503 162.648 166.239 161.416C165.007 160.152 164.391 158.648 164.391 156.904C164.391 155.16 165.007 153.656 166.239 152.392C167.487 151.144 168.983 150.52 170.727 150.52C172.471 150.52 173.951 151.12 175.167 152.32C175.327 152.48 175.303 152.688 175.095 152.944L174.207 153.904C174.063 154.08 173.927 154.168 173.799 154.168C173.703 154.168 173.599 154.112 173.487 154C172.799 153.312 171.879 152.968 170.727 152.968C169.719 152.968 168.863 153.352 168.159 154.12C167.455 154.872 167.103 155.8 167.103 156.904C167.103 158.008 167.455 158.936 168.159 159.688C168.863 160.44 169.719 160.816 170.727 160.816C171.879 160.816 172.799 160.472 173.487 159.784C173.599 159.672 173.703 159.616 173.799 159.616C173.927 159.616 174.063 159.704 174.207 159.88ZM188.996 157.792H180.02C180.164 158.688 180.58 159.432 181.268 160.024C181.956 160.616 182.772 160.912 183.716 160.912C184.836 160.912 185.932 160.608 187.004 160C187.212 159.888 187.356 159.832 187.436 159.832C187.5 159.832 187.596 159.896 187.724 160.024L188.42 160.912C188.628 161.168 188.652 161.392 188.492 161.584C187.98 162.096 187.276 162.504 186.38 162.808C185.484 163.112 184.572 163.264 183.644 163.264C181.852 163.264 180.324 162.648 179.06 161.416C177.812 160.168 177.188 158.664 177.188 156.904C177.188 155.16 177.804 153.656 179.036 152.392C180.284 151.144 181.78 150.52 183.524 150.52C185.396 150.52 186.852 151.168 187.892 152.464C188.948 153.76 189.476 155.352 189.476 157.24C189.476 157.448 189.444 157.592 189.38 157.672C189.316 157.752 189.188 157.792 188.996 157.792ZM183.476 152.776C182.532 152.776 181.748 153.088 181.124 153.712C180.516 154.336 180.164 155.096 180.068 155.992H186.692C186.596 155.08 186.26 154.32 185.684 153.712C185.108 153.088 184.372 152.776 183.476 152.776ZM192.351 162.496V145.792C192.351 145.6 192.383 145.472 192.447 145.408C192.527 145.328 192.663 145.288 192.855 145.288H194.583C194.775 145.288 194.903 145.328 194.967 145.408C195.047 145.472 195.087 145.6 195.087 145.792V152.752C195.343 152.256 195.815 151.76 196.503 151.264C197.191 150.768 198.055 150.52 199.095 150.52C200.711 150.52 202.031 151.144 203.055 152.392C204.111 153.608 204.639 155.112 204.639 156.904C204.639 158.648 204.111 160.144 203.055 161.392C202.031 162.64 200.711 163.264 199.095 163.264C197.399 163.264 195.903 162.488 194.607 160.936L194.271 162.496C194.111 162.832 193.919 163 193.695 163H192.855C192.663 163 192.527 162.968 192.447 162.904C192.383 162.824 192.351 162.688 192.351 162.496ZM198.495 160.864C199.471 160.864 200.287 160.488 200.943 159.736C201.583 158.984 201.903 158.04 201.903 156.904C201.903 155.8 201.575 154.872 200.919 154.12C200.279 153.352 199.471 152.968 198.495 152.968C197.503 152.968 196.687 153.36 196.047 154.144C195.391 154.928 195.063 155.848 195.063 156.904C195.063 157.96 195.391 158.888 196.047 159.688C196.687 160.472 197.503 160.864 198.495 160.864ZM217.52 161.416C216.288 162.648 214.8 163.264 213.056 163.264C211.312 163.264 209.808 162.648 208.544 161.416C207.312 160.152 206.696 158.648 206.696 156.904C206.696 155.144 207.32 153.64 208.568 152.392C209.816 151.144 211.312 150.52 213.056 150.52C214.816 150.52 216.304 151.144 217.52 152.392C218.768 153.64 219.392 155.144 219.392 156.904C219.392 158.664 218.768 160.168 217.52 161.416ZM210.464 154.12C209.76 154.872 209.408 155.8 209.408 156.904C209.408 157.992 209.76 158.928 210.464 159.712C211.184 160.48 212.048 160.864 213.056 160.864C214.08 160.864 214.936 160.48 215.624 159.712C216.328 158.928 216.68 157.992 216.68 156.904C216.68 155.8 216.328 154.872 215.624 154.12C214.936 153.352 214.08 152.968 213.056 152.968C212.048 152.968 211.184 153.352 210.464 154.12ZM232.239 161.416C231.007 162.648 229.519 163.264 227.775 163.264C226.031 163.264 224.527 162.648 223.263 161.416C222.031 160.152 221.415 158.648 221.415 156.904C221.415 155.144 222.039 153.64 223.287 152.392C224.535 151.144 226.031 150.52 227.775 150.52C229.535 150.52 231.023 151.144 232.239 152.392C233.487 153.64 234.111 155.144 234.111 156.904C234.111 158.664 233.487 160.168 232.239 161.416ZM225.183 154.12C224.479 154.872 224.127 155.8 224.127 156.904C224.127 157.992 224.479 158.928 225.183 159.712C225.903 160.48 226.767 160.864 227.775 160.864C228.799 160.864 229.655 160.48 230.343 159.712C231.047 158.928 231.399 157.992 231.399 156.904C231.399 155.8 231.047 154.872 230.343 154.12C229.655 153.352 228.799 152.968 227.775 152.968C226.767 152.968 225.903 153.352 225.183 154.12ZM237.164 162.496V145.792C237.164 145.6 237.196 145.472 237.26 145.408C237.324 145.328 237.46 145.288 237.668 145.288H239.372C239.58 145.288 239.716 145.328 239.78 145.408C239.86 145.472 239.9 145.6 239.9 145.792V156.04L244.34 151.288C244.612 150.952 244.868 150.784 245.108 150.784H247.508C247.668 150.784 247.772 150.84 247.82 150.952C247.868 151.048 247.836 151.16 247.724 151.288L242.636 156.52L248.012 162.496C248.332 162.832 248.26 163 247.796 163H245.42C245.164 163 244.908 162.832 244.652 162.496L239.9 157.192V162.496C239.9 162.688 239.86 162.824 239.78 162.904C239.716 162.968 239.58 163 239.372 163H237.668C237.46 163 237.324 162.968 237.26 162.904C237.196 162.824 237.164 162.688 237.164 162.496Z" fill="#0F172A"/>
</svg>
