<svg width="102" height="59" viewBox="0 0 102 59" fill="none" xmlns="http://www.w3.org/2000/svg">
<g clip-path="url(#clip0_297_5891)">
<path d="M1.04597 47.4325L13.5998 25.6345L26.2118 3.83645C27.7229 1.27882 30.2802 0 32.8955 0C35.5109 0 38.0682 1.27882 39.5793 3.83645L51.0289 23.6581L49.9246 25.6345L37.3126 47.4325C34.3485 52.6059 38.0682 59 43.9964 59H32.8955H7.72973C1.80153 59 -1.91813 52.5478 1.04597 47.4325Z" fill="#00F5BC"/>
<path d="M64.6864 47.4325L52.1326 25.6345L51.0283 23.6581L62.4779 3.83645C63.989 1.27882 66.5463 0 69.1616 0C71.777 0 74.3343 1.27882 75.8454 3.83645L88.3993 25.6345L100.953 47.4325C103.917 52.6059 100.198 59 94.2693 59H69.1035H58.0027C63.9309 59 67.6505 52.5478 64.6864 47.4325Z" fill="#FF4171"/>
<path d="M37.3125 47.4325L49.8664 25.6345L50.9706 23.6581L52.0749 25.6345L64.6288 47.4325C67.5929 52.6059 63.8732 59 57.945 59H43.9963C38.0099 59 34.3484 52.5478 37.3125 47.4325Z" fill="#424259"/>
</g>
<defs>
<clipPath id="clip0_297_5891">
<rect width="102" height="59" fill="white"/>
</clipPath>
</defs>
</svg>
