<svg width="25" height="24" viewBox="0 0 25 24" fill="none" xmlns="http://www.w3.org/2000/svg">
<path fill-rule="evenodd" clip-rule="evenodd" d="M4.43945 12C4.43945 11.5858 4.77524 11.25 5.18945 11.25H19.1895C19.6037 11.25 19.9395 11.5858 19.9395 12C19.9395 12.4142 19.6037 12.75 19.1895 12.75H5.18945C4.77524 12.75 4.43945 12.4142 4.43945 12Z" fill="#424259"/>
<path fill-rule="evenodd" clip-rule="evenodd" d="M19.7198 11.4697C20.0127 11.7626 20.0127 12.2374 19.7198 12.5303L15.7198 16.5303C15.4269 16.8232 14.952 16.8232 14.6591 16.5303C14.3662 16.2374 14.3662 15.7626 14.6591 15.4697L18.6591 11.4697C18.952 11.1768 19.4269 11.1768 19.7198 11.4697Z" fill="#424259"/>
<path fill-rule="evenodd" clip-rule="evenodd" d="M14.6591 7.46967C14.952 7.17678 15.4269 7.17678 15.7198 7.46967L19.7198 11.4697C20.0127 11.7626 20.0127 12.2374 19.7198 12.5303C19.4269 12.8232 18.952 12.8232 18.6591 12.5303L14.6591 8.53033C14.3662 8.23744 14.3662 7.76256 14.6591 7.46967Z" fill="#424259"/>
</svg>
