<svg width="384" height="202" viewBox="0 0 384 202" fill="none" xmlns="http://www.w3.org/2000/svg">
<path d="M0 30C0 20.6812 0 16.0218 1.52241 12.3463C3.55229 7.44577 7.44577 3.55229 12.3463 1.52241C16.0218 0 20.6812 0 30 0H354C363.319 0 367.978 0 371.654 1.52241C376.554 3.55229 380.448 7.44577 382.478 12.3463C384 16.0218 384 20.6812 384 30V172C384 181.319 384 185.978 382.478 189.654C380.448 194.554 376.554 198.448 371.654 200.478C367.978 202 363.319 202 354 202H30C20.6812 202 16.0218 202 12.3463 200.478C7.44577 198.448 3.55229 194.554 1.52241 189.654C0 185.978 0 181.319 0 172V30Z" fill="#EEF2F6"/>
<path d="M152 64C152 52.7989 152 47.1984 154.18 42.9202C156.097 39.1569 159.157 36.0973 162.92 34.1799C167.198 32 172.799 32 184 32H200C211.201 32 216.802 32 221.08 34.1799C224.843 36.0973 227.903 39.1569 229.82 42.9202C232 47.1984 232 52.799 232 64V80C232 91.201 232 96.8016 229.82 101.08C227.903 104.843 224.843 107.903 221.08 109.82C216.802 112 211.201 112 200 112H184C172.799 112 167.198 112 162.92 109.82C159.157 107.903 156.097 104.843 154.18 101.08C152 96.8016 152 91.201 152 80V64Z" fill="url(#paint0_linear_296_26787)"/>
<path d="M188.537 76.3428L188.036 83.931C188.772 83.931 189.097 83.5907 189.507 83.1868L193.042 79.71L200.395 85.2059C201.748 85.9612 202.725 85.5701 203.062 83.9349L207.89 60.9228C208.384 58.9184 207.134 58.0092 205.84 58.6038L177.494 69.6607C175.559 70.4458 175.571 71.5378 177.141 72.0243L184.416 74.3211L201.256 63.5733C202.051 63.0856 202.78 63.3478 202.182 63.8855L188.536 76.3425L188.537 76.3428Z" fill="white"/>
<path d="M143.438 162.496V148.792H138.182C137.99 148.792 137.854 148.76 137.774 148.696C137.71 148.616 137.678 148.48 137.678 148.288V146.704C137.678 146.512 137.71 146.384 137.774 146.32C137.854 146.24 137.99 146.2 138.182 146.2H151.574C151.782 146.2 151.918 146.24 151.982 146.32C152.046 146.384 152.078 146.512 152.078 146.704V148.288C152.078 148.496 152.038 148.632 151.958 148.696C151.894 148.76 151.766 148.792 151.574 148.792H146.342V162.496C146.342 162.688 146.302 162.824 146.222 162.904C146.158 162.968 146.022 163 145.814 163H143.942C143.734 163 143.598 162.968 143.534 162.904C143.47 162.824 143.438 162.688 143.438 162.496ZM163.238 157.792H154.262C154.406 158.688 154.822 159.432 155.51 160.024C156.198 160.616 157.014 160.912 157.958 160.912C159.078 160.912 160.174 160.608 161.246 160C161.454 159.888 161.598 159.832 161.678 159.832C161.742 159.832 161.838 159.896 161.966 160.024L162.662 160.912C162.87 161.168 162.894 161.392 162.734 161.584C162.222 162.096 161.518 162.504 160.622 162.808C159.726 163.112 158.814 163.264 157.886 163.264C156.094 163.264 154.566 162.648 153.302 161.416C152.054 160.168 151.43 158.664 151.43 156.904C151.43 155.16 152.046 153.656 153.278 152.392C154.526 151.144 156.022 150.52 157.766 150.52C159.638 150.52 161.094 151.168 162.134 152.464C163.19 153.76 163.718 155.352 163.718 157.24C163.718 157.448 163.686 157.592 163.622 157.672C163.558 157.752 163.43 157.792 163.238 157.792ZM157.718 152.776C156.774 152.776 155.99 153.088 155.366 153.712C154.758 154.336 154.406 155.096 154.31 155.992H160.934C160.838 155.08 160.502 154.32 159.926 153.712C159.35 153.088 158.614 152.776 157.718 152.776ZM168.993 163H167.265C167.073 163 166.937 162.968 166.857 162.904C166.793 162.824 166.761 162.688 166.761 162.496V145.792C166.761 145.6 166.793 145.472 166.857 145.408C166.937 145.328 167.073 145.288 167.265 145.288H168.993C169.201 145.288 169.337 145.328 169.401 145.408C169.465 145.472 169.497 145.6 169.497 145.792V162.496C169.497 162.688 169.457 162.824 169.377 162.904C169.313 162.968 169.185 163 168.993 163ZM184.473 157.792H175.497C175.641 158.688 176.057 159.432 176.745 160.024C177.433 160.616 178.249 160.912 179.193 160.912C180.313 160.912 181.409 160.608 182.481 160C182.689 159.888 182.833 159.832 182.913 159.832C182.977 159.832 183.073 159.896 183.201 160.024L183.897 160.912C184.105 161.168 184.129 161.392 183.969 161.584C183.457 162.096 182.753 162.504 181.857 162.808C180.961 163.112 180.049 163.264 179.121 163.264C177.329 163.264 175.801 162.648 174.537 161.416C173.289 160.168 172.665 158.664 172.665 156.904C172.665 155.16 173.281 153.656 174.513 152.392C175.761 151.144 177.257 150.52 179.001 150.52C180.873 150.52 182.329 151.168 183.369 152.464C184.425 153.76 184.953 155.352 184.953 157.24C184.953 157.448 184.921 157.592 184.857 157.672C184.793 157.752 184.665 157.792 184.473 157.792ZM178.953 152.776C178.009 152.776 177.225 153.088 176.601 153.712C175.993 154.336 175.641 155.096 175.545 155.992H182.169C182.073 155.08 181.737 154.32 181.161 153.712C180.585 153.088 179.849 152.776 178.953 152.776ZM188.187 167.44L188.547 166C188.611 165.744 188.699 165.616 188.811 165.616C188.859 165.616 188.947 165.64 189.075 165.688C190.467 166.248 191.739 166.528 192.891 166.528C195.259 166.528 196.443 165.128 196.443 162.328V161.032C196.171 161.528 195.691 162.024 195.003 162.52C194.315 163.016 193.459 163.264 192.435 163.264C190.819 163.264 189.491 162.648 188.451 161.416C187.411 160.184 186.891 158.672 186.891 156.88C186.891 155.12 187.411 153.624 188.451 152.392C189.507 151.144 190.835 150.52 192.435 150.52C194.147 150.52 195.635 151.296 196.899 152.848L197.235 151.288C197.395 150.952 197.595 150.784 197.835 150.784H198.675C198.867 150.784 198.995 150.824 199.059 150.904C199.139 150.968 199.179 151.096 199.179 151.288V161.992C199.179 166.616 197.227 168.928 193.323 168.928C191.659 168.928 190.043 168.632 188.475 168.04C188.299 167.96 188.195 167.888 188.163 167.824C188.131 167.76 188.139 167.632 188.187 167.44ZM193.035 152.92C192.043 152.92 191.219 153.304 190.563 154.072C189.923 154.808 189.603 155.744 189.603 156.88C189.603 157.952 189.931 158.88 190.587 159.664C191.243 160.432 192.059 160.816 193.035 160.816C194.011 160.816 194.819 160.432 195.459 159.664C196.115 158.864 196.443 157.936 196.443 156.88C196.443 155.824 196.115 154.896 195.459 154.096C194.819 153.312 194.011 152.92 193.035 152.92ZM203.229 162.496V151.288C203.229 151.096 203.261 150.968 203.325 150.904C203.405 150.824 203.541 150.784 203.733 150.784H204.597C204.837 150.784 205.037 150.952 205.197 151.288L205.701 153.16C206.069 152.472 206.549 151.888 207.141 151.408C207.861 150.816 208.917 150.52 210.309 150.52C210.533 150.52 210.677 150.552 210.741 150.616C210.805 150.68 210.821 150.808 210.789 151L210.525 152.752C210.493 152.944 210.437 153.072 210.357 153.136C210.277 153.2 210.149 153.232 209.973 153.232C208.709 153.232 207.725 153.584 207.021 154.288C206.317 154.976 205.965 155.872 205.965 156.976V162.496C205.965 162.688 205.925 162.824 205.845 162.904C205.781 162.968 205.653 163 205.461 163H203.733C203.541 163 203.405 162.968 203.325 162.904C203.261 162.824 203.229 162.688 203.229 162.496ZM220.996 162.496L220.828 161.368C219.708 162.632 218.212 163.264 216.34 163.264C215.156 163.264 214.164 162.92 213.364 162.232C212.548 161.528 212.14 160.536 212.14 159.256C212.14 158.04 212.564 157.096 213.412 156.424C214.276 155.736 215.404 155.392 216.796 155.392C217.964 155.392 219.148 155.6 220.348 156.016C220.348 154.848 220.14 154.032 219.724 153.568C219.324 153.104 218.596 152.872 217.54 152.872C216.436 152.872 215.268 152.992 214.036 153.232C213.828 153.232 213.692 153.208 213.628 153.16C213.564 153.096 213.5 152.96 213.436 152.752L213.148 151.6C213.1 151.408 213.092 151.272 213.124 151.192C213.172 151.096 213.284 151.024 213.46 150.976C213.604 150.944 214.18 150.856 215.188 150.712C216.132 150.584 216.956 150.52 217.66 150.52C219.884 150.52 221.364 151.024 222.1 152.032C222.756 152.928 223.084 154.36 223.084 156.328V162.496C223.084 162.688 223.044 162.824 222.964 162.904C222.9 162.968 222.772 163 222.58 163H221.548C221.292 163 221.108 162.832 220.996 162.496ZM220.348 159.472V157.96C219.1 157.544 218.132 157.336 217.444 157.336C216.596 157.336 215.948 157.512 215.5 157.864C215.068 158.2 214.852 158.664 214.852 159.256C214.852 159.8 215.06 160.256 215.476 160.624C215.908 160.992 216.492 161.176 217.228 161.176C218.364 161.176 219.404 160.608 220.348 159.472ZM226.641 162.496V151.288C226.641 151.096 226.673 150.968 226.737 150.904C226.817 150.824 226.953 150.784 227.145 150.784H228.009C228.217 150.784 228.409 150.952 228.585 151.288L228.921 152.848C229.145 152.512 229.417 152.152 229.737 151.768C230.009 151.448 230.409 151.16 230.937 150.904C231.465 150.648 232.009 150.52 232.569 150.52C234.409 150.52 235.737 151.312 236.553 152.896C237.529 151.312 238.801 150.52 240.369 150.52C243.441 150.52 244.977 152.36 244.977 156.04V162.496C244.977 162.688 244.937 162.824 244.857 162.904C244.793 162.968 244.665 163 244.473 163H242.745C242.553 163 242.417 162.968 242.337 162.904C242.273 162.824 242.241 162.688 242.241 162.496V156.64C242.241 154.192 241.401 152.968 239.721 152.968C238.921 152.968 238.297 153.28 237.849 153.904C237.401 154.528 237.177 155.408 237.177 156.544V162.496C237.177 162.688 237.137 162.824 237.057 162.904C236.993 162.968 236.865 163 236.673 163H234.945C234.753 163 234.617 162.968 234.537 162.904C234.473 162.824 234.441 162.688 234.441 162.496V156.64C234.441 154.192 233.601 152.968 231.921 152.968C230.225 152.968 229.377 154.224 229.377 156.736V162.496C229.377 162.688 229.337 162.824 229.257 162.904C229.193 162.968 229.065 163 228.873 163H227.145C226.953 163 226.817 162.968 226.737 162.904C226.673 162.824 226.641 162.688 226.641 162.496Z" fill="#0F172A"/>
<defs>
<linearGradient id="paint0_linear_296_26787" x1="225.939" y1="32" x2="156.242" y2="112" gradientUnits="userSpaceOnUse">
<stop stop-color="#37AEE2"/>
<stop offset="1" stop-color="#1E96C8"/>
</linearGradient>
</defs>
</svg>
