<svg width="384" height="202" viewBox="0 0 384 202" fill="none" xmlns="http://www.w3.org/2000/svg">
<path d="M0 30C0 20.6812 0 16.0218 1.52241 12.3463C3.55229 7.44577 7.44577 3.55229 12.3463 1.52241C16.0218 0 20.6812 0 30 0H354C363.319 0 367.978 0 371.654 1.52241C376.554 3.55229 380.448 7.44577 382.478 12.3463C384 16.0218 384 20.6812 384 30V172C384 181.319 384 185.978 382.478 189.654C380.448 194.554 376.554 198.448 371.654 200.478C367.978 202 363.319 202 354 202H30C20.6812 202 16.0218 202 12.3463 200.478C7.44577 198.448 3.55229 194.554 1.52241 189.654C0 185.978 0 181.319 0 172V30Z" fill="#EEF2F6"/>
<path d="M152 64C152 52.7989 152 47.1984 154.18 42.9202C156.097 39.1569 159.157 36.0973 162.92 34.1799C167.198 32 172.799 32 184 32H200C211.201 32 216.802 32 221.08 34.1799C224.843 36.0973 227.903 39.1569 229.82 42.9202C232 47.1984 232 52.799 232 64V80C232 91.201 232 96.8016 229.82 101.08C227.903 104.843 224.843 107.903 221.08 109.82C216.802 112 211.201 112 200 112H184C172.799 112 167.198 112 162.92 109.82C159.157 107.903 156.097 104.843 154.18 101.08C152 96.8016 152 91.201 152 80V64Z" fill="#25D366"/>
<path fill-rule="evenodd" clip-rule="evenodd" d="M191.99 87.725H191.984C189.33 87.7241 186.722 87.0583 184.406 85.7949L176 88L178.25 79.7832C176.862 77.3784 176.132 74.6505 176.133 71.8558C176.136 63.113 183.25 56 191.99 56C196.232 56.0018 200.213 57.6532 203.207 60.6505C206.201 63.6476 207.849 67.6315 207.847 71.8683C207.843 80.6092 200.733 87.7215 191.99 87.725ZM184.794 82.9245L185.275 83.2101C187.299 84.4109 189.618 85.0463 191.983 85.0472H191.989C199.253 85.0472 205.165 79.1348 205.168 71.8676C205.169 68.346 203.8 65.0347 201.311 62.5435C198.823 60.0523 195.514 58.6797 191.994 58.6784C184.724 58.6784 178.812 64.5903 178.809 71.8569C178.808 74.3472 179.504 76.7725 180.824 78.8709L181.137 79.3695L179.806 84.233L184.794 82.9245ZM199.437 75.2822C199.713 75.4157 199.9 75.5059 199.979 75.6389C200.078 75.8041 200.078 76.5974 199.748 77.5231C199.418 78.4485 197.835 79.2932 197.074 79.4069C196.391 79.509 195.528 79.5516 194.579 79.2499C194.003 79.0674 193.265 78.8236 192.32 78.4153C188.605 76.8115 186.095 73.2114 185.621 72.531C185.588 72.4834 185.564 72.45 185.551 72.4327L185.548 72.4285C185.339 72.1487 183.934 70.2742 183.934 68.3341C183.934 66.5091 184.83 65.5525 185.243 65.1121C185.271 65.082 185.297 65.0542 185.32 65.0288C185.683 64.6321 186.113 64.533 186.377 64.533C186.641 64.533 186.905 64.5354 187.136 64.547C187.165 64.5484 187.194 64.5483 187.225 64.5481C187.456 64.5467 187.744 64.545 188.028 65.2271C188.137 65.4896 188.297 65.8788 188.465 66.2893C188.806 67.1193 189.183 68.0363 189.249 68.169C189.348 68.3674 189.414 68.5986 189.282 68.8632C189.262 68.9028 189.244 68.9403 189.227 68.976C189.127 69.1786 189.054 69.3275 188.886 69.5241C188.82 69.6014 188.751 69.6847 188.683 69.768C188.547 69.934 188.41 70.1 188.292 70.2183C188.093 70.4158 187.887 70.6302 188.118 71.0268C188.349 71.4235 189.144 72.7209 190.322 73.7715C191.588 74.9009 192.689 75.3782 193.247 75.6202C193.355 75.6674 193.444 75.7057 193.508 75.7381C193.904 75.9365 194.136 75.9033 194.367 75.6389C194.598 75.3745 195.357 74.482 195.621 74.0854C195.885 73.6889 196.15 73.7549 196.513 73.8871C196.876 74.0194 198.824 74.9778 199.22 75.1761C199.297 75.2148 199.37 75.2498 199.437 75.2822Z" fill="#FDFDFD"/>
<path d="M137.533 162.88L131.221 146.704C131.141 146.512 131.117 146.384 131.149 146.32C131.197 146.24 131.309 146.2 131.485 146.2H133.789C134.109 146.2 134.333 146.368 134.461 146.704L138.181 157.264L141.949 146.392C142.093 146.056 142.229 145.888 142.357 145.888H142.693C142.821 145.888 142.957 146.056 143.101 146.392L146.869 157.264L150.589 146.704C150.701 146.368 150.925 146.2 151.261 146.2H153.565C153.741 146.2 153.845 146.24 153.877 146.32C153.925 146.384 153.909 146.512 153.829 146.704L147.517 162.88C147.373 163.2 147.253 163.36 147.157 163.36H146.917C146.821 163.36 146.701 163.2 146.557 162.88L142.525 151.432L138.493 162.88C138.349 163.2 138.229 163.36 138.133 163.36H137.917C137.837 163.36 137.709 163.2 137.533 162.88ZM155.896 162.496V145.792C155.896 145.6 155.928 145.472 155.992 145.408C156.072 145.328 156.208 145.288 156.4 145.288H158.128C158.464 145.288 158.632 145.456 158.632 145.792V152.368C159.592 151.136 160.712 150.52 161.992 150.52C165.112 150.52 166.672 152.368 166.672 156.064V162.496C166.672 162.688 166.632 162.824 166.552 162.904C166.488 162.968 166.36 163 166.168 163H164.44C164.248 163 164.112 162.968 164.032 162.904C163.968 162.824 163.936 162.688 163.936 162.496V156.64C163.936 154.192 163.056 152.968 161.296 152.968C160.448 152.968 159.792 153.304 159.328 153.976C158.864 154.632 158.632 155.552 158.632 156.736V162.496C158.632 162.688 158.592 162.824 158.512 162.904C158.448 162.968 158.32 163 158.128 163H156.4C156.208 163 156.072 162.968 155.992 162.904C155.928 162.824 155.896 162.688 155.896 162.496ZM178.398 162.496L178.23 161.368C177.11 162.632 175.614 163.264 173.742 163.264C172.558 163.264 171.566 162.92 170.766 162.232C169.95 161.528 169.542 160.536 169.542 159.256C169.542 158.04 169.966 157.096 170.814 156.424C171.678 155.736 172.806 155.392 174.198 155.392C175.366 155.392 176.55 155.6 177.75 156.016C177.75 154.848 177.542 154.032 177.126 153.568C176.726 153.104 175.998 152.872 174.942 152.872C173.838 152.872 172.67 152.992 171.438 153.232C171.23 153.232 171.094 153.208 171.03 153.16C170.966 153.096 170.902 152.96 170.838 152.752L170.55 151.6C170.502 151.408 170.494 151.272 170.526 151.192C170.574 151.096 170.686 151.024 170.862 150.976C171.006 150.944 171.582 150.856 172.59 150.712C173.534 150.584 174.358 150.52 175.062 150.52C177.286 150.52 178.766 151.024 179.502 152.032C180.158 152.928 180.486 154.36 180.486 156.328V162.496C180.486 162.688 180.446 162.824 180.366 162.904C180.302 162.968 180.174 163 179.982 163H178.95C178.694 163 178.51 162.832 178.398 162.496ZM177.75 159.472V157.96C176.502 157.544 175.534 157.336 174.846 157.336C173.998 157.336 173.35 157.512 172.902 157.864C172.47 158.2 172.254 158.664 172.254 159.256C172.254 159.8 172.462 160.256 172.878 160.624C173.31 160.992 173.894 161.176 174.63 161.176C175.766 161.176 176.806 160.608 177.75 159.472ZM184.451 157.96V152.968H183.563C183.371 152.968 183.235 152.936 183.155 152.872C183.091 152.792 183.059 152.656 183.059 152.464V151.288C183.059 151.08 183.091 150.944 183.155 150.88C183.235 150.816 183.371 150.784 183.563 150.784H184.451V148.432C184.451 148.24 184.483 148.112 184.547 148.048C184.611 147.968 184.747 147.928 184.955 147.928H186.659C186.851 147.928 186.979 147.968 187.043 148.048C187.123 148.112 187.163 148.24 187.163 148.432V150.784H190.859C191.051 150.784 191.179 150.824 191.243 150.904C191.323 150.968 191.363 151.104 191.363 151.312V152.464C191.363 152.656 191.323 152.792 191.243 152.872C191.179 152.936 191.051 152.968 190.859 152.968H187.163V157.792C187.163 158.848 187.339 159.616 187.691 160.096C188.059 160.576 188.619 160.816 189.371 160.816C189.931 160.816 190.411 160.712 190.811 160.504C191.019 160.424 191.147 160.384 191.195 160.384C191.323 160.384 191.411 160.528 191.459 160.816L191.675 162.016C191.739 162.32 191.651 162.536 191.411 162.664C190.771 163.064 189.995 163.264 189.083 163.264C187.547 163.264 186.387 162.808 185.603 161.896C184.835 160.984 184.451 159.672 184.451 157.96ZM193.797 161.008L194.325 160.096C194.453 159.856 194.573 159.736 194.685 159.736C194.749 159.736 194.853 159.784 194.997 159.88C196.165 160.712 197.405 161.128 198.717 161.128C199.565 161.128 200.213 160.984 200.661 160.696C201.125 160.392 201.357 159.992 201.357 159.496C201.357 159.128 201.125 158.832 200.661 158.608C200.213 158.384 199.485 158.208 198.477 158.08C197.085 157.888 195.997 157.56 195.213 157.096C194.269 156.536 193.797 155.64 193.797 154.408C193.797 153.24 194.237 152.304 195.117 151.6C196.013 150.88 197.189 150.52 198.645 150.52C200.213 150.52 201.757 150.968 203.277 151.864C203.565 152.04 203.613 152.288 203.421 152.608L202.917 153.496C202.789 153.736 202.653 153.856 202.509 153.856C202.445 153.856 202.349 153.816 202.221 153.736C201.069 153.016 199.933 152.656 198.813 152.656C197.197 152.656 196.389 153.192 196.389 154.264C196.389 154.68 196.597 154.992 197.013 155.2C197.429 155.392 198.181 155.56 199.269 155.704C200.805 155.896 201.965 156.28 202.749 156.856C203.549 157.416 203.949 158.248 203.949 159.352C203.949 160.52 203.485 161.464 202.557 162.184C201.645 162.904 200.421 163.264 198.885 163.264C197.077 163.264 195.421 162.752 193.917 161.728C193.661 161.552 193.621 161.312 193.797 161.008ZM205.142 162.496L213.254 146.32C213.286 146.272 213.334 146.2 213.398 146.104C213.462 145.992 213.51 145.92 213.542 145.888C213.574 145.856 213.614 145.84 213.662 145.84H213.734C213.862 145.84 214.006 146 214.166 146.32L222.278 162.496C222.342 162.624 222.342 162.744 222.278 162.856C222.214 162.952 222.11 163 221.966 163H219.734C219.446 163 219.222 162.832 219.062 162.496L217.502 159.208H209.918L208.358 162.496C208.246 162.704 208.15 162.84 208.07 162.904C207.99 162.968 207.862 163 207.686 163H205.454C205.31 163 205.206 162.952 205.142 162.856C205.078 162.744 205.078 162.624 205.142 162.496ZM213.686 150.76L210.926 156.736H216.518L213.734 150.76H213.686ZM224.448 167.392V151.288C224.448 151.096 224.48 150.968 224.544 150.904C224.624 150.824 224.76 150.784 224.952 150.784H225.792C226.016 150.784 226.208 150.952 226.368 151.288L226.704 152.848C228 151.296 229.496 150.52 231.192 150.52C232.808 150.52 234.128 151.144 235.152 152.392C236.208 153.608 236.736 155.104 236.736 156.88C236.736 158.656 236.208 160.168 235.152 161.416C234.112 162.648 232.792 163.264 231.192 163.264C230.168 163.264 229.312 163.016 228.624 162.52C227.936 162.024 227.456 161.528 227.184 161.032V167.392C227.184 167.584 227.144 167.712 227.064 167.776C227 167.856 226.872 167.896 226.68 167.896H224.952C224.76 167.896 224.624 167.856 224.544 167.776C224.48 167.712 224.448 167.584 224.448 167.392ZM234 156.88C234 155.744 233.68 154.808 233.04 154.072C232.4 153.304 231.584 152.92 230.592 152.92C229.6 152.92 228.784 153.312 228.144 154.096C227.488 154.896 227.16 155.824 227.16 156.88C227.16 157.936 227.488 158.864 228.144 159.664C228.784 160.432 229.6 160.816 230.592 160.816C231.552 160.816 232.36 160.44 233.016 159.688C233.672 158.904 234 157.968 234 156.88ZM239.73 167.392V151.288C239.73 151.096 239.762 150.968 239.826 150.904C239.906 150.824 240.042 150.784 240.234 150.784H241.074C241.298 150.784 241.49 150.952 241.65 151.288L241.986 152.848C243.282 151.296 244.778 150.52 246.474 150.52C248.09 150.52 249.41 151.144 250.434 152.392C251.49 153.608 252.018 155.104 252.018 156.88C252.018 158.656 251.49 160.168 250.434 161.416C249.394 162.648 248.074 163.264 246.474 163.264C245.45 163.264 244.594 163.016 243.906 162.52C243.218 162.024 242.738 161.528 242.466 161.032V167.392C242.466 167.584 242.426 167.712 242.346 167.776C242.282 167.856 242.154 167.896 241.962 167.896H240.234C240.042 167.896 239.906 167.856 239.826 167.776C239.762 167.712 239.73 167.584 239.73 167.392ZM249.282 156.88C249.282 155.744 248.962 154.808 248.322 154.072C247.682 153.304 246.866 152.92 245.874 152.92C244.882 152.92 244.066 153.312 243.426 154.096C242.77 154.896 242.442 155.824 242.442 156.88C242.442 157.936 242.77 158.864 243.426 159.664C244.066 160.432 244.882 160.816 245.874 160.816C246.834 160.816 247.642 160.44 248.298 159.688C248.954 158.904 249.282 157.968 249.282 156.88Z" fill="#0F172A"/>
</svg>
