<svg width="58" height="59" viewBox="0 0 58 59" fill="none" xmlns="http://www.w3.org/2000/svg">
<rect width="58" height="59" rx="29" fill="#E5E5E5"/>
<path d="M30.688 24.752C32.3093 25.136 33.6213 25.8933 34.624 27.024C35.648 28.1333 36.16 29.5307 36.16 31.216C36.16 33.456 35.4027 35.216 33.888 36.496C32.3733 37.776 30.5173 38.416 28.32 38.416C26.6133 38.416 25.0773 38.0213 23.712 37.232C22.368 36.4427 21.3973 35.2907 20.8 33.776L23.936 31.952C24.5973 33.872 26.0587 34.832 28.32 34.832C29.6 34.832 30.6133 34.512 31.36 33.872C32.1067 33.2107 32.48 32.3253 32.48 31.216C32.48 30.1067 32.1067 29.232 31.36 28.592C30.6133 27.952 29.6 27.632 28.32 27.632H27.488L26.016 25.424L30.848 19.056H21.472V15.6H35.232V18.736L30.688 24.752Z" fill="black"/>
</svg>
