<svg width="58" height="59" viewBox="0 0 58 59" fill="none" xmlns="http://www.w3.org/2000/svg">
<rect width="58" height="59" rx="29" fill="#E5E5E5"/>
<path d="M21.492 38V35.12L29.3 27.152C31.1987 25.2533 32.148 23.6107 32.148 22.224C32.148 21.136 31.8173 20.2933 31.156 19.696C30.516 19.0773 29.6947 18.768 28.692 18.768C26.8147 18.768 25.428 19.696 24.532 21.552L21.428 19.728C22.132 18.2347 23.124 17.104 24.404 16.336C25.684 15.568 27.1027 15.184 28.66 15.184C30.6227 15.184 32.308 15.8027 33.716 17.04C35.124 18.2773 35.828 19.9627 35.828 22.096C35.828 24.3787 34.5587 26.8107 32.02 29.392L26.964 34.448H36.244V38H21.492Z" fill="black"/>
</svg>
