<svg width="282" height="180" viewBox="0 0 282 180" fill="none" xmlns="http://www.w3.org/2000/svg">
<rect width="282" height="180" rx="16" fill="#F5F7FA"/>
<g clip-path="url(#clip0_249_5189)">
<path d="M231.655 96.2281C230.615 96.2281 229.653 95.9731 228.81 95.4827C227.966 94.9923 227.279 94.2862 226.788 93.3839C226.297 92.4816 226.042 91.4419 226.042 90.2846C226.042 89.1273 226.297 88.0877 226.788 87.1854C227.279 86.2831 227.946 85.5966 228.81 85.0866C229.653 84.5962 230.615 84.3412 231.655 84.3412C232.696 84.3412 233.657 84.5962 234.501 85.0866C235.345 85.5769 236.032 86.2831 236.523 87.1854C237.013 88.0877 237.269 89.1273 237.269 90.2846C237.269 91.4616 237.013 92.4816 236.523 93.3839C236.032 94.2862 235.345 94.9727 234.501 95.4827C233.657 95.9927 232.696 96.2281 231.655 96.2281ZM231.655 101.093C233.854 101.093 235.836 100.622 237.583 99.7C239.329 98.7781 240.703 97.4835 241.704 95.8358C242.705 94.1881 243.196 92.3443 243.196 90.2846C243.196 88.225 242.705 86.3812 241.704 84.7335C240.703 83.0858 239.329 81.8108 237.583 80.8693C235.836 79.9473 233.854 79.4766 231.655 79.4766C229.457 79.4766 227.475 79.9473 225.728 80.8693C223.981 81.7912 222.608 83.0858 221.607 84.7335C220.606 86.3812 220.115 88.225 220.115 90.2846C220.115 92.3443 220.606 94.1881 221.607 95.8358C222.608 97.4835 223.981 98.7585 225.728 99.7C227.475 100.642 229.457 101.093 231.655 101.093ZM210.576 95.5416C209.595 95.9927 208.535 96.2281 207.397 96.2281C206.259 96.2281 205.238 95.9731 204.335 95.4631C203.452 94.9531 202.746 94.2666 202.255 93.3643C201.764 92.4619 201.509 91.4419 201.509 90.2846C201.509 88.48 202.059 87.0481 203.138 85.9693C204.218 84.8904 205.67 84.3608 207.436 84.3608C209.399 84.3608 211.087 85.1258 212.48 86.6754L216.229 83.3016C215.208 82.0658 213.913 81.1439 212.363 80.4769C210.812 79.8296 209.085 79.4962 207.142 79.4962C204.924 79.4962 202.942 79.9473 201.175 80.8693C199.409 81.7912 198.035 83.0662 197.054 84.7139C196.073 86.3616 195.562 88.225 195.562 90.2846C195.562 92.3639 196.053 94.2273 197.054 95.8554C198.035 97.5031 199.409 98.7781 201.156 99.7C202.903 100.622 204.865 101.073 207.044 101.073C208.594 101.073 210.125 100.838 211.676 100.387C213.226 99.9354 214.58 99.2881 215.778 98.425V89.8139H210.576V95.5416ZM185.631 87.5973C185.631 88.5585 185.317 89.3235 184.709 89.8335C184.1 90.3631 183.178 90.6181 181.981 90.6181H178.723V84.5373H181.981C183.178 84.5373 184.1 84.8119 184.709 85.3416C185.317 85.8712 185.631 86.6362 185.631 87.5973ZM185.69 100.681H191.99L187.515 94.1489C188.83 93.5212 189.831 92.6385 190.538 91.5204C191.244 90.4023 191.598 89.0881 191.598 87.5973C191.598 86.0281 191.225 84.6746 190.479 83.5173C189.733 82.36 188.654 81.4773 187.28 80.8496C185.886 80.2219 184.257 79.9081 182.373 79.9081H172.835V100.681H178.723V95.1689H181.922L185.69 100.681ZM157.31 101.093C160.391 101.093 162.806 100.249 164.513 98.5623C166.221 96.8754 167.084 94.5019 167.084 91.4027V79.9081H161.294V91.2458C161.294 94.5608 159.979 96.2281 157.369 96.2281C154.739 96.2281 153.424 94.5608 153.424 91.2458V79.9081H147.536V91.4223C147.536 94.5019 148.4 96.895 150.107 98.5819C151.815 100.249 154.229 101.093 157.31 101.093ZM141.786 100.681V79.9081H136.938L129.813 91.8931L122.512 79.9081H117.684V100.681H123.121V89.9708L128.439 98.6408H131.03L136.369 89.6766V100.681H141.786ZM101.649 96.1496V92.3443H110.874V87.9504H101.649V84.4589H112.13V79.9081H95.8398V100.681H112.522V96.1496H101.649Z" fill="#002936"/>
<path d="M73.8587 78.025C76.4493 78.025 78.5494 75.9261 78.5494 73.3369C78.5494 70.7478 76.4493 68.6489 73.8587 68.6489C71.2681 68.6489 69.168 70.7478 69.168 73.3369C69.168 75.9261 71.2681 78.025 73.8587 78.025Z" fill="url(#paint0_linear_249_5189)"/>
<path d="M81.474 88.0681C83.8478 88.0681 85.7722 86.1448 85.7722 83.7723C85.7722 81.3998 83.8478 79.4766 81.474 79.4766C79.1002 79.4766 77.1758 81.3998 77.1758 83.7723C77.1758 86.1448 79.1002 88.0681 81.474 88.0681Z" fill="url(#paint1_linear_249_5189)"/>
<path d="M81.4721 101.093C83.6291 101.093 85.3778 99.345 85.3778 97.1892C85.3778 95.0334 83.6291 93.2858 81.4721 93.2858C79.315 93.2858 77.5664 95.0334 77.5664 97.1892C77.5664 99.345 79.315 101.093 81.4721 101.093Z" fill="url(#paint2_linear_249_5189)"/>
<path d="M73.8569 111.136C75.7972 111.136 77.37 109.564 77.37 107.625C77.37 105.686 75.7972 104.114 73.8569 104.114C71.9166 104.114 70.3438 105.686 70.3438 107.625C70.3438 109.564 71.9166 111.136 73.8569 111.136Z" fill="url(#paint3_linear_249_5189)"/>
<path d="M61.2964 114.843C63.0199 114.843 64.417 113.447 64.417 111.724C64.417 110.002 63.0199 108.605 61.2964 108.605C59.5729 108.605 58.1758 110.002 58.1758 111.724C58.1758 113.447 59.5729 114.843 61.2964 114.843Z" fill="url(#paint4_linear_249_5189)"/>
<path d="M48.7554 110.351C50.2621 110.351 51.4835 109.13 51.4835 107.625C51.4835 106.119 50.2621 104.898 48.7554 104.898C47.2487 104.898 46.0273 106.119 46.0273 107.625C46.0273 109.13 47.2487 110.351 48.7554 110.351Z" fill="url(#paint5_linear_249_5189)"/>
<path d="M41.1402 99.5234C42.4301 99.5234 43.4758 98.4784 43.4758 97.1892C43.4758 95.9 42.4301 94.855 41.1402 94.855C39.8504 94.855 38.8047 95.9 38.8047 97.1892C38.8047 98.4784 39.8504 99.5234 41.1402 99.5234Z" fill="url(#paint6_linear_249_5189)"/>
<path d="M41.1383 85.7142C42.2114 85.7142 43.0814 84.8448 43.0814 83.7723C43.0814 82.6998 42.2114 81.8304 41.1383 81.8304C40.0652 81.8304 39.1953 82.6998 39.1953 83.7723C39.1953 84.8448 40.0652 85.7142 41.1383 85.7142Z" fill="url(#paint7_linear_249_5189)"/>
<path d="M48.7536 74.8866C49.6099 74.8866 50.3041 74.1928 50.3041 73.337C50.3041 72.4811 49.6099 71.7874 48.7536 71.7874C47.8973 71.7874 47.2031 72.4811 47.2031 73.337C47.2031 74.1928 47.8973 74.8866 48.7536 74.8866Z" fill="url(#paint8_linear_249_5189)"/>
<path d="M61.2981 74.3177C64.1055 74.3177 66.3814 72.0431 66.3814 69.2373C66.3814 66.4315 64.1055 64.1569 61.2981 64.1569C58.4907 64.1569 56.2148 66.4315 56.2148 69.2373C56.2148 72.0431 58.4907 74.3177 61.2981 74.3177Z" fill="url(#paint9_linear_249_5189)"/>
<path d="M67.8522 84.7923C69.283 84.7923 70.4429 83.6331 70.4429 82.2031C70.4429 80.7731 69.283 79.6138 67.8522 79.6138C66.4214 79.6138 65.2615 80.7731 65.2615 82.2031C65.2615 83.6331 66.4214 84.7923 67.8522 84.7923Z" fill="url(#paint10_linear_249_5189)"/>
<path d="M72.0699 90.3434C73.3815 90.3434 74.4447 89.2808 74.4447 87.97C74.4447 86.6591 73.3815 85.5965 72.0699 85.5965C70.7583 85.5965 69.6951 86.6591 69.6951 87.97C69.6951 89.2808 70.7583 90.3434 72.0699 90.3434Z" fill="url(#paint11_linear_249_5189)"/>
<path d="M72.0727 97.5815C73.2651 97.5815 74.2317 96.6155 74.2317 95.4238C74.2317 94.2321 73.2651 93.2661 72.0727 93.2661C70.8804 93.2661 69.9138 94.2321 69.9138 95.4238C69.9138 96.6155 70.8804 97.5815 72.0727 97.5815Z" fill="url(#paint12_linear_249_5189)"/>
<path d="M67.8529 103.133C68.926 103.133 69.796 102.263 69.796 101.191C69.796 100.118 68.926 99.2488 67.8529 99.2488C66.7798 99.2488 65.9099 100.118 65.9099 101.191C65.9099 102.263 66.7798 103.133 67.8529 103.133Z" fill="url(#paint13_linear_249_5189)"/>
<path d="M60.9027 105.192C61.8565 105.192 62.6298 104.419 62.6298 103.466C62.6298 102.513 61.8565 101.74 60.9027 101.74C59.9488 101.74 59.1755 102.513 59.1755 103.466C59.1755 104.419 59.9488 105.192 60.9027 105.192Z" fill="url(#paint14_linear_249_5189)"/>
<path d="M53.9368 102.701C54.7714 102.701 55.448 102.025 55.448 101.191C55.448 100.357 54.7714 99.6804 53.9368 99.6804C53.1021 99.6804 52.4255 100.357 52.4255 101.191C52.4255 102.025 53.1021 102.701 53.9368 102.701Z" fill="url(#paint15_linear_249_5189)"/>
<path d="M49.717 96.7185C50.4324 96.7185 51.0123 96.1389 51.0123 95.4239C51.0123 94.7089 50.4324 94.1293 49.717 94.1293C49.0016 94.1293 48.4216 94.7089 48.4216 95.4239C48.4216 96.1389 49.0016 96.7185 49.717 96.7185Z" fill="url(#paint16_linear_249_5189)"/>
<path d="M49.7159 89.0488C50.3121 89.0488 50.7954 88.5658 50.7954 87.97C50.7954 87.3741 50.3121 86.8911 49.7159 86.8911C49.1198 86.8911 48.6365 87.3741 48.6365 87.97C48.6365 88.5658 49.1198 89.0488 49.7159 89.0488Z" fill="url(#paint17_linear_249_5189)"/>
<path d="M53.9375 83.0661C54.4145 83.0661 54.8011 82.6797 54.8011 82.203C54.8011 81.7264 54.4145 81.34 53.9375 81.34C53.4606 81.34 53.074 81.7264 53.074 82.203C53.074 82.6797 53.4606 83.0661 53.9375 83.0661Z" fill="url(#paint18_linear_249_5189)"/>
<path d="M60.9041 82.7523C62.465 82.7523 63.7303 81.4877 63.7303 79.9277C63.7303 78.3677 62.465 77.1031 60.9041 77.1031C59.3432 77.1031 58.0779 78.3677 58.0779 79.9277C58.0779 81.4877 59.3432 82.7523 60.9041 82.7523Z" fill="url(#paint19_linear_249_5189)"/>
<path d="M63.9042 88.6958C64.5545 88.6958 65.0817 88.1688 65.0817 87.5188C65.0817 86.8688 64.5545 86.3419 63.9042 86.3419C63.2538 86.3419 62.7266 86.8688 62.7266 87.5188C62.7266 88.1688 63.2538 88.6958 63.9042 88.6958Z" fill="url(#paint20_linear_249_5189)"/>
<path d="M65.8099 91.2065C66.4061 91.2065 66.8894 90.7235 66.8894 90.1277C66.8894 89.5318 66.4061 89.0488 65.8099 89.0488C65.2138 89.0488 64.7305 89.5318 64.7305 90.1277C64.7305 90.7235 65.2138 91.2065 65.8099 91.2065Z" fill="url(#paint21_linear_249_5189)"/>
<path d="M65.8095 94.4626C66.3514 94.4626 66.7908 94.0235 66.7908 93.4819C66.7908 92.9402 66.3514 92.5011 65.8095 92.5011C65.2675 92.5011 64.8281 92.9402 64.8281 93.4819C64.8281 94.0235 65.2675 94.4626 65.8095 94.4626Z" fill="url(#paint22_linear_249_5189)"/>
<path d="M63.9066 96.9734C64.3944 96.9734 64.7898 96.5782 64.7898 96.0907C64.7898 95.6032 64.3944 95.208 63.9066 95.208C63.4189 95.208 63.0234 95.6032 63.0234 96.0907C63.0234 96.5782 63.4189 96.9734 63.9066 96.9734Z" fill="url(#paint23_linear_249_5189)"/>
<path d="M60.7851 97.8954C61.2186 97.8954 61.5701 97.5441 61.5701 97.1108C61.5701 96.6775 61.2186 96.3262 60.7851 96.3262C60.3515 96.3262 60 96.6775 60 97.1108C60 97.5441 60.3515 97.8954 60.7851 97.8954Z" fill="url(#paint24_linear_249_5189)"/>
<path d="M57.644 96.7774C58.0233 96.7774 58.3309 96.47 58.3309 96.0908C58.3309 95.7117 58.0233 95.4043 57.644 95.4043C57.2646 95.4043 56.957 95.7117 56.957 96.0908C56.957 96.47 57.2646 96.7774 57.644 96.7774Z" fill="url(#paint25_linear_249_5189)"/>
<path d="M55.7411 94.0704C56.0663 94.0704 56.3299 93.8069 56.3299 93.4819C56.3299 93.1569 56.0663 92.8934 55.7411 92.8934C55.416 92.8934 55.1523 93.1569 55.1523 93.4819C55.1523 93.8069 55.416 94.0704 55.7411 94.0704Z" fill="url(#paint26_linear_249_5189)"/>
<path d="M55.7407 90.6181C56.0116 90.6181 56.2313 90.3985 56.2313 90.1277C56.2313 89.8569 56.0116 89.6373 55.7407 89.6373C55.4697 89.6373 55.25 89.8569 55.25 90.1277C55.25 90.3985 55.4697 90.6181 55.7407 90.6181Z" fill="url(#paint27_linear_249_5189)"/>
<path d="M57.6464 87.9111C57.8632 87.9111 58.039 87.7355 58.039 87.5188C58.039 87.3022 57.8632 87.1265 57.6464 87.1265C57.4296 87.1265 57.2539 87.3022 57.2539 87.5188C57.2539 87.7355 57.4296 87.9111 57.6464 87.9111Z" fill="url(#paint28_linear_249_5189)"/>
<path d="M60.7874 87.7738C61.492 87.7738 62.0632 87.203 62.0632 86.4988C62.0632 85.7947 61.492 85.2238 60.7874 85.2238C60.0829 85.2238 59.5117 85.7947 59.5117 86.4988C59.5117 87.203 60.0829 87.7738 60.7874 87.7738Z" fill="url(#paint29_linear_249_5189)"/>
</g>
<defs>
<linearGradient id="paint0_linear_249_5189" x1="41.4078" y1="105.768" x2="77.7466" y2="69.4085" gradientUnits="userSpaceOnUse">
<stop stop-color="#FFD363"/>
<stop offset="1" stop-color="#FF1055"/>
</linearGradient>
<linearGradient id="paint1_linear_249_5189" x1="50.3551" y1="114.867" x2="86.6939" y2="78.5068" gradientUnits="userSpaceOnUse">
<stop stop-color="#FFD363"/>
<stop offset="1" stop-color="#FF1055"/>
</linearGradient>
<linearGradient id="paint2_linear_249_5189" x1="57.0115" y1="121.638" x2="93.3504" y2="85.2781" gradientUnits="userSpaceOnUse">
<stop stop-color="#FFD363"/>
<stop offset="1" stop-color="#FF1055"/>
</linearGradient>
<linearGradient id="paint3_linear_249_5189" x1="58.4073" y1="123.058" x2="94.7462" y2="86.6983" gradientUnits="userSpaceOnUse">
<stop stop-color="#FFD363"/>
<stop offset="1" stop-color="#FF1055"/>
</linearGradient>
<linearGradient id="paint4_linear_249_5189" x1="54.2191" y1="118.799" x2="90.558" y2="82.4396" gradientUnits="userSpaceOnUse">
<stop stop-color="#FFD363"/>
<stop offset="1" stop-color="#FF1055"/>
</linearGradient>
<linearGradient id="paint5_linear_249_5189" x1="45.9665" y1="110.407" x2="82.3054" y2="74.0474" gradientUnits="userSpaceOnUse">
<stop stop-color="#FFD363"/>
<stop offset="1" stop-color="#FF1055"/>
</linearGradient>
<linearGradient id="paint6_linear_249_5189" x1="37.0192" y1="101.309" x2="73.3581" y2="64.9491" gradientUnits="userSpaceOnUse">
<stop stop-color="#FFD363"/>
<stop offset="1" stop-color="#FF1055"/>
</linearGradient>
<linearGradient id="paint7_linear_249_5189" x1="30.3583" y1="94.5368" x2="66.6972" y2="58.1771" gradientUnits="userSpaceOnUse">
<stop stop-color="#FFD363"/>
<stop offset="1" stop-color="#FF1055"/>
</linearGradient>
<linearGradient id="paint8_linear_249_5189" x1="28.9616" y1="93.1157" x2="65.3005" y2="56.756" gradientUnits="userSpaceOnUse">
<stop stop-color="#FFD363"/>
<stop offset="1" stop-color="#FF1055"/>
</linearGradient>
<linearGradient id="paint9_linear_249_5189" x1="33.1547" y1="97.3758" x2="69.4936" y2="61.016" gradientUnits="userSpaceOnUse">
<stop stop-color="#FFD363"/>
<stop offset="1" stop-color="#FF1055"/>
</linearGradient>
<linearGradient id="paint10_linear_249_5189" x1="42.8269" y1="107.213" x2="79.1658" y2="70.853" gradientUnits="userSpaceOnUse">
<stop stop-color="#FFD363"/>
<stop offset="1" stop-color="#FF1055"/>
</linearGradient>
<linearGradient id="paint11_linear_249_5189" x1="47.7832" y1="112.255" x2="84.1221" y2="75.895" gradientUnits="userSpaceOnUse">
<stop stop-color="#FFD363"/>
<stop offset="1" stop-color="#FF1055"/>
</linearGradient>
<linearGradient id="paint12_linear_249_5189" x1="51.476" y1="116.007" x2="87.8148" y2="79.6475" gradientUnits="userSpaceOnUse">
<stop stop-color="#FFD363"/>
<stop offset="1" stop-color="#FF1055"/>
</linearGradient>
<linearGradient id="paint13_linear_249_5189" x1="52.2494" y1="116.794" x2="88.5883" y2="80.4345" gradientUnits="userSpaceOnUse">
<stop stop-color="#FFD363"/>
<stop offset="1" stop-color="#FF1055"/>
</linearGradient>
<linearGradient id="paint14_linear_249_5189" x1="49.9257" y1="114.434" x2="86.2646" y2="78.0745" gradientUnits="userSpaceOnUse">
<stop stop-color="#FFD363"/>
<stop offset="1" stop-color="#FF1055"/>
</linearGradient>
<linearGradient id="paint15_linear_249_5189" x1="45.3536" y1="109.784" x2="81.6925" y2="73.4238" gradientUnits="userSpaceOnUse">
<stop stop-color="#FFD363"/>
<stop offset="1" stop-color="#FF1055"/>
</linearGradient>
<linearGradient id="paint16_linear_249_5189" x1="40.3951" y1="104.741" x2="76.734" y2="68.3817" gradientUnits="userSpaceOnUse">
<stop stop-color="#FFD363"/>
<stop offset="1" stop-color="#FF1055"/>
</linearGradient>
<linearGradient id="paint17_linear_249_5189" x1="36.7038" y1="100.988" x2="73.0427" y2="64.6287" gradientUnits="userSpaceOnUse">
<stop stop-color="#FFD363"/>
<stop offset="1" stop-color="#FF1055"/>
</linearGradient>
<linearGradient id="paint18_linear_249_5189" x1="35.9316" y1="100.201" x2="72.2705" y2="63.8412" gradientUnits="userSpaceOnUse">
<stop stop-color="#FFD363"/>
<stop offset="1" stop-color="#FF1055"/>
</linearGradient>
<linearGradient id="paint19_linear_249_5189" x1="38.2527" y1="102.562" x2="74.5916" y2="66.2021" gradientUnits="userSpaceOnUse">
<stop stop-color="#FFD363"/>
<stop offset="1" stop-color="#FF1055"/>
</linearGradient>
<linearGradient id="paint20_linear_249_5189" x1="43.5135" y1="107.914" x2="79.8524" y2="71.5546" gradientUnits="userSpaceOnUse">
<stop stop-color="#FFD363"/>
<stop offset="1" stop-color="#FF1055"/>
</linearGradient>
<linearGradient id="paint21_linear_249_5189" x1="45.7509" y1="110.188" x2="82.0898" y2="73.8278" gradientUnits="userSpaceOnUse">
<stop stop-color="#FFD363"/>
<stop offset="1" stop-color="#FF1055"/>
</linearGradient>
<linearGradient id="paint22_linear_249_5189" x1="47.414" y1="111.879" x2="83.7529" y2="75.5196" gradientUnits="userSpaceOnUse">
<stop stop-color="#FFD363"/>
<stop offset="1" stop-color="#FF1055"/>
</linearGradient>
<linearGradient id="paint23_linear_249_5189" x1="47.7637" y1="112.234" x2="84.1026" y2="75.8744" gradientUnits="userSpaceOnUse">
<stop stop-color="#FFD363"/>
<stop offset="1" stop-color="#FF1055"/>
</linearGradient>
<linearGradient id="paint24_linear_249_5189" x1="46.7162" y1="111.17" x2="83.0551" y2="74.8104" gradientUnits="userSpaceOnUse">
<stop stop-color="#FFD363"/>
<stop offset="1" stop-color="#FF1055"/>
</linearGradient>
<linearGradient id="paint25_linear_249_5189" x1="44.6534" y1="109.073" x2="80.9923" y2="72.7138" gradientUnits="userSpaceOnUse">
<stop stop-color="#FFD363"/>
<stop offset="1" stop-color="#FF1055"/>
</linearGradient>
<linearGradient id="paint26_linear_249_5189" x1="42.4189" y1="106.8" x2="78.7578" y2="70.4404" gradientUnits="userSpaceOnUse">
<stop stop-color="#FFD363"/>
<stop offset="1" stop-color="#FF1055"/>
</linearGradient>
<linearGradient id="paint27_linear_249_5189" x1="40.7547" y1="105.108" x2="77.0936" y2="68.7486" gradientUnits="userSpaceOnUse">
<stop stop-color="#FFD363"/>
<stop offset="1" stop-color="#FF1055"/>
</linearGradient>
<linearGradient id="paint28_linear_249_5189" x1="40.4077" y1="104.753" x2="76.7466" y2="68.3935" gradientUnits="userSpaceOnUse">
<stop stop-color="#FFD363"/>
<stop offset="1" stop-color="#FF1055"/>
</linearGradient>
<linearGradient id="paint29_linear_249_5189" x1="41.4553" y1="105.818" x2="77.7942" y2="69.4578" gradientUnits="userSpaceOnUse">
<stop stop-color="#FFD363"/>
<stop offset="1" stop-color="#FF1055"/>
</linearGradient>
<clipPath id="clip0_249_5189">
<rect width="206" height="51" fill="white" transform="translate(38 64)"/>
</clipPath>
</defs>
</svg>
