<svg width="282" height="180" viewBox="0 0 282 180" fill="none" xmlns="http://www.w3.org/2000/svg">
<rect width="282" height="180" rx="16" fill="#F5F7FA"/>
<path d="M141.047 88.9256H152.658V90.0114C149.907 90.4323 148.947 90.8545 148.947 94.6507V106.821C144.999 109.356 140.402 110.676 135.72 110.62C122.621 110.62 114.23 101.885 114.23 89.5343C114.23 76.8803 123.809 67.784 137.155 67.784C142.724 67.784 147.033 68.9301 150.743 70.796V77.5453H149.606C147.631 72.119 143.501 69.5827 136.976 69.5827C125.364 69.5827 117.216 77.8373 117.216 89.2834C117.216 101.155 125.239 108.806 136.31 108.806C139.9 108.806 143.252 108.081 146.244 106.571V94.7124C146.244 90.8545 145.408 90.4323 141.039 90.0183L141.047 88.9256ZM156.069 106.519V99.4107H157.206C159.601 106.455 164.03 108.81 169.009 108.81C173.855 108.81 178.999 105.738 178.999 100.073C178.999 96.3987 176.843 94.2888 171.937 91.9979L165.831 89.1669C160.682 86.7581 157.509 83.4445 157.509 78.4405C157.509 72.7181 162.239 67.7772 170.081 67.7772C174.21 67.7772 178.517 69.1029 181.154 70.7288V77.4191H180.016C178.102 71.3869 174.022 69.5978 169.781 69.5978C164.034 69.5978 160.143 73.0937 160.143 78.1553C160.143 82.4327 162.839 84.7209 166.967 86.5881L173.133 89.4191C178.64 91.9513 181.632 94.8427 181.632 99.6026C181.632 105.987 176.007 110.627 168.755 110.627C164.203 110.633 159.764 109.196 156.069 106.519ZM219.996 109.953V110.134H216.345L195.934 88.7474H192.702V103.567C192.702 108.508 193.59 108.81 196.475 109.049V110.134H186.236V109.049C189.23 108.81 190.01 108.508 190.01 103.567V75.1913C190.01 70.6713 189.344 69.7075 186.237 69.3455V68.2625H199.163C208.085 68.2625 213.772 72.119 213.772 78.3185C213.772 84.4055 208.323 88.5623 199.704 88.8639L219.996 109.953ZM192.7 86.9377H198.627C206.468 86.9377 210.838 83.8092 210.838 78.3802C210.838 73.1404 206.528 70.068 198.688 70.068H192.692L192.702 86.9377H192.7Z" fill="black"/>
<path d="M85.0897 81.9832V66.6778H83.3803V81.9832C83.9479 81.9117 84.5222 81.9117 85.0897 81.9832ZM72.8788 69.7844L71.4405 70.7139L79.6537 83.5872C80.0953 83.2211 80.5786 82.909 81.0934 82.6577L72.8788 69.7844ZM64.2692 79.0466L63.5582 80.6109L77.3873 86.968C77.5616 86.4196 77.8 85.8945 78.0983 85.4051L64.2692 79.0452V79.0466ZM62 91.5251L62.2452 93.2278L77.2919 91.048C77.1459 90.4923 77.065 89.9213 77.0508 89.3466L62 91.5251ZM78.2821 93.2347L66.7945 103.255L67.9046 104.553L79.3963 94.533C78.9759 94.1453 78.6023 93.7091 78.2835 93.2333L78.2821 93.2347ZM77.1285 110.517L78.767 111.002L83.0521 96.3193C82.4877 96.2248 81.9366 96.0624 81.4108 95.8354L77.1285 110.518V110.517ZM89.7208 111.002L91.3621 110.517L87.0879 95.8354C86.5619 96.0616 86.0109 96.2236 85.4466 96.318L89.7208 111.001V111.002ZM89.086 94.5343L100.575 104.557L101.696 103.256L90.1961 93.2347C89.8789 93.7109 89.5062 94.1472 89.086 94.5343ZM91.1972 91.0494L106.245 93.2278L106.491 91.5251L91.437 89.3453C91.4233 89.9211 91.3443 90.4927 91.1972 91.0494ZM104.931 80.6109L104.221 79.0466L90.3909 85.4037C90.6906 85.8945 90.9289 86.4196 91.1019 86.968L104.931 80.6109ZM97.0473 70.7125L95.609 69.7844L87.3944 82.6577C87.9087 82.9091 88.3915 83.2211 88.8327 83.5872L97.0473 70.7139V70.7125ZM77.1285 67.8335L78.7698 67.3496L81.5865 77.0066L79.9452 77.4919L77.1285 67.8335ZM86.904 77.0039L89.7194 67.3468L91.3607 67.8308L88.5439 77.4878L86.904 77.0039ZM66.7931 75.0914L67.9127 73.7917L75.4722 80.386L74.3539 81.6857L66.7931 75.0914ZM62 86.8227L62.2424 85.12L72.1419 86.5526L71.8981 88.2553L62 86.8227ZM63.6903 97.7383L72.793 93.5102L73.5108 95.0759L64.4081 99.3039L63.6903 97.7383ZM71.4432 107.637L76.8506 99.1682L78.2889 100.098L72.8815 108.567L71.4432 107.637ZM83.3885 101.606H85.0979V111.67H83.3885V101.606ZM90.1988 100.094L91.6386 99.1613L97.046 107.631L95.6076 108.563L90.1988 100.094ZM95.1254 95.1225L95.8364 93.5582L104.934 97.7396L104.224 99.3066L95.1254 95.1225ZM96.3445 86.5553L106.244 85.1227L106.488 86.8254L96.5883 88.2581L96.3445 86.5553ZM93.0142 80.3874L100.576 73.7917L101.695 75.0927L94.1352 81.6871L93.0142 80.3874Z" fill="#5E93C6"/>
</svg>
