<svg width="80" height="80" viewBox="0 0 80 80" fill="none" xmlns="http://www.w3.org/2000/svg">
<g clip-path="url(#clip0_249_5096)">
<path d="M40 80C62.0914 80 80 62.0914 80 40C80 17.9086 62.0914 0 40 0C17.9086 0 0 17.9086 0 40C0 62.0914 17.9086 80 40 80Z" fill="#00F5BC"/>
<path d="M29.1547 40C29.1547 37.1236 30.2973 34.3651 32.3312 32.3312C34.3651 30.2973 37.1236 29.1547 40 29.1547V12H34.2133L33.0747 17.6933C32.9926 18.108 32.8095 18.4961 32.5414 18.823C32.2733 19.1498 31.9286 19.4054 31.538 19.567C31.1473 19.7287 30.7228 19.7913 30.3022 19.7493C29.8815 19.7074 29.4777 19.5622 29.1267 19.3267L24.292 16.1067L16.1067 24.292L19.3267 29.1267C19.5622 29.4777 19.7074 29.8815 19.7493 30.3022C19.7913 30.7228 19.7287 31.1473 19.567 31.538C19.4054 31.9286 19.1498 32.2733 18.823 32.5414C18.4961 32.8095 18.108 32.9926 17.6933 33.0747L12 34.2133V45.7867L17.6933 46.9253C18.108 47.0074 18.4961 47.1905 18.823 47.4586C19.1498 47.7267 19.4054 48.0714 19.567 48.462C19.7287 48.8527 19.7913 49.2772 19.7493 49.6978C19.7074 50.1185 19.5622 50.5223 19.3267 50.8733L16.1067 55.708L24.292 63.8933L29.1267 60.6733C29.4777 60.4378 29.8815 60.2926 30.3022 60.2507C30.7228 60.2087 31.1473 60.2713 31.538 60.433C31.9286 60.5946 32.2733 60.8502 32.5414 61.177C32.8095 61.5039 32.9926 61.892 33.0747 62.3067L34.2133 68H40V50.8453C37.1236 50.8453 34.3651 49.7027 32.3312 47.6688C30.2973 45.6349 29.1547 42.8764 29.1547 40Z" fill="#00F5BC"/>
<path d="M60.6733 29.1267L63.8933 24.292L55.708 16.1067L50.8733 19.3267C50.5223 19.5622 50.1185 19.7074 49.6978 19.7493C49.2772 19.7913 48.8527 19.7287 48.462 19.567C48.0714 19.4054 47.7267 19.1498 47.4586 18.823C47.1905 18.4961 47.0074 18.108 46.9253 17.6933L45.7867 12H40V29.1547C42.8764 29.1547 45.6349 30.2973 47.6688 32.3312C49.7027 34.3651 50.8453 37.1236 50.8453 40C50.8453 42.8764 49.7027 45.6349 47.6688 47.6688C45.6349 49.7027 42.8764 50.8453 40 50.8453V68H45.7867L46.9253 62.3067C47.0074 61.892 47.1905 61.5039 47.4586 61.177C47.7267 60.8502 48.0714 60.5946 48.462 60.433C48.8527 60.2713 49.2772 60.2087 49.6978 60.2507C50.1185 60.2926 50.5223 60.4378 50.8733 60.6733L55.708 63.8933L63.8933 55.708L60.6733 50.8733C60.4378 50.5223 60.2926 50.1185 60.2507 49.6978C60.2087 49.2772 60.2713 48.8527 60.433 48.462C60.5946 48.0714 60.8502 47.7267 61.177 47.4586C61.5039 47.1905 61.892 47.0074 62.3067 46.9253L68 45.7867V34.2133L62.3067 33.0747C61.892 32.9926 61.5039 32.8095 61.177 32.5414C60.8502 32.2733 60.5946 31.9286 60.433 31.538C60.2713 31.1473 60.2087 30.7228 60.2507 30.3022C60.2926 29.8815 60.4378 29.4777 60.6733 29.1267Z" fill="#424259"/>
<g clip-path="url(#clip1_249_5096)">
<path d="M40.0001 25.6C47.953 25.6 54.4001 32.0471 54.4001 40C54.4001 47.9529 47.953 54.4 40.0001 54.4C32.0473 54.4 25.6002 47.9529 25.6002 40C25.5775 32.0697 31.9879 25.6227 39.9181 25.6C39.9455 25.6 39.9728 25.6 40.0001 25.6Z" fill="#00F5BC"/>
<path d="M47.9765 36.0315L37.7492 46.2587L32.022 40.5724L34.3538 38.2815L37.7492 41.6361L45.6447 33.7406L47.9765 36.0315Z" fill="#424259"/>
</g>
<path d="M22.75 39.9996C22.7549 44.5725 24.5737 48.9567 27.8073 52.1903C31.0408 55.4239 35.4251 57.2426 39.998 57.2476V54.2889C36.2082 54.2889 32.5737 52.7834 29.8939 50.1037C27.2141 47.4239 25.7087 43.7894 25.7087 39.9996C25.7087 36.2098 27.2141 32.5753 29.8939 29.8955C32.5737 27.2157 36.2082 25.7103 39.998 25.7103V22.7516C35.4251 22.7565 31.0408 24.5753 27.8073 27.8089C24.5737 31.0424 22.7549 35.4266 22.75 39.9996Z" fill="#424259"/>
<path d="M40 25.7108C43.7898 25.7108 47.4243 27.2163 50.1041 29.8961C52.7839 32.5759 54.2893 36.2104 54.2893 40.0002C54.2893 43.7899 52.7839 47.4245 50.1041 50.1043C47.4243 52.784 43.7898 54.2895 40 54.2895V57.2482C44.5794 57.2482 48.9712 55.429 52.2094 52.1909C55.4475 48.9528 57.2667 44.5609 57.2667 39.9815C57.2667 35.4021 55.4475 31.0103 52.2094 27.7721C48.9712 24.534 44.5794 22.7148 40 22.7148V25.6735V25.7108Z" fill="#EEF2F6"/>
<path opacity="0.2" d="M29.1547 40C29.1547 37.1236 30.2973 34.3651 32.3312 32.3312C34.3651 30.2973 37.1236 29.1547 40 29.1547V12H34.2133L33.0747 17.6933C32.9926 18.108 32.8095 18.4961 32.5414 18.823C32.2733 19.1498 31.9286 19.4054 31.538 19.567C31.1473 19.7287 30.7228 19.7913 30.3022 19.7493C29.8815 19.7074 29.4777 19.5622 29.1267 19.3267L24.292 16.1067L16.1067 24.292L19.3267 29.1267C19.5622 29.4777 19.7074 29.8815 19.7493 30.3022C19.7913 30.7228 19.7287 31.1473 19.567 31.538C19.4054 31.9286 19.1498 32.2733 18.823 32.5414C18.4961 32.8095 18.108 32.9926 17.6933 33.0747L12 34.2133V45.7867L17.6933 46.9253C18.108 47.0074 18.4961 47.1905 18.823 47.4586C19.1498 47.7267 19.4054 48.0714 19.567 48.462C19.7287 48.8527 19.7913 49.2772 19.7493 49.6978C19.7074 50.1185 19.5622 50.5223 19.3267 50.8733L16.1067 55.708L24.292 63.8933L29.1267 60.6733C29.4777 60.4378 29.8815 60.2926 30.3022 60.2507C30.7228 60.2087 31.1473 60.2713 31.538 60.433C31.9286 60.5946 32.2733 60.8502 32.5414 61.177C32.8095 61.5039 32.9926 61.892 33.0747 62.3067L34.2133 68H40V50.8453C37.1236 50.8453 34.3651 49.7027 32.3312 47.6688C30.2973 45.6349 29.1547 42.8764 29.1547 40Z" fill="#424259"/>
<path d="M60.6733 29.1267L63.8933 24.292L55.708 16.1067L50.8733 19.3267C50.5223 19.5622 50.1185 19.7074 49.6978 19.7493C49.2772 19.7913 48.8527 19.7287 48.462 19.567C48.0714 19.4054 47.7267 19.1498 47.4586 18.823C47.1905 18.4961 47.0074 18.108 46.9253 17.6933L45.7867 12H40V29.1547C42.8764 29.1547 45.6349 30.2973 47.6688 32.3312C49.7027 34.3651 50.8453 37.1236 50.8453 40C50.8453 42.8764 49.7027 45.6349 47.6688 47.6688C45.6349 49.7027 42.8764 50.8453 40 50.8453V68H45.7867L46.9253 62.3067C47.0074 61.892 47.1905 61.5039 47.4586 61.177C47.7267 60.8502 48.0714 60.5946 48.462 60.433C48.8527 60.2713 49.2772 60.2087 49.6978 60.2507C50.1185 60.2926 50.5223 60.4378 50.8733 60.6733L55.708 63.8933L63.8933 55.708L60.6733 50.8733C60.4378 50.5223 60.2926 50.1185 60.2507 49.6978C60.2087 49.2772 60.2713 48.8527 60.433 48.462C60.5946 48.0714 60.8502 47.7267 61.177 47.4586C61.5039 47.1905 61.892 47.0074 62.3067 46.9253L68 45.7867V34.2133L62.3067 33.0747C61.892 32.9926 61.5039 32.8095 61.177 32.5414C60.8502 32.2733 60.5946 31.9286 60.433 31.538C60.2713 31.1473 60.2087 30.7228 60.2507 30.3022C60.2926 29.8815 60.4378 29.4777 60.6733 29.1267Z" fill="#424259"/>
<g clip-path="url(#clip2_249_5096)">
<path d="M40.0001 25.6C47.953 25.6 54.4001 32.0471 54.4001 40C54.4001 47.9529 47.953 54.4 40.0001 54.4C32.0473 54.4 25.6002 47.9529 25.6002 40C25.5775 32.0697 31.9879 25.6227 39.9181 25.6C39.9455 25.6 39.9728 25.6 40.0001 25.6Z" fill="#00F5BC"/>
<path d="M47.9765 36.0315L37.7492 46.2587L32.022 40.5724L34.3538 38.2815L37.7492 41.6361L45.6447 33.7406L47.9765 36.0315Z" fill="#424259"/>
</g>
<path d="M22.75 39.9996C22.7549 44.5725 24.5737 48.9567 27.8073 52.1903C31.0408 55.4239 35.4251 57.2426 39.998 57.2476V54.2889C36.2082 54.2889 32.5737 52.7834 29.8939 50.1037C27.2141 47.4239 25.7087 43.7894 25.7087 39.9996C25.7087 36.2098 27.2141 32.5753 29.8939 29.8955C32.5737 27.2157 36.2082 25.7103 39.998 25.7103V22.7516C35.4251 22.7565 31.0408 24.5753 27.8073 27.8089C24.5737 31.0424 22.7549 35.4266 22.75 39.9996Z" fill="#424259"/>
<path d="M40 25.7108C43.7898 25.7108 47.4243 27.2163 50.1041 29.8961C52.7839 32.5759 54.2893 36.2104 54.2893 40.0002C54.2893 43.7899 52.7839 47.4245 50.1041 50.1043C47.4243 52.784 43.7898 54.2895 40 54.2895V57.2482C44.5794 57.2482 48.9712 55.429 52.2094 52.1909C55.4475 48.9528 57.2667 44.5609 57.2667 39.9815C57.2667 35.4021 55.4475 31.0103 52.2094 27.7721C48.9712 24.534 44.5794 22.7148 40 22.7148V25.6735V25.7108Z" fill="#EEF2F6"/>
</g>
<defs>
<clipPath id="clip0_249_5096">
<rect width="80" height="80" fill="white"/>
</clipPath>
<clipPath id="clip1_249_5096">
<rect width="28.8" height="28.8" fill="white" transform="translate(25.6001 25.6)"/>
</clipPath>
<clipPath id="clip2_249_5096">
<rect width="28.8" height="28.8" fill="white" transform="translate(25.6001 25.6)"/>
</clipPath>
</defs>
</svg>
