<svg width="64" height="64" viewBox="0 0 64 64" fill="none" xmlns="http://www.w3.org/2000/svg">
<g clip-path="url(#clip0_249_2773)">
<path d="M32 64C49.6731 64 64 49.6731 64 32C64 14.3269 49.6731 0 32 0C14.3269 0 0 14.3269 0 32C0 49.6731 14.3269 64 32 64Z" fill="#EEF2F6"/>
<path d="M41.6001 27.04H51.2001V46.88H41.6001V27.04Z" fill="#C3C6CF"/>
<path d="M46.4001 46.4H41.6001V51.2H46.4001C47.6731 51.2 48.894 50.6943 49.7942 49.7941C50.6944 48.8939 51.2001 47.673 51.2001 46.4H46.4001Z" fill="#C3C6CF"/>
<path d="M41.6 46.4V12.8H12.8V46.4C12.8 47.673 13.3058 48.8939 14.2059 49.7941C15.1061 50.6943 16.327 51.2 17.6 51.2H46.4001C45.127 51.2 43.9061 50.6943 43.0059 49.7941C42.1058 48.8939 41.6 47.673 41.6 46.4Z" fill="#FF4171"/>
<path d="M41.6 46.4H12.8C12.8 47.673 13.3058 48.8939 14.2059 49.7941C15.1061 50.6943 16.327 51.2 17.6 51.2H46.4001C45.127 51.2 43.9061 50.6943 43.0059 49.7941C42.1058 48.8939 41.6 47.673 41.6 46.4Z" fill="#424259"/>
<rect x="15.1676" y="24.48" width="10.24" height="10.24" fill="#424259"/>
<rect opacity="0.5" x="26.6875" y="24.48" width="12.8" height="1.92" fill="#424259"/>
<rect opacity="0.5" x="15.1676" y="15.52" width="24.32" height="7.04" fill="#424259"/>
<rect opacity="0.5" x="15.1676" y="36.64" width="24.32" height="1.92" fill="#424259"/>
<rect opacity="0.5" x="15.1676" y="40.48" width="16" height="1.92" fill="#424259"/>
<rect opacity="0.5" x="26.6875" y="27.68" width="12.8" height="1.92" fill="#424259"/>
<rect opacity="0.5" x="26.6875" y="30.88" width="8.32" height="1.92" fill="#424259"/>
</g>
<defs>
<clipPath id="clip0_249_2773">
<rect width="64" height="64" fill="white"/>
</clipPath>
</defs>
</svg>
