<svg width="80" height="80" viewBox="0 0 80 80" fill="none" xmlns="http://www.w3.org/2000/svg">
<g clip-path="url(#clip0_249_2827)">
<path d="M40 80C62.0914 80 80 62.0914 80 40C80 17.9086 62.0914 0 40 0C17.9086 0 0 17.9086 0 40C0 62.0914 17.9086 80 40 80Z" fill="#00F5BC"/>
<path opacity="0.5" d="M28.8 33.6H24V55.1097H28.8V33.6Z" fill="#424259"/>
<path d="M29.6 33.6672H23.2V36.8572H29.6V33.6672Z" fill="#424259"/>
<path opacity="0.5" d="M42.2719 33.6H37.4719V55.1097H42.2719V33.6Z" fill="#424259"/>
<path d="M43.2001 33.6672H36.8V36.8572H43.2001V33.6672Z" fill="#424259"/>
<path opacity="0.5" d="M56.0002 33.6H51.2002V55.1097H56.0002V33.6Z" fill="#424259"/>
<path d="M56.8001 33.6672H50.4001V36.8572H56.8001V33.6672Z" fill="#424259"/>
<path d="M61.7382 63.2002H18.5845V57.8039H61.7382V63.2002Z" fill="#424259"/>
<path opacity="0.5" d="M63.4812 33.468H16.8V28.7513L40.1406 15.2L63.4812 28.7513V33.468Z" fill="#424259"/>
<path d="M35.9158 25.8795C35.9179 27.0053 36.3661 28.0844 37.1622 28.8805C37.9583 29.6766 39.0374 30.1247 40.1632 30.1269V21.632C39.0374 21.6342 37.9583 22.0824 37.1622 22.8785C36.3661 23.6745 35.9179 24.7536 35.9158 25.8795Z" fill="#EEF2F6"/>
<path d="M40.1626 21.632V30.1269C41.2891 30.1269 42.3694 29.6794 43.166 28.8828C43.9625 28.0863 44.41 27.006 44.41 25.8795C44.41 24.753 43.9625 23.6726 43.166 22.8761C42.3694 22.0795 41.2891 21.632 40.1626 21.632Z" fill="#424259"/>
</g>
<defs>
<clipPath id="clip0_249_2827">
<rect width="80" height="80" fill="white"/>
</clipPath>
</defs>
</svg>
