<svg width="80" height="80" viewBox="0 0 80 80" fill="none" xmlns="http://www.w3.org/2000/svg">
<g clip-path="url(#clip0_249_2795)">
<path d="M40 80C62.0914 80 80 62.0914 80 40C80 17.9086 62.0914 0 40 0C17.9086 0 0 17.9086 0 40C0 62.0914 17.9086 80 40 80Z" fill="#00F5BC"/>
<rect x="37.6016" y="19.2002" width="4.8" height="27.4" fill="#219C8A"/>
<rect x="60" y="19.2" width="5.6" height="40" transform="rotate(90 60 19.2)" fill="#424259"/>
<path d="M42.4016 49.6001C48.5872 49.6001 53.6016 54.6145 53.6016 60.8001L26.4016 60.8001C26.4016 54.6145 31.416 49.6001 37.6016 49.6001L42.4016 49.6001Z" fill="#424259"/>
<path d="M51 37L60 23L69 37" stroke="#14BF9E" stroke-width="3.2"/>
<path d="M11 37L20 23L29 37" stroke="#14BF9E" stroke-width="3.2"/>
<path fill-rule="evenodd" clip-rule="evenodd" d="M9.59766 35.374C9.59766 35.374 9.59766 35.3741 9.59766 35.3741C9.59766 41.2139 14.3318 45.948 20.1716 45.948C26.0114 45.948 30.7455 41.2139 30.7455 35.3741C30.7455 35.3741 30.7455 35.374 30.7455 35.374H9.59766Z" fill="#219C8A"/>
<path fill-rule="evenodd" clip-rule="evenodd" d="M49.2539 35.374C49.2539 35.374 49.2539 35.3741 49.2539 35.3741C49.2539 41.2139 53.988 45.948 59.8278 45.948C65.6676 45.948 70.4017 41.2139 70.4017 35.3741C70.4017 35.3741 70.4017 35.374 70.4017 35.374H49.2539Z" fill="#219C8A"/>
<path fill-rule="evenodd" clip-rule="evenodd" d="M53.2487 58C53.4791 58.895 53.6016 59.8332 53.6016 60.8001L26.4016 60.8001C26.4016 59.8332 26.5241 58.895 26.7545 58H53.2487Z" fill="#EEF2F6"/>
</g>
<defs>
<clipPath id="clip0_249_2795">
<rect width="80" height="80" fill="white"/>
</clipPath>
</defs>
</svg>
