<svg width="64" height="64" viewBox="0 0 64 64" fill="none" xmlns="http://www.w3.org/2000/svg">
<g clip-path="url(#clip0_249_2763)">
<path d="M32 64C49.6731 64 64 49.6731 64 32C64 14.3269 49.6731 0 32 0C14.3269 0 0 14.3269 0 32C0 49.6731 14.3269 64 32 64Z" fill="#EEF2F6"/>
<path d="M31.7884 46.8L26.0551 39.92V33.04H37.5217V39.92L31.7884 46.8Z" fill="#989AA8"/>
<path d="M42.1075 19.2801C42.1075 10.5654 21.4675 13.5468 21.4675 19.2801V27.3068C21.4675 33.0401 26.0542 37.6268 31.7875 37.6268C37.5209 37.6268 42.1075 33.0401 42.1075 27.3068V19.2801Z" fill="#DDE0E6"/>
<path d="M31.7866 8.96002C24.7919 8.96002 20.3199 14.5787 20.3199 21.5734V24.2107L22.6133 26.16V20.4267L36.3733 15.84L40.9599 20.4267V26.16L43.2533 24.2107V21.5734C43.2533 16.9867 42.1066 12.4 36.3733 11.2534L35.2266 8.96002H31.7866Z" fill="#424259"/>
<path d="M37.5199 39.92L31.7866 41.0666L26.0533 39.92C26.0533 39.92 18.9609 41.2095 15.4127 47.1729C13.1536 50.9699 17.0217 54.8267 21.4399 54.8267H42.1333C46.5516 54.8267 50.4196 50.9699 48.1605 47.1729C44.6123 41.2095 37.5199 39.92 37.5199 39.92Z" fill="#FF4171"/>
<path d="M30.6409 44.5069L29.4942 54.8269H34.0809L32.9342 44.5069L35.52 40.32L31.7876 41.0669L28.16 40.32L30.6409 44.5069Z" fill="#424259"/>
</g>
<defs>
<clipPath id="clip0_249_2763">
<rect width="64" height="64" fill="white"/>
</clipPath>
</defs>
</svg>
