<svg width="64" height="64" viewBox="0 0 64 64" fill="none" xmlns="http://www.w3.org/2000/svg">
<g clip-path="url(#clip0_249_2783)">
<path d="M32 64C49.6731 64 64 49.6731 64 32C64 14.3269 49.6731 0 32 0C14.3269 0 0 14.3269 0 32C0 49.6731 14.3269 64 32 64Z" fill="#EEF2F6"/>
<path d="M23.3238 32C23.3238 29.6989 24.2379 27.492 25.8651 25.8649C27.4922 24.2378 29.699 23.3237 32.0001 23.3237V9.59998H27.3708L26.4598 14.1546C26.3942 14.4864 26.2477 14.7968 26.0332 15.0583C25.8187 15.3198 25.543 15.5243 25.2305 15.6536C24.918 15.7829 24.5784 15.833 24.2418 15.7995C23.9053 15.7659 23.5823 15.6497 23.3014 15.4613L19.4337 12.8853L12.8854 19.4336L15.4614 23.3013C15.6499 23.5821 15.766 23.9052 15.7996 24.2417C15.8331 24.5782 15.783 24.9178 15.6537 25.2304C15.5244 25.5429 15.32 25.8186 15.0585 26.0331C14.797 26.2475 14.4865 26.3941 14.1548 26.4597L9.6001 27.3706V36.6293L14.1548 37.5402C14.4865 37.6059 14.797 37.7524 15.0585 37.9669C15.32 38.1813 15.5244 38.4571 15.6537 38.7696C15.783 39.0821 15.8331 39.4217 15.7996 39.7582C15.766 40.0948 15.6499 40.4178 15.4614 40.6986L12.8854 44.5664L19.4337 51.1146L23.3014 48.5386C23.5823 48.3502 23.9053 48.2341 24.2418 48.2005C24.5784 48.167 24.918 48.2171 25.2305 48.3463C25.543 48.4756 25.8187 48.6801 26.0332 48.9416C26.2477 49.2031 26.3942 49.5135 26.4598 49.8453L27.3708 54.4H32.0001V40.6762C29.699 40.6762 27.4922 39.7621 25.8651 38.135C24.2379 36.5079 23.3238 34.3011 23.3238 32Z" fill="#FF4171"/>
<path d="M48.5387 23.3013L51.1147 19.4336L44.5664 12.8853L40.6987 15.4613C40.4178 15.6497 40.0948 15.7659 39.7583 15.7995C39.4217 15.833 39.0821 15.7829 38.7696 15.6536C38.4571 15.5243 38.1814 15.3198 37.9669 15.0583C37.7524 14.7968 37.6059 14.4864 37.5403 14.1546L36.6293 9.59998H32V23.3237C34.3011 23.3237 36.5079 24.2378 38.135 25.8649C39.7622 27.492 40.6763 29.6989 40.6763 32C40.6763 34.3011 39.7622 36.5079 38.135 38.135C36.5079 39.7621 34.3011 40.6762 32 40.6762V54.4H36.6293L37.5403 49.8453C37.6059 49.5135 37.7524 49.2031 37.9669 48.9416C38.1814 48.6801 38.4571 48.4756 38.7696 48.3463C39.0821 48.2171 39.4217 48.167 39.7583 48.2005C40.0948 48.2341 40.4178 48.3502 40.6987 48.5386L44.5664 51.1146L51.1147 44.5664L48.5387 40.6986C48.3502 40.4178 48.2341 40.0948 48.2005 39.7582C48.167 39.4217 48.2171 39.0821 48.3464 38.7696C48.4757 38.4571 48.6801 38.1813 48.9416 37.9669C49.2031 37.7524 49.5136 37.6059 49.8453 37.5402L54.4 36.6293V27.3706L49.8453 26.4597C49.5136 26.3941 49.2031 26.2475 48.9416 26.0331C48.6801 25.8186 48.4757 25.5429 48.3464 25.2304C48.2171 24.9178 48.167 24.5782 48.2005 24.2417C48.2341 23.9052 48.3502 23.5821 48.5387 23.3013Z" fill="#424259"/>
<g clip-path="url(#clip1_249_2783)">
<path d="M32 20.48C38.3623 20.48 43.52 25.6377 43.52 32C43.52 38.3623 38.3623 43.52 32 43.52C25.6377 43.52 20.48 38.3623 20.48 32C20.4619 25.6558 25.5902 20.4981 31.9344 20.48C31.9563 20.48 31.9781 20.48 32 20.48Z" fill="#FF4171"/>
<path d="M38.381 28.8252L30.1992 37.007L25.6174 32.4579L27.4829 30.6252L30.1992 33.3089L36.5156 26.9925L38.381 28.8252Z" fill="#424259"/>
</g>
<path d="M18.2002 31.9996C18.2041 35.658 19.6592 39.1654 22.246 41.7522C24.8329 44.3391 28.3402 45.7941 31.9986 45.798V43.4311C28.9668 43.4311 26.0591 42.2267 23.9153 40.0829C21.7715 37.9391 20.5671 35.0314 20.5671 31.9996C20.5671 28.9678 21.7715 26.0602 23.9153 23.9164C26.0591 21.7725 28.9668 20.5682 31.9986 20.5682V18.2012C28.3402 18.2052 24.8329 19.6602 22.246 22.2471C19.6592 24.8339 18.2041 28.3413 18.2002 31.9996Z" fill="#424259"/>
<path d="M32 20.5687C35.0318 20.5687 37.9395 21.7731 40.0833 23.9169C42.2271 26.0607 43.4315 28.9683 43.4315 32.0001C43.4315 35.032 42.2271 37.9396 40.0833 40.0834C37.9395 42.2272 35.0318 43.4316 32 43.4316V45.7985C35.6635 45.7985 39.177 44.3432 41.7675 41.7527C44.358 39.1622 45.8133 35.6487 45.8133 31.9852C45.8133 28.3217 44.358 24.8082 41.7675 22.2177C39.177 19.6272 35.6635 18.1719 32 18.1719V20.5388V20.5687Z" fill="#EEF2F6"/>
<path d="M23.3238 32C23.3238 29.6989 24.2379 27.492 25.8651 25.8649C27.4922 24.2378 29.699 23.3237 32.0001 23.3237V9.59998H27.3708L26.4598 14.1546C26.3942 14.4864 26.2477 14.7968 26.0332 15.0583C25.8187 15.3198 25.543 15.5243 25.2305 15.6536C24.918 15.7829 24.5784 15.833 24.2418 15.7995C23.9053 15.7659 23.5823 15.6497 23.3014 15.4613L19.4337 12.8853L12.8854 19.4336L15.4614 23.3013C15.6499 23.5821 15.766 23.9052 15.7996 24.2417C15.8331 24.5782 15.783 24.9178 15.6537 25.2304C15.5244 25.5429 15.32 25.8186 15.0585 26.0331C14.797 26.2475 14.4865 26.3941 14.1548 26.4597L9.6001 27.3706V36.6293L14.1548 37.5402C14.4865 37.6059 14.797 37.7524 15.0585 37.9669C15.32 38.1813 15.5244 38.4571 15.6537 38.7696C15.783 39.0821 15.8331 39.4217 15.7996 39.7582C15.766 40.0948 15.6499 40.4178 15.4614 40.6986L12.8854 44.5664L19.4337 51.1146L23.3014 48.5386C23.5823 48.3502 23.9053 48.2341 24.2418 48.2005C24.5784 48.167 24.918 48.2171 25.2305 48.3463C25.543 48.4756 25.8187 48.6801 26.0332 48.9416C26.2477 49.2031 26.3942 49.5135 26.4598 49.8453L27.3708 54.4H32.0001V40.6762C29.699 40.6762 27.4922 39.7621 25.8651 38.135C24.2379 36.5079 23.3238 34.3011 23.3238 32Z" fill="#FF4171"/>
<path d="M48.5387 23.3013L51.1147 19.4336L44.5664 12.8853L40.6987 15.4613C40.4178 15.6497 40.0948 15.7659 39.7583 15.7995C39.4217 15.833 39.0821 15.7829 38.7696 15.6536C38.4571 15.5243 38.1814 15.3198 37.9669 15.0583C37.7524 14.7968 37.6059 14.4864 37.5403 14.1546L36.6293 9.59998H32V23.3237C34.3011 23.3237 36.5079 24.2378 38.135 25.8649C39.7622 27.492 40.6763 29.6989 40.6763 32C40.6763 34.3011 39.7622 36.5079 38.135 38.135C36.5079 39.7621 34.3011 40.6762 32 40.6762V54.4H36.6293L37.5403 49.8453C37.6059 49.5135 37.7524 49.2031 37.9669 48.9416C38.1814 48.6801 38.4571 48.4756 38.7696 48.3463C39.0821 48.2171 39.4217 48.167 39.7583 48.2005C40.0948 48.2341 40.4178 48.3502 40.6987 48.5386L44.5664 51.1146L51.1147 44.5664L48.5387 40.6986C48.3502 40.4178 48.2341 40.0948 48.2005 39.7582C48.167 39.4217 48.2171 39.0821 48.3464 38.7696C48.4757 38.4571 48.6801 38.1813 48.9416 37.9669C49.2031 37.7524 49.5136 37.6059 49.8453 37.5402L54.4 36.6293V27.3706L49.8453 26.4597C49.5136 26.3941 49.2031 26.2475 48.9416 26.0331C48.6801 25.8186 48.4757 25.5429 48.3464 25.2304C48.2171 24.9178 48.167 24.5782 48.2005 24.2417C48.2341 23.9052 48.3502 23.5821 48.5387 23.3013Z" fill="#424259"/>
<g clip-path="url(#clip2_249_2783)">
<path d="M32 20.48C38.3623 20.48 43.52 25.6377 43.52 32C43.52 38.3623 38.3623 43.52 32 43.52C25.6377 43.52 20.48 38.3623 20.48 32C20.4619 25.6558 25.5902 20.4981 31.9344 20.48C31.9563 20.48 31.9781 20.48 32 20.48Z" fill="#FF4171"/>
<path d="M38.381 28.8252L30.1992 37.007L25.6174 32.4579L27.4829 30.6252L30.1992 33.3089L36.5156 26.9925L38.381 28.8252Z" fill="#424259"/>
</g>
<path d="M18.2002 31.9996C18.2041 35.658 19.6592 39.1654 22.246 41.7522C24.8329 44.3391 28.3402 45.7941 31.9986 45.798V43.4311C28.9668 43.4311 26.0591 42.2267 23.9153 40.0829C21.7715 37.9391 20.5671 35.0314 20.5671 31.9996C20.5671 28.9678 21.7715 26.0602 23.9153 23.9164C26.0591 21.7725 28.9668 20.5682 31.9986 20.5682V18.2012C28.3402 18.2052 24.8329 19.6602 22.246 22.2471C19.6592 24.8339 18.2041 28.3413 18.2002 31.9996Z" fill="#424259"/>
<path d="M32 20.5687C35.0318 20.5687 37.9395 21.7731 40.0833 23.9169C42.2271 26.0607 43.4315 28.9683 43.4315 32.0001C43.4315 35.032 42.2271 37.9396 40.0833 40.0834C37.9395 42.2272 35.0318 43.4316 32 43.4316V45.7985C35.6635 45.7985 39.177 44.3432 41.7675 41.7527C44.358 39.1622 45.8133 35.6487 45.8133 31.9852C45.8133 28.3217 44.358 24.8082 41.7675 22.2177C39.177 19.6272 35.6635 18.1719 32 18.1719V20.5388V20.5687Z" fill="#EEF2F6"/>
</g>
<defs>
<clipPath id="clip0_249_2783">
<rect width="64" height="64" fill="white"/>
</clipPath>
<clipPath id="clip1_249_2783">
<rect width="23.04" height="23.04" fill="white" transform="translate(20.48 20.48)"/>
</clipPath>
<clipPath id="clip2_249_2783">
<rect width="23.04" height="23.04" fill="white" transform="translate(20.48 20.48)"/>
</clipPath>
</defs>
</svg>
