<svg width="80" height="80" viewBox="0 0 80 80" fill="none" xmlns="http://www.w3.org/2000/svg">
<g clip-path="url(#clip0_249_2811)">
<path d="M40 80C62.0914 80 80 62.0914 80 40C80 17.9086 62.0914 0 40 0C17.9086 0 0 17.9086 0 40C0 62.0914 17.9086 80 40 80Z" fill="#FF4171"/>
<path d="M17.8 19.5438V45.3918C17.8 57.5998 40 67.5438 40 67.5438V19.5438H17.8Z" fill="#424259"/>
<path d="M40 19.5438V67.5438C40 67.5438 62.2 57.5998 62.2 45.3918V19.5438H40Z" fill="#424259" fill-opacity="0.2"/>
<path d="M33.2 54.7838C27.44 50.5918 25.4 47.1038 25.4 45.3918V27.1438H40V24.7438H23V45.3918C23 48.5278 26.2 52.6638 31.8 56.7278C34.236 58.4825 36.7916 60.065 39.448 61.4638L40.008 61.7598V59.0398C37.6486 57.7705 35.3745 56.3488 33.2 54.7838Z" fill="#EEF2F6"/>
<path d="M40.56 61.4638C43.2151 60.0626 45.7705 58.4802 48.208 56.7278C53.808 52.6638 57.008 48.5278 57.008 45.3918V24.7438H40V27.1438H54.6V45.3918C54.6 47.1038 52.56 50.5918 46.8 54.7838C44.6286 56.3492 42.357 57.7709 40 59.0398V61.7598L40.56 61.4638Z" fill="#424259"/>
</g>
<defs>
<clipPath id="clip0_249_2811">
<rect width="80" height="80" fill="white"/>
</clipPath>
</defs>
</svg>
