<svg width="64" height="64" viewBox="0 0 64 64" fill="none" xmlns="http://www.w3.org/2000/svg">
<g clip-path="url(#clip0_249_2768)">
<path d="M32 64C49.6731 64 64 49.6731 64 32C64 14.3269 49.6731 0 32 0C14.3269 0 0 14.3269 0 32C0 49.6731 14.3269 64 32 64Z" fill="#EEF2F6"/>
<rect opacity="0.5" x="10.24" y="10.24" width="43.52" height="43.52" rx="21.76" fill="#424259"/>
<path fill-rule="evenodd" clip-rule="evenodd" d="M32 10.24C19.9823 10.24 10.24 19.9823 10.24 32C10.24 44.0177 19.9823 53.76 32 53.76V10.24Z" fill="#00F5BC"/>
<path fill-rule="evenodd" clip-rule="evenodd" d="M32 15.36C22.81 15.36 15.36 22.81 15.36 32C15.36 41.19 22.81 48.64 32 48.64V46.72C23.8704 46.72 17.28 40.1296 17.28 32C17.28 23.8704 23.8704 17.28 32 17.28V15.36Z" fill="#424259"/>
<path fill-rule="evenodd" clip-rule="evenodd" d="M32 20.48C25.6377 20.48 20.48 25.6377 20.48 32C20.48 38.3623 25.6377 43.52 32 43.52V41.6C26.698 41.6 22.4 37.3019 22.4 32C22.4 26.698 26.698 22.4 32 22.4V20.48Z" fill="#424259"/>
<path fill-rule="evenodd" clip-rule="evenodd" d="M32 25.6C28.4654 25.6 25.6 28.4654 25.6 32C25.6 35.5346 28.4654 38.4 32 38.4V36.48C29.5257 36.48 27.52 34.4742 27.52 32C27.52 29.5258 29.5257 27.52 32 27.52V25.6Z" fill="#424259"/>
<path fill-rule="evenodd" clip-rule="evenodd" d="M32 48.64C41.19 48.64 48.64 41.19 48.64 32C48.64 22.81 41.19 15.36 32 15.36L32 17.28C40.1296 17.28 46.72 23.8704 46.72 32C46.72 40.1296 40.1296 46.72 32 46.72L32 48.64Z" fill="#00F5BC"/>
<path fill-rule="evenodd" clip-rule="evenodd" d="M32 43.52C38.3623 43.52 43.52 38.3623 43.52 32C43.52 25.6377 38.3623 20.48 32 20.48L32 22.4C37.302 22.4 41.6 26.6981 41.6 32C41.6 37.3019 37.302 41.6 32 41.6L32 43.52Z" fill="#00F5BC"/>
<path fill-rule="evenodd" clip-rule="evenodd" d="M32 38.4C35.5346 38.4 38.4 35.5346 38.4 32C38.4 28.4654 35.5346 25.6 32 25.6L32 27.52C34.4743 27.52 36.48 29.5258 36.48 32C36.48 34.4742 34.4743 36.48 32 36.48L32 38.4Z" fill="#00F5BC"/>
<path d="M48.64 15.36H53.44L48.32 20.48H43.52V16L48.64 10.88V15.36Z" fill="#00F5BC"/>
<path d="M46.08 17.92H50.88L48.32 20.48H43.52V16L46.08 13.44V17.92Z" fill="#424259"/>
<path d="M33.6 32.32L46.72 18.88L45.12 17.28L32 30.72V32.32H33.6Z" fill="#424259"/>
</g>
<defs>
<clipPath id="clip0_249_2768">
<rect width="64" height="64" fill="white"/>
</clipPath>
</defs>
</svg>
