<svg width="100" height="100" viewBox="0 0 100 100" fill="none" xmlns="http://www.w3.org/2000/svg">
<path d="M84.1282 54.3046L85.6729 79.792L68.4606 77.5227L84.1282 54.3046Z" fill="#3255FF"/>
<path d="M85.6729 79.792L98.3003 77.2481L84.1284 54.3046L85.6729 79.792Z" fill="#001996"/>
<path d="M17.846 55.913L19.3906 81.4004L2.17839 79.1311L17.846 55.913Z" fill="#3255FF"/>
<path d="M19.3907 81.4004L32.0181 78.8565L17.8462 55.913L19.3907 81.4004Z" fill="#8B9FFF"/>
<path d="M52.7685 37.8223L55.6562 85.4727L25.8011 82.5817L52.7685 37.8223Z" fill="#EB6E00"/>
<path d="M55.6569 85.4727L79.2646 80.7167L52.7695 37.8223L55.6569 85.4727Z" fill="#FFAC9A"/>
<path d="M69.4355 30.5705C69.4355 39.7222 62.0166 47.1411 52.865 47.1411C43.7133 47.1411 36.2944 39.7222 36.2944 30.5705C36.2944 21.4189 43.7133 14 52.865 14C62.0166 14 69.4355 21.4189 69.4355 30.5705Z" fill="url(#paint0_radial_387_6778)"/>
<path d="M92.829 52.0148C92.829 56.8598 88.9013 60.7875 84.0563 60.7875C79.2113 60.7875 75.2837 56.8598 75.2837 52.0148C75.2837 47.1698 79.2113 43.2422 84.0563 43.2422C88.9013 43.2422 92.829 47.1698 92.829 52.0148Z" fill="url(#paint1_radial_387_6778)"/>
<circle cx="17.7741" cy="52.0148" r="8.77264" fill="url(#paint2_radial_387_6778)"/>
<defs>
<radialGradient id="paint0_radial_387_6778" cx="0" cy="0" r="1" gradientUnits="userSpaceOnUse" gradientTransform="translate(48.262 27.8088) rotate(52.5238) scale(17.4 14.0974)">
<stop stop-color="#EB6E00"/>
<stop offset="1" stop-color="#FFAB99"/>
</radialGradient>
<radialGradient id="paint1_radial_387_6778" cx="0" cy="0" r="1" gradientUnits="userSpaceOnUse" gradientTransform="translate(82.1136 50.2087) rotate(57.8043) scale(8.23238)">
<stop stop-color="#1637D8"/>
<stop offset="0.817708" stop-color="#617CFF"/>
</radialGradient>
<radialGradient id="paint2_radial_387_6778" cx="0" cy="0" r="1" gradientUnits="userSpaceOnUse" gradientTransform="translate(20.4546 49.0906) rotate(136.79) scale(11.0333 8.93908)">
<stop stop-color="#4666FF"/>
<stop offset="1" stop-color="#99AAFF"/>
</radialGradient>
</defs>
</svg>
