<svg width="64" height="64" viewBox="0 0 64 64" fill="none" xmlns="http://www.w3.org/2000/svg">
<g clip-path="url(#clip0_296_6110)">
<path d="M32 64C49.6731 64 64 49.6731 64 32C64 14.3269 49.6731 0 32 0C14.3269 0 0 14.3269 0 32C0 49.6731 14.3269 64 32 64Z" fill="#EEF2F6"/>
<rect x="30.0811" y="15.3602" width="3.84" height="21.92" fill="#DDE0E6"/>
<rect x="48" y="15.36" width="4.48" height="32" transform="rotate(90 48 15.36)" fill="#424259"/>
<path d="M33.9209 39.6801C38.8693 39.6801 42.8809 43.6916 42.8809 48.6401L21.1209 48.6401C21.1209 43.6916 25.1324 39.6801 30.0809 39.6801L33.9209 39.6801Z" fill="#424259"/>
<path opacity="0.5" d="M40.7998 29.6L47.9998 18.4L55.1998 29.6" stroke="#424259" stroke-width="3.2"/>
<path opacity="0.5" d="M8.7998 29.6L15.9998 18.4L23.1998 29.6" stroke="#424259" stroke-width="3.2"/>
<path fill-rule="evenodd" clip-rule="evenodd" d="M7.67773 28.2991C7.67773 28.2991 7.67773 28.2992 7.67773 28.2992C7.67773 32.971 11.465 36.7583 16.1369 36.7583C20.8087 36.7583 24.596 32.971 24.596 28.2992C24.596 28.2992 24.596 28.2991 24.596 28.2991H7.67773Z" fill="#FF4171"/>
<path fill-rule="evenodd" clip-rule="evenodd" d="M39.4033 28.2991C39.4033 28.2991 39.4033 28.2992 39.4033 28.2992C39.4033 32.971 43.1906 36.7583 47.8624 36.7583C52.5343 36.7583 56.3216 32.971 56.3216 28.2992C56.3216 28.2992 56.3216 28.2991 56.3216 28.2991H39.4033Z" fill="#FF4171"/>
<path fill-rule="evenodd" clip-rule="evenodd" d="M42.5988 46.4C42.7831 47.116 42.8811 47.8666 42.8811 48.6401L21.1211 48.6401C21.1211 47.8666 21.2191 47.116 21.4034 46.4H42.5988Z" fill="#989AA8"/>
</g>
<defs>
<clipPath id="clip0_296_6110">
<rect width="64" height="64" fill="white"/>
</clipPath>
</defs>
</svg>
