<svg width="64" height="64" viewBox="0 0 64 64" fill="none" xmlns="http://www.w3.org/2000/svg">
<g clip-path="url(#clip0_296_6115)">
<path d="M32 64C49.6731 64 64 49.6731 64 32C64 14.3269 49.6731 0 32 0C14.3269 0 0 14.3269 0 32C0 49.6731 14.3269 64 32 64Z" fill="#EEF2F6"/>
<path d="M31.788 46.8L26.0547 39.92V33.04H37.5214V39.92L31.788 46.8Z" fill="#989AA8"/>
<path d="M42.1078 19.2801C42.1078 10.5655 21.4678 13.5468 21.4678 19.2801V27.3068C21.4678 33.0401 26.0544 37.6268 31.7878 37.6268C37.5211 37.6268 42.1078 33.0401 42.1078 27.3068V19.2801Z" fill="#DDE0E6"/>
<path d="M31.787 8.96001C24.7923 8.96001 20.3203 14.5787 20.3203 21.5733V24.2107L22.6136 26.16V20.4267L36.3736 15.84L40.9603 20.4267V26.16L43.2536 24.2107V21.5733C43.2536 16.9867 42.107 12.4 36.3736 11.2533L35.227 8.96001H31.787Z" fill="#424259"/>
<path d="M37.5204 39.92L31.7871 41.0667L26.0538 39.92C26.0538 39.92 18.9614 41.2095 15.4132 47.1729C13.1541 50.97 17.0222 54.8267 21.4404 54.8267H42.1338C46.552 54.8267 50.4201 50.97 48.161 47.1729C44.6128 41.2095 37.5204 39.92 37.5204 39.92Z" fill="#00F5BC"/>
<path d="M30.641 44.5069L29.4943 54.8269H34.081L32.9343 44.5069L35.5202 40.32L31.7877 41.0669L28.1602 40.32L30.641 44.5069Z" fill="#424259"/>
</g>
<defs>
<clipPath id="clip0_296_6115">
<rect width="64" height="64" fill="white"/>
</clipPath>
</defs>
</svg>
