<svg width="80" height="80" viewBox="0 0 80 80" fill="none" xmlns="http://www.w3.org/2000/svg">
<g clip-path="url(#clip0_296_6083)">
<path d="M40 80C62.0914 80 80 62.0914 80 40C80 17.9086 62.0914 0 40 0C17.9086 0 0 17.9086 0 40C0 62.0914 17.9086 80 40 80Z" fill="#EEF2F6"/>
<g clip-path="url(#clip1_296_6083)">
<path opacity="0.5" d="M57.1614 57.16L59.8014 59.808C54.8585 64.7541 48.2413 67.6679 41.2554 67.9745C34.2696 68.281 27.4226 65.9581 22.0654 61.464V64.304H18.3374V55.296H27.3454V59.024H24.9454C29.6054 62.717 35.4605 64.5677 41.3965 64.224C47.3324 63.8803 52.9348 61.3661 57.1374 57.16H57.1614Z" fill="#424259"/>
<path d="M40.0002 15.7358C45.4597 15.7297 50.7595 17.5771 55.0322 20.9758H52.6322V24.7038H61.6642V15.6958H57.9362V18.5358C52.579 14.0417 45.732 11.7187 38.7462 12.0253C31.7603 12.3319 25.1431 15.2457 20.2002 20.1918L22.8402 22.8398C25.0904 20.5822 27.7652 18.7922 30.7103 17.573C33.6554 16.3538 36.8127 15.7293 40.0002 15.7358Z" fill="#424259"/>
<path opacity="0.5" d="M68.0017 37.5039L64.2257 37.5999V39.9999C64.2257 40.3999 64.2257 40.7999 64.2257 41.1839L64.1377 43.0479L67.8657 43.2239L68.0017 41.3599C68.0017 40.9119 68.0017 40.4559 68.0017 39.9839V37.5039Z" fill="#424259"/>
<path opacity="0.5" d="M62.9281 48.0001C62.7441 48.5521 62.5361 49.0881 62.3041 49.6001L61.6001 51.2961L64.9921 52.8001L65.7361 51.0881C65.9974 50.4747 66.2374 49.8507 66.4561 49.2161L67.0641 47.4481L63.5361 46.2321L62.9281 48.0001Z" fill="#424259"/>
<path opacity="0.5" d="M63.1271 32.64L63.6951 34.4L67.2551 33.256L66.6791 31.48C66.4791 30.84 66.2471 30.208 65.9991 29.592L65.2951 27.864L61.8311 29.272L62.5351 31C62.7511 31.544 62.9511 32.088 63.1271 32.64Z" fill="#424259"/>
<path d="M15.736 39.9999C15.736 39.5999 15.736 39.1999 15.736 38.8159L15.824 36.9519L12.12 36.7999L12 38.6399C12 39.0879 12 39.5439 12 40.0159L12.04 42.4959L15.776 42.3999L15.736 39.9999Z" fill="#424259"/>
<path d="M16.8717 47.36L16.3037 45.6L12.7437 46.728L13.3197 48.504C13.5197 49.144 13.7517 49.776 13.9997 50.392L14.7037 52.12L18.1677 50.712L17.4637 48.984C17.2477 48.456 17.0477 47.912 16.8717 47.36Z" fill="#424259"/>
<path d="M17.0735 32C17.2575 31.448 17.4655 30.912 17.6975 30.4L18.4015 28.704L15.0095 27.2L14.2655 28.912C13.9988 29.5306 13.7588 30.1546 13.5455 30.784L12.9375 32.552L16.4655 33.768L17.0735 32Z" fill="#424259"/>
<path d="M40.0014 58.6639C50.3092 58.6639 58.6654 50.3078 58.6654 39.9999C58.6654 29.6921 50.3092 21.3359 40.0014 21.3359C29.6936 21.3359 21.3374 29.6921 21.3374 39.9999C21.3374 50.3078 29.6936 58.6639 40.0014 58.6639Z" fill="#FF4171"/>
<path d="M47.4656 36.2639C47.4656 34.7787 46.8756 33.3543 45.8254 32.3041C44.7752 31.2539 43.3508 30.6639 41.8656 30.6639V28.7999H38.1376V30.6639H32.5376V34.3999H34.4016V45.5999H32.5376V49.3359H38.1376V51.1999H41.8656V49.3359C42.9446 49.3306 43.9991 49.0137 44.9022 48.4233C45.8054 47.8329 46.5187 46.9941 46.9565 46.0079C47.3942 45.0217 47.5378 43.93 47.3698 42.8642C47.2018 41.7983 46.7295 40.8037 46.0096 39.9999C46.9394 38.977 47.458 37.6463 47.4656 36.2639ZM41.8656 45.5999H38.1376V41.8639H41.8656C42.1212 41.8472 42.3775 41.8831 42.6187 41.9694C42.8598 42.0557 43.0807 42.1906 43.2676 42.3657C43.4546 42.5408 43.6036 42.7524 43.7055 42.9874C43.8073 43.2224 43.8599 43.4758 43.8599 43.7319C43.8599 43.9881 43.8073 44.2415 43.7055 44.4765C43.6036 44.7115 43.4546 44.9231 43.2676 45.0982C43.0807 45.2733 42.8598 45.4082 42.6187 45.4945C42.3775 45.5808 42.1212 45.6167 41.8656 45.5999ZM41.8656 38.1359H38.1376V34.3999H41.8656C42.1212 34.3832 42.3775 34.4191 42.6187 34.5054C42.8598 34.5917 43.0807 34.7266 43.2676 34.9017C43.4546 35.0768 43.6036 35.2884 43.7055 35.5234C43.8073 35.7584 43.8599 36.0118 43.8599 36.2679C43.8599 36.5241 43.8073 36.7775 43.7055 37.0125C43.6036 37.2475 43.4546 37.4591 43.2676 37.6342C43.0807 37.8093 42.8598 37.9442 42.6187 38.0305C42.3775 38.1168 42.1212 38.1527 41.8656 38.1359Z" fill="#424259"/>
</g>
</g>
<defs>
<clipPath id="clip0_296_6083">
<rect width="80" height="80" fill="white"/>
</clipPath>
<clipPath id="clip1_296_6083">
<rect width="56" height="56" fill="white" transform="translate(12 12)"/>
</clipPath>
</defs>
</svg>
