<svg width="64" height="64" viewBox="0 0 64 64" fill="none" xmlns="http://www.w3.org/2000/svg">
<g clip-path="url(#clip0_296_6105)">
<path d="M32 64C49.6731 64 64 49.6731 64 32C64 14.3269 49.6731 0 32 0C14.3269 0 0 14.3269 0 32C0 49.6731 14.3269 64 32 64Z" fill="#EEF2F6"/>
<rect opacity="0.2" x="16.6396" y="16.64" width="30.72" height="30.72" fill="#989AA8"/>
<rect width="2.56" height="30.72" transform="matrix(-1 0 0 1 17.9199 16.64)" fill="#424259"/>
<path d="M14.0801 16.64L16.6401 14.08L19.2001 16.64H14.0801Z" fill="#424259"/>
<path d="M47.3599 44.8L49.9199 47.36L47.3599 49.92L47.3599 44.8Z" fill="#424259"/>
<rect width="2.56" height="32" transform="matrix(1.19249e-08 -1 -1 -1.19249e-08 47.3604 48.64)" fill="#424259"/>
<path d="M17.9199 37.68V46.08H47.3599V23.68L33.5599 37.9911L25.5866 29.9022L17.9199 37.68Z" fill="url(#paint0_linear_296_6105)"/>
<path fill-rule="evenodd" clip-rule="evenodd" d="M17.9199 38.5729V36.838L25.5844 29.1736L33.5533 37.1425L47.3493 23.04L47.3614 23.0518V24.7818L33.5629 38.8869L25.5844 30.9084L17.9199 38.5729Z" fill="#00F5BC"/>
</g>
<defs>
<linearGradient id="paint0_linear_296_6105" x1="32.6399" y1="23.68" x2="32.6399" y2="46.08" gradientUnits="userSpaceOnUse">
<stop stop-color="#00F5BC"/>
<stop offset="1" stop-color="#00F5BC" stop-opacity="0"/>
</linearGradient>
<clipPath id="clip0_296_6105">
<rect width="64" height="64" fill="white"/>
</clipPath>
</defs>
</svg>
