<svg width="64" height="64" viewBox="0 0 64 64" fill="none" xmlns="http://www.w3.org/2000/svg">
<g clip-path="url(#clip0_296_6100)">
<path d="M32 64C49.6731 64 64 49.6731 64 32C64 14.3269 49.6731 0 32 0C14.3269 0 0 14.3269 0 32C0 49.6731 14.3269 64 32 64Z" fill="#EEF2F6"/>
<path d="M21.171 51.2H12.7998L42.8286 12.8H51.1998L21.171 51.2Z" fill="#424259"/>
<path d="M20.6078 28.416C24.92 28.416 28.4158 24.9202 28.4158 20.608C28.4158 16.2958 24.92 12.8 20.6078 12.8C16.2956 12.8 12.7998 16.2958 12.7998 20.608C12.7998 24.9202 16.2956 28.416 20.6078 28.416Z" fill="#FF4171"/>
<path d="M20.6074 15.4881C21.9653 15.4881 23.2676 16.0276 24.2278 16.9877C25.188 17.9479 25.7274 19.2502 25.7274 20.6081C25.7274 21.966 25.188 23.2683 24.2278 24.2285C23.2676 25.1887 21.9653 25.7281 20.6074 25.7281" stroke="white" stroke-width="2" stroke-miterlimit="10"/>
<path d="M20.6073 25.7281C19.2494 25.7281 17.9471 25.1887 16.9869 24.2285C16.0267 23.2683 15.4873 21.966 15.4873 20.6081C15.4873 19.2502 16.0267 17.9479 16.9869 16.9877C17.9471 16.0276 19.2494 15.4881 20.6073 15.4881" stroke="#424259" stroke-width="2" stroke-miterlimit="10"/>
<path d="M43.393 51.1998C47.7052 51.1998 51.201 47.704 51.201 43.3918C51.201 39.0795 47.7052 35.5838 43.393 35.5838C39.0807 35.5838 35.585 39.0795 35.585 43.3918C35.585 47.704 39.0807 51.1998 43.393 51.1998Z" fill="#FF4171"/>
<path d="M43.3925 48.5119C42.0346 48.5119 40.7323 47.9725 39.7721 47.0123C38.8119 46.0521 38.2725 44.7498 38.2725 43.3919C38.2725 42.034 38.8119 40.7317 39.7721 39.7715C40.7323 38.8113 42.0346 38.2719 43.3925 38.2719" stroke="white" stroke-width="2" stroke-miterlimit="10"/>
<path d="M43.3926 38.2719C44.7505 38.2719 46.0528 38.8113 47.013 39.7715C47.9731 40.7317 48.5126 42.034 48.5126 43.3919C48.5126 44.7498 47.9731 46.0521 47.013 47.0123C46.0528 47.9725 44.7505 48.5119 43.3926 48.5119" stroke="#424259" stroke-width="2" stroke-miterlimit="10"/>
</g>
<defs>
<clipPath id="clip0_296_6100">
<rect width="64" height="64" fill="white"/>
</clipPath>
</defs>
</svg>
