<svg width="64" height="64" viewBox="0 0 64 64" fill="none" xmlns="http://www.w3.org/2000/svg">
<g clip-path="url(#clip0_296_6095)">
<path d="M32 64C49.6731 64 64 49.6731 64 32C64 14.3269 49.6731 0 32 0C14.3269 0 0 14.3269 0 32C0 49.6731 14.3269 64 32 64Z" fill="#EEF2F6"/>
<path d="M32.0009 46.9329C34.9544 46.9329 37.8417 46.0571 40.2975 44.4162C42.7533 42.7753 44.6673 40.443 45.7976 37.7143C46.9279 34.9856 47.2236 31.983 46.6474 29.0862C46.0712 26.1895 44.6489 23.5286 42.5604 21.4401C40.472 19.3517 37.8111 17.9294 34.9143 17.3532C32.0174 16.777 29.0148 17.0727 26.2861 18.203C23.5573 19.3333 21.225 21.2473 19.5841 23.7031C17.9432 26.1589 17.0674 29.0461 17.0674 31.9996C17.0674 35.9602 18.6407 39.7585 21.4413 42.5591C24.2419 45.3596 28.0403 46.9329 32.0009 46.9329Z" fill="#00F5BC"/>
<path d="M54.4006 32C54.4007 26.0734 52.0519 20.3882 47.8688 16.1898C43.6857 11.9913 38.0092 9.62174 32.0825 9.60001V14.08C36.8352 14.08 41.3933 15.968 44.754 19.3287C48.1147 22.6893 50.0027 27.2473 50.0027 32C50.0027 36.7527 48.1147 41.3107 44.754 44.6714C41.3933 48.032 36.8352 49.92 32.0825 49.92V54.4C38.0092 54.3783 43.6857 52.0087 47.8688 47.8102C52.0519 43.6118 54.4007 37.9267 54.4006 32Z" fill="#424259"/>
<path opacity="0.5" d="M32.0003 49.92C27.2476 49.92 22.6895 48.032 19.3288 44.6714C15.9682 41.3107 14.0801 36.7527 14.0801 32C14.0801 27.2473 15.9682 22.6893 19.3288 19.3287C22.6895 15.968 27.2476 14.08 32.0003 14.08H32.0825V9.60001H32.0003C26.0594 9.60001 20.3618 11.96 16.161 16.1608C11.9601 20.3616 9.6001 26.0592 9.6001 32C9.6001 37.9409 11.9601 43.6384 16.161 47.8392C20.3618 52.04 26.0594 54.4 32.0003 54.4H32.0825V49.92H32.0003Z" fill="#424259"/>
<rect x="30.7202" y="23.68" width="2.56" height="8.32" fill="#424259"/>
<rect x="30.7202" y="32" width="2.56" height="11.1005" transform="rotate(-30 30.7202 32)" fill="#424259"/>
</g>
<defs>
<clipPath id="clip0_296_6095">
<rect width="64" height="64" fill="white"/>
</clipPath>
</defs>
</svg>
