<svg width="80" height="80" viewBox="0 0 80 80" fill="none" xmlns="http://www.w3.org/2000/svg">
<g clip-path="url(#clip0_296_28398)">
<path d="M40 80C62.0914 80 80 62.0914 80 40C80 17.9086 62.0914 0 40 0C17.9086 0 0 17.9086 0 40C0 62.0914 17.9086 80 40 80Z" fill="#00F5BC"/>
<g clip-path="url(#clip1_296_28398)">
<path d="M40.0006 56.6629C43.8534 56.65 47.5824 55.3015 50.5523 52.8472C53.5222 50.3929 55.5492 46.9846 56.2878 43.2033C57.0263 39.422 56.4308 35.5015 54.6027 32.1101C52.7745 28.7186 49.8269 26.066 46.2622 24.6043C42.6974 23.1426 38.7361 22.9623 35.0533 24.0941C31.3705 25.2258 28.1941 27.5997 26.0654 30.811C23.9367 34.0223 22.9874 37.8724 23.3794 41.7052C23.7713 45.538 25.4802 49.1163 28.2149 51.8303C31.3532 54.9312 35.5887 56.668 40.0006 56.6629Z" fill="#EEF2F6"/>
<path d="M65.0006 40C65.0006 33.385 62.3789 27.0397 57.7098 22.3538C53.0407 17.668 46.7048 15.0236 40.0898 15V20C45.3942 20 50.4813 22.1071 54.232 25.8579C57.9827 29.6086 60.0898 34.6957 60.0898 40C60.0898 45.3043 57.9827 50.3914 54.232 54.1421C50.4813 57.8929 45.3942 60 40.0898 60V65C46.7048 64.9764 53.0407 62.332 57.7098 57.6462C62.3789 52.9603 65.0006 46.615 65.0006 40Z" fill="#424259"/>
<path opacity="0.5" d="M25.8589 54.1406C22.6967 51 20.6782 46.8902 20.1259 42.4677C19.5736 38.0452 20.5193 33.5652 22.8121 29.7433C21.9352 29.6322 21.1035 29.2906 20.4016 28.7535C19.6997 28.2163 19.1528 27.5026 18.8165 26.6852C16.4314 30.4688 15.1055 34.8231 14.9771 39.2938C14.8487 43.7645 15.9225 48.1877 18.0866 52.1019C20.2506 56.0161 23.4255 59.2777 27.2799 61.5464C31.1343 63.8152 35.527 65.0078 39.9996 65H40.0889V60H39.9996C34.6956 59.9992 29.6091 57.8915 25.8589 54.1406Z" fill="white"/>
<path opacity="0.5" d="M39.9994 15C35.0773 14.9963 30.2634 16.4443 26.1602 19.163C26.9479 19.5498 27.6268 20.1269 28.1354 20.842C28.644 21.5572 28.9663 22.3879 29.0731 23.2589C32.321 21.1337 36.118 20.0012 39.9994 20H40.0887V15H39.9994Z" fill="white"/>
<path d="M31.4621 26.4286L33.3259 26.0603V22.2656L31.4621 21.8973C31.3218 21.8733 31.19 21.8138 31.0791 21.7247C30.9682 21.6355 30.8818 21.5195 30.8282 21.3877C30.7746 21.2559 30.7555 21.1126 30.7726 20.9713C30.7898 20.83 30.8427 20.6955 30.9263 20.5804L31.9754 18.9955L29.2969 16.317L27.7232 17.433C27.6084 17.5115 27.4758 17.5601 27.3375 17.5744C27.1992 17.5888 27.0595 17.5685 26.931 17.5153C26.8025 17.4621 26.6893 17.3778 26.6016 17.2699C26.5139 17.162 26.4544 17.034 26.4286 16.8973L26.0603 15H22.2656L21.8973 16.8638C21.8733 17.0041 21.8138 17.1359 21.7247 17.2468C21.6355 17.3577 21.5195 17.4441 21.3877 17.4977C21.2559 17.5513 21.1126 17.5704 20.9713 17.5533C20.83 17.5361 20.6955 17.4832 20.5804 17.3996L19.0179 16.3393L16.3393 19.0179L17.3996 20.5804C17.478 20.6952 17.5266 20.8277 17.5409 20.966C17.5553 21.1044 17.535 21.2441 17.4818 21.3726C17.4287 21.501 17.3443 21.6143 17.2364 21.702C17.1285 21.7897 17.0005 21.8492 16.8638 21.875L15 22.2656V26.0603L16.8638 26.4286C17.0005 26.4544 17.1285 26.5139 17.2364 26.6016C17.3443 26.6893 17.4287 26.8025 17.4818 26.931C17.535 27.0595 17.5553 27.1992 17.5409 27.3375C17.5266 27.4758 17.478 27.6084 17.3996 27.7232L16.3393 29.2969L19.0179 31.9754L20.5804 30.9263C20.6952 30.8479 20.8277 30.7993 20.966 30.7849C21.1044 30.7706 21.2441 30.7909 21.3726 30.8441C21.501 30.8972 21.6143 30.9816 21.702 31.0895C21.7897 31.1974 21.8492 31.3254 21.875 31.4621L22.2433 33.3259H26.0379L26.4063 31.4621C26.4321 31.3254 26.4915 31.1974 26.5793 31.0895C26.667 30.9816 26.7802 30.8972 26.9087 30.8441C27.0372 30.7909 27.1769 30.7706 27.3152 30.7849C27.4535 30.7993 27.5861 30.8479 27.7009 30.9263L29.2746 31.9754L31.9531 29.2969L30.904 27.7232C30.8254 27.6069 30.7773 27.4726 30.7642 27.3328C30.7511 27.193 30.7733 27.0522 30.8289 26.9232C30.8845 26.7943 30.9716 26.6814 31.0822 26.595C31.1929 26.5085 31.3235 26.4513 31.4621 26.4286ZM24.1629 27.7121C23.461 27.7121 22.7748 27.5039 22.1912 27.1139C21.6075 26.7239 21.1526 26.1696 20.884 25.5211C20.6154 24.8726 20.5451 24.159 20.682 23.4706C20.819 22.7821 21.157 22.1497 21.6533 21.6533C22.1497 21.157 22.7821 20.819 23.4706 20.682C24.159 20.5451 24.8726 20.6154 25.5211 20.884C26.1696 21.1526 26.7239 21.6075 27.1139 22.1912C27.5039 22.7748 27.7121 23.461 27.7121 24.1629C27.7121 25.1042 27.3381 26.007 26.6725 26.6725C26.007 27.3381 25.1042 27.7121 24.1629 27.7121Z" fill="#424259"/>
<path d="M29.3982 42.3214L30.3357 41.5625L31.262 40.7701C31.7084 40.3794 31.9986 40.1004 32.1549 39.9553C32.2997 39.8094 32.4236 39.6441 32.5232 39.4643C32.6215 39.2909 32.6716 39.0944 32.6682 38.8951C32.6733 38.6871 32.6018 38.4846 32.4674 38.3259C32.3785 38.246 32.2742 38.185 32.161 38.1466C32.0478 38.1083 31.928 38.0933 31.8089 38.1027C31.5523 38.078 31.2961 38.154 31.0946 38.3147C30.9521 38.4523 30.8581 38.6325 30.8267 38.8281H29.3535C29.3601 38.4961 29.4361 38.1691 29.5767 37.8683C29.705 37.6028 29.892 37.37 30.1236 37.1875C30.3572 36.9978 30.6267 36.8574 30.916 36.7745C31.2318 36.6848 31.5587 36.6397 31.887 36.6406C32.1971 36.6389 32.5056 36.6841 32.8022 36.7745C33.0796 36.8562 33.3377 36.9928 33.5611 37.1763C33.7798 37.3587 33.9552 37.5874 34.0745 37.846C34.2047 38.1411 34.2695 38.4609 34.2642 38.7835C34.2767 39.1701 34.1923 39.5538 34.0187 39.8995C33.8535 40.2313 33.639 40.536 33.3825 40.8036C33.126 41.0728 32.8499 41.3227 32.5566 41.5513L31.6973 42.2321H34.1861V43.6719H29.3982V42.3214Z" fill="#424259"/>
<path d="M39.6655 40.971H40.4132V42.3884H39.6655V43.6273H38.0806V42.3884H34.7324V41.2165L37.8239 36.7523H39.6655V40.971ZM36.507 40.971H38.0806V38.5603L36.507 40.971Z" fill="#424259"/>
<path d="M40.8926 45.2344C41.406 43.683 41.9082 42.1428 42.4216 40.6138C42.935 39.0848 43.4372 37.5558 43.9506 36.0045H45.4573L42.3993 45.2344H40.8926Z" fill="#424259"/>
<path d="M46.2497 43.6272L48.7832 38.1696H45.6582V36.7188H50.6024V37.8348L48.0243 43.5826L46.2497 43.6272Z" fill="#424259"/>
<path d="M40.0999 27.712C40.7224 27.712 41.2271 27.2074 41.2271 26.5848C41.2271 25.9623 40.7224 25.4576 40.0999 25.4576C39.4773 25.4576 38.9727 25.9623 38.9727 26.5848C38.9727 27.2074 39.4773 27.712 40.0999 27.712Z" fill="#00F5BC"/>
<path d="M40.0999 54.5536C40.7224 54.5536 41.2271 54.0489 41.2271 53.4264C41.2271 52.8038 40.7224 52.2991 40.0999 52.2991C39.4773 52.2991 38.9727 52.8038 38.9727 53.4264C38.9727 54.0489 39.4773 54.5536 40.0999 54.5536Z" fill="#00F5BC"/>
<path d="M53.5159 41.1384C54.1385 41.1384 54.6431 40.6337 54.6431 40.0111C54.6431 39.3886 54.1385 38.8839 53.5159 38.8839C52.8933 38.8839 52.3887 39.3886 52.3887 40.0111C52.3887 40.6337 52.8933 41.1384 53.5159 41.1384Z" fill="#00F5BC"/>
<path d="M26.6741 41.1384C27.2967 41.1384 27.8013 40.6337 27.8013 40.0111C27.8013 39.3886 27.2967 38.8839 26.6741 38.8839C26.0516 38.8839 25.5469 39.3886 25.5469 40.0111C25.5469 40.6337 26.0516 41.1384 26.6741 41.1384Z" fill="#00F5BC"/>
</g>
</g>
<defs>
<clipPath id="clip0_296_28398">
<rect width="80" height="80" fill="white"/>
</clipPath>
<clipPath id="clip1_296_28398">
<rect width="50" height="50" fill="white" transform="translate(15 15)"/>
</clipPath>
</defs>
</svg>
