<svg width="80" height="80" viewBox="0 0 80 80" fill="none" xmlns="http://www.w3.org/2000/svg">
<g clip-path="url(#clip0_296_28380)">
<path d="M40 80C62.0914 80 80 62.0914 80 40C80 17.9086 62.0914 0 40 0C17.9086 0 0 17.9086 0 40C0 62.0914 17.9086 80 40 80Z" fill="#FF4171"/>
<path d="M38.2287 54.7079L41.8747 51.062L34.5828 43.7697L23.6445 54.7079L30.9365 61.9999L34.5828 58.3539L32.7596 56.5307L36.4056 52.8848L38.2287 54.7079Z" fill="white"/>
<path d="M57.3311 21.0215C53.3021 16.9928 46.7759 16.9928 42.7469 21.0215C39.3561 24.4123 38.864 29.5716 41.1792 33.5274L20 54.708L23.646 58.3539L44.8252 37.1734C48.781 39.4886 53.9403 38.9965 57.3311 35.6057C61.3598 31.5767 61.3598 25.0505 57.3311 21.0215ZM47.3043 31.0483C45.7913 29.535 45.7913 27.0922 47.3043 25.5792C48.8176 24.0659 51.2604 24.0659 52.7734 25.5792C54.2867 27.0922 54.2867 29.535 52.7734 31.0483C51.2604 32.5613 48.8176 32.5613 47.3043 31.0483Z" fill="#424259"/>
<path d="M57.3322 35.6057C53.9413 38.9965 48.7821 39.4886 44.8263 37.1734L23.647 58.3539L21.8242 56.5308L47.3054 31.048C48.8187 32.5613 51.2615 32.5613 52.7745 31.048C54.2878 29.535 54.2878 27.0922 52.7745 25.5792L57.3322 21.0215C61.3608 25.0505 61.3608 31.5767 57.3322 35.6057Z" fill="white"/>
</g>
<defs>
<clipPath id="clip0_296_28380">
<rect width="80" height="80" fill="white"/>
</clipPath>
</defs>
</svg>
