<svg width="64" height="64" viewBox="0 0 64 64" fill="none" xmlns="http://www.w3.org/2000/svg">
<path d="M32 64C49.6731 64 64 49.6731 64 32C64 14.3269 49.6731 0 32 0C14.3269 0 0 14.3269 0 32C0 49.6731 14.3269 64 32 64Z" fill="#EEF2F6"/>
<g clip-path="url(#clip0_296_28359)">
<path d="M50.2079 29.9607C50.2079 29.6937 50.2079 29.4267 50.2079 29.1754C50.213 26.3429 49.2882 23.5841 47.5707 21.3081C45.8532 19.032 43.4344 17.3598 40.6727 16.5392C37.911 15.7187 34.9535 15.7935 32.2386 16.7526C29.5236 17.7117 27.1957 19.504 25.5999 21.8639L25.7999 21.9267L27.7039 22.2958V26.1047L25.7999 26.4738C25.6603 26.5007 25.5296 26.561 25.4194 26.6494C25.3092 26.7378 25.223 26.8516 25.1684 26.9806C25.1138 27.1096 25.0925 27.2498 25.1063 27.3888C25.1202 27.5278 25.1688 27.6613 25.2479 27.7775L26.3279 29.3482L23.5919 32.034L21.9919 30.9738C21.8738 30.8979 21.7385 30.8516 21.5979 30.8389C21.4573 30.8262 21.3157 30.8476 21.1855 30.901C21.0553 30.9545 20.9403 31.0385 20.8508 31.1456C20.7613 31.2528 20.6999 31.3798 20.6719 31.5157L20.2879 33.3848H16.4079L15.9999 31.5314C15.9708 31.3954 15.9083 31.2684 15.818 31.1613C15.7276 31.0543 15.612 30.9705 15.4813 30.9171C15.3505 30.8638 15.2085 30.8425 15.0675 30.8551C14.9265 30.8677 14.7907 30.9138 14.6719 30.9895L13.0719 32.0497L11.9999 30.966C10.3755 32.1376 9.16793 33.7815 8.54849 35.6646C7.92905 37.5477 7.92915 39.5744 8.54877 41.4574C9.1684 43.3404 10.3761 44.9842 12.0007 46.1557C13.6252 47.3272 15.5842 47.967 17.5999 47.9843H46.3999C48.6033 47.9778 50.7373 47.2275 52.4439 45.8593C54.1504 44.4911 55.3256 42.5883 55.7721 40.4701C56.2187 38.352 55.9094 36.1476 54.8962 34.2268C53.8831 32.3061 52.2277 30.7859 50.2079 29.9215V29.9607Z" fill="#FF4171"/>
<path d="M16.3926 27.1963C16.9729 27.5681 17.6516 27.7647 18.3446 27.7618C19.3078 27.7618 20.2317 27.3861 20.9128 26.7175C21.5939 26.0488 21.9766 25.1419 21.9766 24.1963C21.9768 23.9693 21.9526 23.743 21.9046 23.5209C20.7381 23.6048 19.6146 23.9886 18.647 24.6338C17.6795 25.2789 16.902 26.1627 16.3926 27.1963Z" fill="#FF4171"/>
<path opacity="0.5" d="M16.3926 27.1963C16.0752 27.0009 15.7916 26.757 15.5526 26.4738C15.1959 26.0562 14.9415 25.5639 14.8089 25.0346C14.6763 24.5054 14.669 23.9534 14.7877 23.421C14.9063 22.8886 15.1477 22.39 15.4933 21.9635C15.8389 21.537 16.2795 21.1939 16.7813 20.9607C17.283 20.7274 17.8326 20.6102 18.3877 20.618C18.9428 20.6258 19.4887 20.7584 19.9834 21.0056C20.4782 21.2529 20.9086 21.6082 21.2417 22.0442C21.5747 22.4802 21.8015 22.9854 21.9046 23.5209C22.0726 23.5209 22.2326 23.5209 22.4006 23.5209C23.1164 23.5227 23.8271 23.6394 24.5046 23.8665C24.8083 23.1682 25.1751 22.4979 25.6006 21.8639C25.4886 21.8111 25.3893 21.7354 25.3096 21.6419C25.2298 21.5485 25.1712 21.4393 25.1379 21.3218C25.1046 21.2043 25.0972 21.0812 25.1163 20.9607C25.1354 20.8402 25.1805 20.7251 25.2486 20.623L26.3286 19.0524L23.6086 16.3508L22.0966 17.356L21.9846 17.4267C21.8664 17.5026 21.7312 17.5489 21.5906 17.5616C21.45 17.5743 21.3084 17.5529 21.1781 17.4995C21.0479 17.446 20.933 17.362 20.8435 17.2549C20.7539 17.1477 20.6925 17.0207 20.6646 16.8848L20.2806 15H16.4086L16.0006 16.8691C15.9714 17.0051 15.909 17.1322 15.8186 17.2392C15.7282 17.3462 15.6127 17.43 15.4819 17.4834C15.3512 17.5367 15.2091 17.558 15.0681 17.5454C14.9271 17.5328 14.7913 17.4867 14.6726 17.411L13.0726 16.3508L10.3526 19.0366L11.4326 20.6073C11.5132 20.7243 11.5631 20.859 11.5778 20.9994C11.5926 21.1399 11.5717 21.2817 11.517 21.4124C11.4624 21.543 11.3757 21.6583 11.2646 21.748C11.1536 21.8378 11.0216 21.8991 10.8806 21.9267L8.97656 22.2958V26.1047L10.8806 26.4738C11.0191 26.5024 11.1485 26.5637 11.2575 26.6524C11.3666 26.7412 11.4519 26.8546 11.5063 26.983C11.5606 27.1113 11.5823 27.2507 11.5695 27.3892C11.5566 27.5276 11.5096 27.6609 11.4326 27.7775L11.3606 27.8796L10.3526 29.3639L11.9526 30.9346C13.0749 30.1545 14.3542 29.619 15.7046 29.3639C15.8033 28.6075 16.0361 27.8739 16.3926 27.1963Z" fill="#424259"/>
<path d="M14.7044 30.9895C14.8232 30.9138 14.9589 30.8677 15.0999 30.8551C15.241 30.8425 15.383 30.8638 15.5137 30.9171C15.6445 30.9705 15.7601 31.0543 15.8504 31.1613C15.9408 31.2684 16.0032 31.3954 16.0324 31.5314L16.4084 33.4005H20.2804L20.6644 31.5314C20.6923 31.3956 20.7537 31.2685 20.8433 31.1613C20.9328 31.0542 21.0477 30.9702 21.178 30.9167C21.3082 30.8633 21.4498 30.8419 21.5904 30.8546C21.731 30.8673 21.8662 30.9136 21.9844 30.9895L23.5844 32.0497L26.3204 29.3639L25.2404 27.7932C25.1613 27.6771 25.1127 27.5435 25.0988 27.4045C25.0849 27.2655 25.1062 27.1253 25.1608 26.9963C25.2155 26.8673 25.3017 26.7535 25.4119 26.6651C25.522 26.5767 25.6527 26.5164 25.7924 26.4895L27.6964 26.1204V22.2958L25.7924 21.9267L25.6004 21.8639C25.1706 22.4898 24.7985 23.1521 24.4884 23.8429C23.816 23.6175 23.1108 23.5008 22.4004 23.4974C22.2324 23.4974 22.0724 23.4974 21.9044 23.4974C21.9524 23.7194 21.9766 23.9458 21.9764 24.1728C21.9764 25.1184 21.5937 26.0253 20.9126 26.6939C20.2315 27.3626 19.3076 27.7382 18.3444 27.7382C17.6514 27.7411 16.9727 27.5445 16.3924 27.1728C16.0462 27.8548 15.8242 28.591 15.7364 29.3482C14.386 29.6032 13.1067 30.1388 11.9844 30.9188L13.0884 32.0026L14.7044 30.9895Z" fill="#424259"/>
<path d="M30.9357 40.2016H28.2797L27.6637 42.1335H25.9277L28.7997 33.4005H30.5357L33.3997 42.1335H31.5677L30.9357 40.2016ZM28.6797 38.8272H30.5917L29.6877 35.9057H29.5997L28.6797 38.8272Z" fill="#424259"/>
<path d="M34.4004 33.4869C34.7604 33.4241 35.1524 33.3691 35.5764 33.3298C36.0004 33.2906 36.4324 33.2749 36.8564 33.2749C37.3014 33.2764 37.7455 33.3131 38.1844 33.3848C38.609 33.4471 39.0168 33.5913 39.3844 33.8089C39.7473 34.0236 40.0476 34.3266 40.2564 34.6885C40.5044 35.1552 40.6204 35.6786 40.5924 36.2042C40.6042 36.6753 40.5057 37.1428 40.3044 37.5707C40.1113 37.9364 39.8381 38.2556 39.5044 38.5052C39.1751 38.7517 38.8001 38.9331 38.4004 39.0393C37.9862 39.1525 37.5584 39.2106 37.1284 39.212H36.6324H36.3284H36.1204V42.2199H34.4004V33.4869ZM37.0004 34.7513C36.8378 34.7431 36.6749 34.7431 36.5124 34.7513C36.3888 34.7595 36.2659 34.7753 36.1444 34.7984V37.6257H36.2964H36.5124H36.8964C37.1245 37.6242 37.352 37.6032 37.5764 37.5628C37.7891 37.5201 37.9923 37.4403 38.1764 37.3272C38.3594 37.2128 38.5085 37.053 38.6084 36.8639C38.7201 36.6171 38.7721 36.3483 38.7604 36.0785C38.7706 35.8417 38.7182 35.6064 38.6084 35.3953C38.515 35.22 38.3772 35.0713 38.2084 34.9634C38.0395 34.8523 37.8487 34.7774 37.6484 34.7435C37.4327 34.7228 37.2155 34.7255 37.0004 34.7513Z" fill="#424259"/>
<path d="M41.793 40.6099H44.041V34.9241H41.793V33.4005H48.041V34.9241H45.777V40.6099H48.041V42.1335H41.793V40.6099Z" fill="#424259"/>
</g>
<defs>
<clipPath id="clip0_296_28359">
<rect width="48" height="33" fill="white" transform="translate(8 15)"/>
</clipPath>
</defs>
</svg>
