<svg width="64" height="64" viewBox="0 0 64 64" fill="none" xmlns="http://www.w3.org/2000/svg">
<g clip-path="url(#clip0_296_28364)">
<path d="M32 64C49.6731 64 64 49.6731 64 32C64 14.3269 49.6731 0 32 0C14.3269 0 0 14.3269 0 32C0 49.6731 14.3269 64 32 64Z" fill="#EEF2F6"/>
<path d="M51.2008 20.7938H12.8008V48.7554H51.2008V20.7938Z" fill="#424259"/>
<path opacity="0.5" d="M32.0004 13.555C33.6978 13.555 35.3256 14.2293 36.5259 15.4295C37.7261 16.6298 38.4004 18.2576 38.4004 19.955V28.7166C38.4004 30.414 37.7261 32.0419 36.5259 33.2421C35.3256 34.4423 33.6978 35.1166 32.0004 35.1166C30.303 35.1166 28.6751 34.4423 27.4749 33.2421C26.2747 32.0419 25.6004 30.414 25.6004 28.7166V19.955C25.6004 18.2576 26.2747 16.6298 27.4749 15.4295C28.6751 14.2293 30.303 13.555 32.0004 13.555ZM32.0004 10.355C29.4543 10.355 27.0125 11.3664 25.2122 13.1668C23.4118 14.9671 22.4004 17.4089 22.4004 19.955V28.7166C22.4004 29.9773 22.6487 31.2256 23.1311 32.3904C23.6136 33.5551 24.3207 34.6134 25.2122 35.5048C26.1036 36.3963 27.1619 37.1034 28.3266 37.5859C29.4914 38.0683 30.7397 38.3166 32.0004 38.3166C33.2611 38.3166 34.5094 38.0683 35.6742 37.5859C36.8389 37.1034 37.8972 36.3963 38.7886 35.5048C39.6801 34.6134 40.3872 33.5551 40.8696 32.3904C41.3521 31.2256 41.6004 29.9773 41.6004 28.7166V19.955C41.6004 17.4089 40.589 14.9671 38.7886 13.1668C36.9883 11.3664 34.5465 10.355 32.0004 10.355Z" fill="#424259"/>
<path d="M12.8008 20.7938H51.2008V30.3938C51.2025 31.4362 50.9986 32.4687 50.6009 33.4322C50.2031 34.3958 49.6193 35.2714 48.8828 36.0091C48.1463 36.7468 47.2716 37.332 46.3087 37.7313C45.3458 38.1306 44.3136 38.3362 43.2712 38.3362H20.7304C18.6273 38.3362 16.6104 37.5007 15.1233 36.0136C13.6362 34.5265 12.8008 32.5096 12.8008 30.4066V20.8066V20.7938Z" fill="#00F5BC"/>
<path d="M24.1923 34.0538H20.5059V38.3162H24.1923V34.0538Z" fill="#424259"/>
<path d="M43.2723 34.0538H39.5859V38.3162H43.2723V34.0538Z" fill="#424259"/>
<path d="M24.1923 38.3163H20.5059V41.8363H24.1923V38.3163Z" fill="#EEF2F6"/>
<path d="M43.2723 38.3163H39.5859V41.8363H43.2723V38.3163Z" fill="#EEF2F6"/>
</g>
<defs>
<clipPath id="clip0_296_28364">
<rect width="64" height="64" fill="white"/>
</clipPath>
</defs>
</svg>
