<svg width="80" height="80" viewBox="0 0 80 80" fill="none" xmlns="http://www.w3.org/2000/svg">
<g clip-path="url(#clip0_296_28403)">
<path d="M40 80C62.0914 80 80 62.0914 80 40C80 17.9086 62.0914 0 40 0C17.9086 0 0 17.9086 0 40C0 62.0914 17.9086 80 40 80Z" fill="#FF4171"/>
<g clip-path="url(#clip1_296_28403)">
<path d="M62.9993 17H28.1406V44.462H62.9993V17Z" fill="#424259"/>
<path d="M46.748 44.462H50.5769L57.2448 63H53.4159L46.748 44.462Z" fill="white" fill-opacity="0.5"/>
<path d="M40.572 44.462L33.8965 63H37.7253L44.4009 44.462" fill="white" fill-opacity="0.5"/>
<path d="M59 22H37V25H59V22Z" fill="#FF4171"/>
<path d="M59 27H37V30H59V27Z" fill="#FF4171"/>
<path d="M59 32H48V35H59V32Z" fill="#FF4171"/>
<path d="M27.8585 37.7177C31.6834 37.3396 34.4774 33.9349 34.099 30.1132C33.7206 26.2914 30.3131 23.4998 26.4882 23.8779C22.6632 24.256 19.8693 27.6606 20.2477 31.4824C20.6261 35.3041 24.0336 38.0958 27.8585 37.7177Z" fill="white"/>
<path d="M37.1878 44.0173C36.934 43.0577 36.3697 42.2088 35.5828 41.6028C34.7959 40.9969 33.8306 40.6679 32.8372 40.667H21.5041C20.5106 40.6679 19.5453 40.9969 18.7585 41.6028C17.9716 42.2088 17.4073 43.0577 17.1535 44.0173C17.0515 44.3922 16.9999 44.7789 17 45.1673V62.9463H37.3413V45.1673C37.3414 44.7789 37.2898 44.3922 37.1878 44.0173Z" fill="white"/>
</g>
</g>
<defs>
<clipPath id="clip0_296_28403">
<rect width="80" height="80" fill="white"/>
</clipPath>
<clipPath id="clip1_296_28403">
<rect width="46" height="46" fill="white" transform="translate(17 17)"/>
</clipPath>
</defs>
</svg>
