<svg width="64" height="64" viewBox="0 0 64 64" fill="none" xmlns="http://www.w3.org/2000/svg">
<g clip-path="url(#clip0_296_28354)">
<path d="M32 64C49.6731 64 64 49.6731 64 32C64 14.3269 49.6731 0 32 0C14.3269 0 0 14.3269 0 32C0 49.6731 14.3269 64 32 64Z" fill="#EEF2F6"/>
<g clip-path="url(#clip1_296_28354)">
<path d="M43 33V13H13V48.6667H34.7667C33.7343 47.1656 33.1317 45.4111 33.0237 43.5926C32.9158 41.7741 33.3066 39.9606 34.1541 38.348C35.0016 36.7354 36.2735 35.3849 37.8325 34.4424C39.3914 33.4999 41.1783 33.0011 43 33Z" fill="#00F5BC"/>
<path d="M43.0009 33V48.6667H34.7676C35.7435 50.0857 37.0694 51.2286 38.6167 51.9847C40.1641 52.7408 41.8805 53.0845 43.5997 52.9824C45.3188 52.8804 46.9825 52.336 48.4296 51.4022C49.8766 50.4683 51.0579 49.1765 51.8591 47.652C52.6603 46.1275 53.0541 44.4219 53.0026 42.7005C52.951 40.9791 52.4557 39.3001 51.5647 37.8263C50.6737 36.3525 49.4171 35.1338 47.9168 34.2882C46.4164 33.4427 44.7231 32.9989 43.0009 33Z" fill="#424259"/>
<path opacity="0.5" d="M42.9997 33C41.178 33.0011 39.3912 33.4999 37.8322 34.4424C36.2732 35.3849 35.0013 36.7354 34.1538 38.348C33.3063 39.9606 32.9155 41.7741 33.0234 43.5926C33.1314 45.4111 33.7341 47.1656 34.7664 48.6667H42.9997V33Z" fill="#424259"/>
<path d="M38 20.2534H18V21.5H38V20.2534ZM38 24H18V25.2534H38V24ZM38 27.7534H18V29H38V27.7534ZM33 31.5H23V32.7534H33V31.5Z" fill="white"/>
<path d="M45.994 39.74L43.0007 42.7333L42.094 43.6667L40.0074 41.58L38.7207 42.8667L42.094 46.2L43.0007 45.3067L47.2807 41L45.994 39.74Z" fill="#F9F5F3"/>
</g>
</g>
<defs>
<clipPath id="clip0_296_28354">
<rect width="64" height="64" fill="white"/>
</clipPath>
<clipPath id="clip1_296_28354">
<rect width="40" height="40" fill="white" transform="translate(13 13)"/>
</clipPath>
</defs>
</svg>
