<svg width="80" height="80" viewBox="0 0 80 80" fill="none" xmlns="http://www.w3.org/2000/svg">
<g clip-path="url(#clip0_296_28389)">
<path d="M40 80C62.0914 80 80 62.0914 80 40C80 17.9086 62.0914 0 40 0C17.9086 0 0 17.9086 0 40C0 62.0914 17.9086 80 40 80Z" fill="#FF4171"/>
<g clip-path="url(#clip1_296_28389)">
<path d="M20.0667 59.9333V51.5H17V63H28.5V59.9333H20.0667Z" fill="#424259"/>
<path d="M59.9333 20.0667V28.5H63V17H51.5V20.0667H59.9333Z" fill="#424259"/>
<path d="M59.9333 59.9333H51.5V63H63V51.5H59.9333V59.9333Z" fill="white"/>
<path d="M20.0667 20.0667H28.5V17H17V28.5H20.0667V20.0667Z" fill="white"/>
<path d="M27.1125 48.1726L25.1191 54.3059L29.1825 50.2426L27.1125 48.1726Z" fill="white"/>
<path d="M25.1191 54.306L31.2525 52.3203L29.1825 50.2427L25.1191 54.306Z" fill="#424259"/>
<path opacity="0.5" d="M32.3711 47.0534L28.6681 43.358L27.1348 48.1727L29.2048 50.2427L32.3711 47.0534Z" fill="white"/>
<path opacity="0.5" d="M29.1816 50.2427L31.2516 52.3203L36.0663 50.787L32.371 47.0533L29.1816 50.2427Z" fill="#424259"/>
<path d="M51.1774 28.2469L46.8611 32.5633L37.2088 37.2859L32.3711 47.0533L36.0664 50.7563L50.5641 36.2586L54.8804 31.9423L51.1774 28.2469Z" fill="#424259"/>
<path d="M47.4832 24.5432L43.168 28.8584L46.8652 32.5556L51.1804 28.2404L47.4832 24.5432Z" fill="white"/>
<path d="M43.1607 28.8669L28.6699 43.3577L32.3671 47.0549L46.8579 32.5642L43.1607 28.8669Z" fill="white"/>
</g>
</g>
<defs>
<clipPath id="clip0_296_28389">
<rect width="80" height="80" fill="white"/>
</clipPath>
<clipPath id="clip1_296_28389">
<rect width="46" height="46" fill="white" transform="translate(17 17)"/>
</clipPath>
</defs>
</svg>
