<svg width="80" height="80" viewBox="0 0 80 80" fill="none" xmlns="http://www.w3.org/2000/svg">
<g clip-path="url(#clip0_296_28385)">
<path d="M40 80C62.0914 80 80 62.0914 80 40C80 17.9086 62.0914 0 40 0C17.9086 0 0 17.9086 0 40C0 62.0914 17.9086 80 40 80Z" fill="#00F5BC"/>
<path d="M40.1625 54.836C43.0171 54.8423 45.7854 53.8529 47.9952 52.0366C50.205 50.2203 51.7195 47.6895 52.2801 44.876C52.8408 42.0626 52.413 39.1408 51.0696 36.609C49.7263 34.0772 47.5507 32.0924 44.9139 30.9931C42.2772 29.8938 39.3427 29.7481 36.611 30.5809C33.8793 31.4137 31.5197 33.1734 29.9348 35.5598C28.3498 37.9462 27.6376 40.8114 27.9198 43.6667C28.2019 46.522 29.4609 49.1905 31.4819 51.2168C32.6211 52.3641 33.9742 53.2743 35.4637 53.8953C36.9532 54.5163 38.55 54.836 40.1625 54.836Z" fill="#EEF2F6"/>
<path d="M41.2138 35.6165H39.1094V42.4912H41.2138V35.6165Z" fill="#424259"/>
<path d="M40.9279 41.4367L39.1055 42.4944L43.6677 50.4374L45.4902 49.3797L40.9279 41.4367Z" fill="#424259"/>
<path d="M27.3365 29.4276C30.2484 26.5078 34.0472 24.6494 38.1298 24.1476V22.0405H36.4857V18H40.3164V27.6841C36.4096 27.6841 32.6627 29.2441 29.9002 32.021C27.1376 34.7978 25.5856 38.5641 25.5856 42.4912C25.5856 46.4182 27.1376 50.1845 29.9002 52.9613C32.6627 55.7382 36.4096 57.2982 40.3164 57.2982V60.9669C36.6897 60.9478 33.1493 59.8525 30.1395 57.8184C27.1297 55.7844 24.7845 52.9023 23.3981 49.5335C22.0118 46.1648 21.646 42.4596 22.3466 38.8827C23.0473 35.3058 24.7832 32.0165 27.3365 29.4276Z" fill="#424259"/>
<path d="M23.4487 25.7311L29.9727 21.4316L32.1766 24.8107L25.6527 29.1101L23.4487 25.7311Z" fill="#424259"/>
<path opacity="0.5" d="M40.3804 18H44.285V22.0405H42.6409V24.1393C47.2411 24.7741 51.4325 27.1331 54.3751 30.7435C57.3177 34.3539 58.794 38.9489 58.508 43.6073C58.2221 48.2658 56.195 52.6434 52.8332 55.8628C49.4714 59.0822 45.0232 60.9054 40.3804 60.9669H40.3146V57.2982H40.3804C44.2872 57.2982 48.034 55.7382 50.7966 52.9613C53.5592 50.1845 55.1111 46.4182 55.1111 42.4912C55.1111 38.5641 53.5592 34.7978 50.7966 32.021C48.034 29.2441 44.2872 27.6841 40.3804 27.6841V18Z" fill="white"/>
<path opacity="0.5" d="M50.7964 21.4264L57.3203 25.7258L55.1163 29.1049L48.5924 24.8055L50.7964 21.4264Z" fill="white"/>
<rect x="16" y="40" width="24" height="24" rx="12" fill="white"/>
<path d="M34.3727 53.9781L36 53.6565V50.3435L34.3727 50.0219C34.2503 50.0009 34.1352 49.949 34.0383 49.8712C33.9415 49.7933 33.8661 49.6921 33.8193 49.577C33.7725 49.4619 33.7558 49.3368 33.7708 49.2134C33.7858 49.0901 33.832 48.9726 33.905 48.8721L34.821 47.4884L32.4823 45.1498L31.1084 46.1242C31.0082 46.1927 30.8924 46.2351 30.7717 46.2477C30.6509 46.2602 30.5289 46.2425 30.4167 46.1961C30.3046 46.1496 30.2057 46.076 30.1291 45.9818C30.0525 45.8876 30.0006 45.7758 29.9781 45.6565L29.6565 44H26.3435L26.0219 45.6273C26.0009 45.7497 25.949 45.8648 25.8712 45.9617C25.7933 46.0585 25.6921 46.1339 25.577 46.1807C25.4619 46.2275 25.3368 46.2442 25.2134 46.2292C25.0901 46.2142 24.9726 46.168 24.8721 46.095L23.5079 45.1693L21.1693 47.5079L22.095 48.8721C22.1635 48.9724 22.2059 49.0881 22.2185 49.2088C22.231 49.3296 22.2133 49.4516 22.1668 49.5638C22.1204 49.6759 22.0468 49.7748 21.9526 49.8514C21.8584 49.928 21.7466 49.9799 21.6273 50.0024L20 50.3435V53.6565L21.6273 53.9781C21.7466 54.0006 21.8584 54.0525 21.9526 54.1291C22.0468 54.2057 22.1204 54.3046 22.1668 54.4167C22.2133 54.5289 22.231 54.6509 22.2185 54.7717C22.2059 54.8924 22.1635 55.0082 22.095 55.1084L21.1693 56.4823L23.5079 58.821L24.8721 57.905C24.9724 57.8365 25.0881 57.7941 25.2088 57.7815C25.3296 57.769 25.4516 57.7867 25.5638 57.8332C25.6759 57.8796 25.7748 57.9532 25.8514 58.0474C25.928 58.1416 25.9799 58.2534 26.0024 58.3727L26.324 60H29.637L29.9586 58.3727C29.9811 58.2534 30.033 58.1416 30.1096 58.0474C30.1862 57.9532 30.2851 57.8796 30.3973 57.8332C30.5094 57.7867 30.6314 57.769 30.7522 57.7815C30.8729 57.7941 30.9887 57.8365 31.0889 57.905L32.4629 58.821L34.8015 56.4823L33.8855 55.1084C33.8169 55.0068 33.7749 54.8896 33.7634 54.7676C33.752 54.6455 33.7714 54.5225 33.8199 54.41C33.8684 54.2974 33.9445 54.1988 34.0411 54.1234C34.1377 54.0479 34.2517 53.9979 34.3727 53.9781ZM28 55.0987C27.3871 55.0987 26.788 54.9169 26.2785 54.5764C25.7689 54.236 25.3717 53.752 25.1372 53.1858C24.9027 52.6196 24.8413 51.9966 24.9609 51.3955C25.0804 50.7944 25.3756 50.2423 25.8089 49.8089C26.2423 49.3756 26.7944 49.0804 27.3955 48.9609C27.9966 48.8413 28.6196 48.9027 29.1858 49.1372C29.752 49.3717 30.236 49.7689 30.5764 50.2785C30.9169 50.788 31.0987 51.3871 31.0987 52C31.0987 52.8218 30.7722 53.61 30.1911 54.1911C29.61 54.7722 28.8218 55.0987 28 55.0987Z" fill="#424259"/>
</g>
<defs>
<clipPath id="clip0_296_28385">
<rect width="80" height="80" fill="white"/>
</clipPath>
</defs>
</svg>
