<svg width="64" height="64" viewBox="0 0 64 64" fill="none" xmlns="http://www.w3.org/2000/svg">
<g clip-path="url(#clip0_296_28349)">
<path d="M32 64C49.6731 64 64 49.6731 64 32C64 14.3269 49.6731 0 32 0C14.3269 0 0 14.3269 0 32C0 49.6731 14.3269 64 32 64Z" fill="#EEF2F6"/>
<g clip-path="url(#clip1_296_28349)">
<path opacity="0.5" d="M39.6262 18.2573L32.4835 10.2127C32.4213 10.1465 32.3464 10.0935 32.2632 10.057C32.1801 10.0204 32.0904 10.001 31.9995 10C31.9097 10.0003 31.8208 10.0194 31.7387 10.056C31.6567 10.0926 31.5831 10.146 31.5229 10.2127L24.3729 18.2793C24.2835 18.3768 24.2258 18.4991 24.2075 18.63C24.1891 18.761 24.211 18.8944 24.2702 19.0127C24.321 19.1259 24.4033 19.2221 24.5074 19.2897C24.6114 19.3574 24.7328 19.3936 24.8569 19.394H28.8829V49.6H35.1235V19.3353H39.1422C39.2663 19.3349 39.3877 19.2987 39.4917 19.2311C39.5958 19.1634 39.6781 19.0672 39.7289 18.954C39.7802 18.8402 39.7978 18.7141 39.7796 18.5906C39.7614 18.4672 39.7081 18.3515 39.6262 18.2573Z" fill="#424259"/>
<path d="M53.7795 26.9033L45.6469 19.834C45.5551 19.7529 45.4415 19.7006 45.3202 19.6836C45.1989 19.6667 45.0754 19.6858 44.9649 19.7387C44.8505 19.7879 44.7533 19.8699 44.6854 19.9743C44.6175 20.0787 44.5821 20.2008 44.5835 20.3253V23.992H41.3202C39.6991 23.9467 38.0853 24.2264 36.5739 24.8146C35.0626 25.4027 33.6843 26.2875 32.5202 27.4167C31.3578 28.5301 30.4335 29.8679 29.8033 31.349C29.173 32.8301 28.8499 34.4237 28.8535 36.0333V50.6267H35.0942V36.048C35.0929 35.2669 35.2502 34.4937 35.5565 33.7752C35.8628 33.0567 36.3118 32.4079 36.8762 31.868C37.4398 31.3162 38.109 30.8837 38.8435 30.5965C39.5781 30.3092 40.3631 30.173 41.1515 30.196H44.5615V34.464C44.5629 34.5879 44.5994 34.7089 44.667 34.8128C44.7345 34.9166 44.8302 34.9992 44.9429 35.0507C45.0543 35.1016 45.178 35.1191 45.2992 35.1008C45.4203 35.0826 45.5334 35.0295 45.6249 34.948L53.7795 27.8787C53.8484 27.8174 53.9035 27.7423 53.9412 27.6583C53.9789 27.5742 53.9984 27.4831 53.9984 27.391C53.9984 27.2989 53.9789 27.2078 53.9412 27.1237C53.9035 27.0397 53.8484 26.9646 53.7795 26.9033Z" fill="#00F5BC"/>
<path d="M31.4582 35.7033C30.2941 34.5741 28.9158 33.6894 27.4045 33.1012C25.8931 32.5131 24.2793 32.2334 22.6582 32.2787H19.4169V28.612C19.4155 28.4881 19.379 28.3671 19.3114 28.2632C19.2439 28.1594 19.1482 28.0768 19.0355 28.0253C18.9241 27.9744 18.8004 27.957 18.6792 27.9752C18.5581 27.9934 18.445 28.0465 18.3535 28.128L10.2209 35.1827C10.152 35.2439 10.0969 35.319 10.0592 35.4031C10.0215 35.4871 10.002 35.5782 10.002 35.6703C10.002 35.7625 10.0215 35.8536 10.0592 35.9376C10.0969 36.0217 10.152 36.0968 10.2209 36.158L18.3535 43.2273C18.4453 43.3085 18.5589 43.3608 18.6802 43.3777C18.8014 43.3947 18.925 43.3755 19.0355 43.3227C19.1499 43.2734 19.2471 43.1915 19.315 43.0871C19.3829 42.9827 19.4183 42.8605 19.4169 42.736V38.468H22.8268C23.6144 38.4469 24.3982 38.5833 25.1324 38.8692C25.8665 39.155 26.5362 39.5846 27.1022 40.1327C27.6659 40.6731 28.1144 41.322 28.4207 42.0404C28.7269 42.7588 28.8846 43.5317 28.8842 44.3127V54H35.1248V44.32C35.1276 42.7105 34.8042 41.1171 34.174 39.6362C33.5438 38.1552 32.6199 36.8173 31.4582 35.7033Z" fill="#424259"/>
</g>
</g>
<defs>
<clipPath id="clip0_296_28349">
<rect width="64" height="64" fill="white"/>
</clipPath>
<clipPath id="clip1_296_28349">
<rect width="44" height="44" fill="white" transform="translate(10 10)"/>
</clipPath>
</defs>
</svg>
