<svg width="80" height="80" viewBox="0 0 80 80" fill="none" xmlns="http://www.w3.org/2000/svg">
<g clip-path="url(#clip0_296_28313)">
<path d="M40 80C62.0914 80 80 62.0914 80 40C80 17.9086 62.0914 0 40 0C17.9086 0 0 17.9086 0 40C0 62.0914 17.9086 80 40 80Z" fill="#EEF2F6"/>
<path opacity="0.5" d="M28.802 33.6H24.002V55.1097H28.802V33.6Z" fill="#424259"/>
<path d="M29.6012 33.6671H23.2012V36.8572H29.6012V33.6671Z" fill="#424259"/>
<path opacity="0.5" d="M42.2727 33.6H37.4727V55.1097H42.2727V33.6Z" fill="#424259"/>
<path d="M43.2008 33.6671H36.8008V36.8572H43.2008V33.6671Z" fill="#424259"/>
<path opacity="0.5" d="M56.0012 33.6H51.2012V55.1097H56.0012V33.6Z" fill="#424259"/>
<path d="M56.8004 33.6671H50.4004V36.8572H56.8004V33.6671Z" fill="#424259"/>
<path d="M61.7397 63.2001H18.5859V57.8038H61.7397V63.2001Z" fill="#424259"/>
<path d="M63.4819 33.4679H16.8008V28.7512L40.1414 15.2L63.4819 28.7512V33.4679Z" fill="#00F5BC"/>
<path d="M35.916 25.8794C35.9182 27.0052 36.3663 28.0843 37.1624 28.8804C37.9585 29.6765 39.0376 30.1247 40.1634 30.1268V21.632C39.0376 21.6341 37.9585 22.0823 37.1624 22.8784C36.3663 23.6744 35.9182 24.7535 35.916 25.8794Z" fill="#EEF2F6"/>
<path d="M40.1641 21.632V30.1268C41.2905 30.1268 42.3709 29.6793 43.1674 28.8828C43.964 28.0862 44.4115 27.0059 44.4115 25.8794C44.4115 24.7529 43.964 23.6725 43.1674 22.876C42.3709 22.0795 41.2905 21.632 40.1641 21.632Z" fill="#424259"/>
</g>
<defs>
<clipPath id="clip0_296_28313">
<rect width="80" height="80" fill="white"/>
</clipPath>
</defs>
</svg>
