<svg width="80" height="80" viewBox="0 0 80 80" fill="none" xmlns="http://www.w3.org/2000/svg">
<g clip-path="url(#clip0_296_28394)">
<path d="M40 80C62.0914 80 80 62.0914 80 40C80 17.9086 62.0914 0 40 0C17.9086 0 0 17.9086 0 40C0 62.0914 17.9086 80 40 80Z" fill="#FF4171"/>
<g clip-path="url(#clip1_296_28394)">
<path opacity="0.5" d="M55.354 50.2767H53.3202L47.9144 41.7053H35.6808L29.3193 50.2767H16V18H55.354V50.2767Z" fill="white"/>
<path d="M44.0079 40.172H43.8856C43.5789 40.1484 43.2864 40.0327 43.0463 39.8398C42.8062 39.647 42.6298 39.386 42.5399 39.091L38.6175 26.1727L35.7197 31.8C35.5931 32.0555 35.3979 32.2704 35.1561 32.4208C34.9143 32.5711 34.6355 32.6508 34.351 32.651L18.9492 32.4208V29.5843H33.4182L37.6159 21.4117C37.7568 21.1343 37.9786 20.9066 38.2518 20.7587C38.5249 20.6108 38.8365 20.5497 39.1451 20.5837C39.4477 20.6116 39.7352 20.7294 39.9708 20.922C40.2064 21.1145 40.3795 21.3731 40.4678 21.6647L44.2908 34.4373L46.2023 30.4737C46.3274 30.2142 46.5228 29.9953 46.7662 29.842C47.0097 29.6888 47.2912 29.6075 47.5786 29.6073H62.508V32.674H48.565L45.3842 39.298C45.2603 39.5589 45.0653 39.7794 44.8218 39.9341C44.5783 40.0887 44.2962 40.1712 44.0079 40.172Z" fill="#424259"/>
<path d="M62.7393 51.189C62.912 50.9162 63.0038 50.5998 63.0038 50.2767C63.0038 49.9536 62.912 49.6371 62.7393 49.3643C57.1883 40.5093 50.9339 36.5533 42.4774 36.5533C34.0209 36.5533 27.7588 40.5093 22.2078 49.3643C22.0351 49.6371 21.9434 49.9536 21.9434 50.2767C21.9434 50.5998 22.0351 50.9162 22.2078 51.189C27.7588 60.0517 34.0133 64 42.4774 64C50.9415 64 57.1883 60.0517 62.7393 51.189ZM42.4774 58.8557C40.7849 58.8572 39.1299 58.3553 37.7219 57.4136C36.3139 56.4718 35.2161 55.1325 34.5673 53.565C33.9186 51.9976 33.7481 50.2724 34.0773 48.6077C34.4066 46.943 35.2209 45.4137 36.4171 44.2131C37.6134 43.0126 39.1379 42.1947 40.7978 41.8631C42.4576 41.5314 44.1783 41.7009 45.7422 42.35C47.306 42.9991 48.6427 44.0987 49.5832 45.5096C50.5236 46.9206 51.0256 48.5796 51.0256 50.2767C51.0256 52.5506 50.1252 54.7316 48.5224 56.3402C46.9195 57.9489 44.7452 58.8536 42.4774 58.8557Z" fill="white"/>
<path d="M42.4781 55.421C45.3116 55.421 47.6086 53.1178 47.6086 50.2767C47.6086 47.4355 45.3116 45.1323 42.4781 45.1323C39.6446 45.1323 37.3477 47.4355 37.3477 50.2767C37.3477 53.1178 39.6446 55.421 42.4781 55.421Z" fill="#424259"/>
</g>
</g>
<defs>
<clipPath id="clip0_296_28394">
<rect width="80" height="80" fill="white"/>
</clipPath>
<clipPath id="clip1_296_28394">
<rect width="47" height="46" fill="white" transform="translate(16 18)"/>
</clipPath>
</defs>
</svg>
