<svg width="64" height="64" viewBox="0 0 64 64" fill="none" xmlns="http://www.w3.org/2000/svg">
<g clip-path="url(#clip0_296_28369)">
<path d="M32 64C49.6731 64 64 49.6731 64 32C64 14.3269 49.6731 0 32 0C14.3269 0 0 14.3269 0 32C0 49.6731 14.3269 64 32 64Z" fill="#EEF2F6"/>
<g clip-path="url(#clip1_296_28369)">
<path d="M32.0001 42.4962C37.797 42.4962 42.4963 37.7969 42.4963 32C42.4963 26.2031 37.797 21.5038 32.0001 21.5038C26.2032 21.5038 21.5039 26.2031 21.5039 32C21.5039 37.7969 26.2032 42.4962 32.0001 42.4962Z" fill="#FF4171"/>
<path d="M31.9997 45.5191C29.7741 45.5208 27.5824 44.9734 25.6189 43.9253C23.6555 42.8773 21.9809 41.361 20.7437 39.5109C19.5065 37.6608 18.7449 35.5341 18.5263 33.3192C18.3078 31.1043 18.639 28.8697 19.4908 26.8135C20.3425 24.7572 21.6884 22.9429 23.4091 21.5313C25.1299 20.1197 27.1723 19.1545 29.3554 18.7212C31.5384 18.2878 33.7947 18.3998 35.9241 19.0471C38.0535 19.6944 39.9904 20.8571 41.5629 22.4321C43.4521 24.3243 44.7383 26.734 45.2589 29.3567C45.7795 31.9794 45.5112 34.6976 44.4879 37.1679C43.4647 39.6382 41.7323 41.7499 39.5096 43.2363C37.2869 44.7227 34.6736 45.517 31.9997 45.5191ZM31.9997 20.3282C29.3015 20.3298 26.6873 21.267 24.6026 22.9799C22.5178 24.6929 21.0916 27.0758 20.5668 29.7225C20.042 32.3692 20.4512 35.1159 21.7247 37.4948C22.9981 39.8736 25.0569 41.7372 27.5504 42.7682C30.0439 43.7992 32.8178 43.9336 35.3993 43.1487C37.9808 42.3637 40.2103 40.708 41.7078 38.4635C43.2054 36.219 43.8783 33.5247 43.612 30.8396C43.3457 28.1546 42.1566 25.6449 40.2474 23.7383C39.1636 22.6576 37.8772 21.8013 36.4619 21.2185C35.0466 20.6358 33.5303 20.338 31.9997 20.3422V20.3282Z" fill="#424259"/>
<path d="M52.1335 16.1204C52.1344 15.2779 51.8854 14.454 51.4179 13.7529C50.9505 13.0519 50.2857 12.5053 49.5075 12.1822C48.7293 11.8591 47.8728 11.7741 47.0463 11.9379C46.2198 12.1017 45.4605 12.507 44.8644 13.1025C44.2682 13.6979 43.8621 14.4568 43.6974 15.2831C43.5327 16.1095 43.6168 16.9661 43.939 17.7446C44.2612 18.5231 44.8071 19.1886 45.5076 19.6568C46.2081 20.125 47.0318 20.3749 47.8744 20.3749C49.0028 20.3737 50.0847 19.9252 50.883 19.1277C51.6813 18.3303 52.131 17.2488 52.1335 16.1204Z" fill="#424259"/>
<path d="M49.2566 51.1217C50.2872 51.1217 51.1226 50.2863 51.1226 49.2557C51.1226 48.2252 50.2872 47.3897 49.2566 47.3897C48.2261 47.3897 47.3906 48.2252 47.3906 49.2557C47.3906 50.2863 48.2261 51.1217 49.2566 51.1217Z" fill="#424259"/>
<path d="M14.739 16.6056C15.1081 16.6056 15.4689 16.4962 15.7757 16.2911C16.0826 16.0861 16.3218 15.7947 16.463 15.4537C16.6042 15.1127 16.6412 14.7375 16.5692 14.3756C16.4972 14.0136 16.3195 13.6811 16.0585 13.4202C15.7975 13.1592 15.465 12.9815 15.1031 12.9095C14.7411 12.8375 14.3659 12.8744 14.025 13.0157C13.684 13.1569 13.3926 13.3961 13.1875 13.7029C12.9825 14.0098 12.873 14.3706 12.873 14.7396C12.873 15.2345 13.0696 15.7091 13.4196 16.0591C13.7695 16.409 14.2441 16.6056 14.739 16.6056Z" fill="#424259"/>
<path d="M16.1212 43.6204C15.2784 43.6195 14.4543 43.8686 13.7532 44.3363C13.0521 44.8039 12.5055 45.4691 12.1825 46.2475C11.8596 47.0259 11.7748 47.8827 11.939 48.7093C12.1032 49.5359 12.509 50.2953 13.1049 50.8912C13.7008 51.4871 14.4602 51.8929 15.2868 52.0571C16.1134 52.2213 16.9701 52.1365 17.7486 51.8136C18.527 51.4906 19.1922 50.944 19.6598 50.2429C20.1275 49.5418 20.3766 48.7177 20.3757 47.8749C20.3744 46.7469 19.9258 45.6655 19.1282 44.8679C18.3306 44.0703 17.2492 43.6217 16.1212 43.6204Z" fill="#424259"/>
<g opacity="0.5">
<path d="M22.5628 40.6395C22.3684 40.4872 22.2092 40.2947 22.0963 40.0751L19.4326 42.7388C18.5095 42.1411 17.4422 41.8035 16.3433 41.7617C15.2443 41.72 14.1545 41.9755 13.1887 42.5014C12.2229 43.0273 11.4169 43.8041 10.8557 44.7498C10.2945 45.6955 9.99884 46.7752 10 47.8749C9.99928 48.8268 10.2206 49.7658 10.6464 50.6172C11.0722 51.4686 11.6907 52.2089 12.4528 52.7793C13.2149 53.3498 14.0995 53.7346 15.0364 53.9032C15.9732 54.0718 16.9365 54.0196 17.8497 53.7506C18.7628 53.4817 19.6006 53.0034 20.2965 52.3539C20.9924 51.7044 21.5273 50.9015 21.8585 50.0091C22.1897 49.1166 22.3082 48.1592 22.2045 47.213C22.1008 46.2667 21.7778 45.3577 21.2612 44.5581L24.0182 41.8011C23.5284 41.4232 23.0619 41.0267 22.5628 40.6395ZM16.1204 52.134C15.2779 52.1349 14.454 51.8859 13.7529 51.4185C13.0519 50.951 12.5053 50.2862 12.1822 49.508C11.8591 48.7298 11.7741 47.8733 11.9379 47.0468C12.1017 46.2203 12.507 45.461 13.1025 44.8649C13.6979 44.2688 14.4568 43.8627 15.2831 43.698C16.1095 43.5332 16.9661 43.6173 17.7446 43.9395C18.5231 44.2618 19.1886 44.8077 19.6568 45.5082C20.125 46.2087 20.3749 47.0323 20.3749 47.8749C20.3737 49.0033 19.9252 50.0852 19.1277 50.8835C18.3303 51.6819 17.2488 52.1315 16.1204 52.134Z" fill="#424259"/>
<path d="M42.0443 23.7757L44.5587 21.2612C45.8343 22.0896 47.3714 22.4166 48.8738 22.1791C50.3761 21.9416 51.7374 21.1565 52.6954 19.975C53.6533 18.7936 54.1401 17.2994 54.062 15.7804C53.9838 14.2614 53.3462 12.8251 52.2721 11.7482C51.198 10.6713 49.7633 10.0301 48.2445 9.94803C46.7257 9.86599 45.2303 10.349 44.0464 11.3039C42.8625 12.2588 42.0739 13.6181 41.8326 15.1198C41.5912 16.6216 41.9142 18.1595 42.7394 19.4372L40.2109 21.9656C40.9682 22.4004 41.5998 23.024 42.0443 23.7757ZM47.8755 11.866C48.7169 11.866 49.5395 12.1155 50.2391 12.583C50.9388 13.0505 51.4841 13.7149 51.8061 14.4923C52.1281 15.2697 52.2123 16.1252 52.0482 16.9504C51.884 17.7757 51.4788 18.5338 50.8838 19.1288C50.2888 19.7238 49.5308 20.129 48.7055 20.2931C47.8802 20.4573 47.0248 20.3731 46.2474 20.051C45.47 19.729 44.8055 19.1837 44.338 18.4841C43.8705 17.7844 43.621 16.9619 43.621 16.1204C43.6235 14.9928 44.0725 13.9121 44.8699 13.1148C45.6672 12.3175 46.7479 11.8685 47.8755 11.866Z" fill="#424259"/>
<path d="M49.2556 45.5237C48.7171 45.5266 48.1856 45.6459 47.6975 45.8736L42.1882 40.3503C42.0265 40.5479 41.8325 40.7167 41.6144 40.8494C41.0686 41.1807 40.5321 41.4979 39.9863 41.7824L45.8735 47.6976C45.5366 48.431 45.4464 49.2539 45.6167 50.0428C45.7869 50.8317 46.2083 51.5442 46.8176 52.0734C47.427 52.6026 48.1915 52.92 48.9965 52.978C49.8015 53.036 50.6036 52.8315 51.2826 52.3951C51.9615 51.9587 52.4807 51.314 52.7622 50.5576C53.0438 49.8012 53.0725 48.9739 52.8442 48.1998C52.6158 47.4257 52.1427 46.7465 51.4957 46.264C50.8487 45.7815 50.0627 45.5218 49.2556 45.5237ZM49.2556 51.1217C48.8866 51.1217 48.5258 51.0123 48.2189 50.8072C47.9121 50.6022 47.6729 50.3108 47.5317 49.9698C47.3904 49.6288 47.3535 49.2537 47.4255 48.8917C47.4975 48.5297 47.6752 48.1972 47.9362 47.9363C48.1971 47.6753 48.5296 47.4976 48.8916 47.4256C49.2536 47.3536 49.6287 47.3905 49.9697 47.5318C50.3107 47.673 50.6021 47.9122 50.8071 48.219C51.0122 48.5259 51.1216 48.8867 51.1216 49.2557C51.1216 49.7506 50.925 50.2252 50.5751 50.5752C50.2251 50.9251 49.7505 51.1217 49.2556 51.1217Z" fill="#424259"/>
<path d="M14.7401 18.4716C15.2798 18.4709 15.813 18.3531 16.3028 18.1264L22.5539 24.3774C23.0204 23.7243 23.4356 23.0666 23.8274 22.3762C23.875 22.3009 23.928 22.2291 23.9861 22.1616L18.1269 16.3024C18.4648 15.5695 18.5561 14.7469 18.387 13.9578C18.2179 13.1687 17.7976 12.4556 17.1891 11.9255C16.5806 11.3955 15.8166 11.0769 15.0118 11.0177C14.2069 10.9585 13.4046 11.1617 12.725 11.597C12.0454 12.0322 11.5252 12.6761 11.2425 13.4319C10.9597 14.1878 10.9295 15.0149 11.1565 15.7894C11.3835 16.5638 11.8555 17.2438 12.5015 17.7274C13.1476 18.2109 13.9331 18.4721 14.7401 18.4716ZM14.7401 12.8736C15.1091 12.8736 15.4699 12.9831 15.7768 13.1881C16.0836 13.3931 16.3228 13.6846 16.464 14.0255C16.6053 14.3665 16.6422 14.7417 16.5702 15.1036C16.4982 15.4656 16.3205 15.7981 16.0595 16.0591C15.7986 16.32 15.4661 16.4977 15.1041 16.5697C14.7422 16.6417 14.367 16.6048 14.026 16.4636C13.685 16.3223 13.3936 16.0832 13.1886 15.7763C12.9835 15.4694 12.8741 15.1087 12.8741 14.7396C12.8741 14.2447 13.0707 13.7701 13.4206 13.4202C13.7706 13.0702 14.2452 12.8736 14.7401 12.8736Z" fill="#424259"/>
</g>
<path d="M36.9175 26.5606C36.4091 26.0551 35.7342 25.7518 35.0187 25.7073C34.3031 25.6628 33.5958 25.8801 33.0287 26.3187C32.4616 26.7573 32.0735 27.3872 31.9366 28.091C31.7998 28.7947 31.9237 29.5242 32.2852 30.1433L26.2207 36.2078L27.261 37.2574L33.3255 31.193C33.9445 31.5734 34.6823 31.7118 35.3972 31.5817C36.1121 31.4515 36.7537 31.062 37.199 30.4877C37.6442 29.9135 37.8618 29.1951 37.8098 28.4703C37.7579 27.7456 37.4401 27.0655 36.9175 26.5606ZM34.0439 29.4343C33.8882 29.2791 33.7821 29.0813 33.7389 28.8658C33.6958 28.6504 33.7175 28.4269 33.8015 28.2238C33.8854 28.0207 34.0277 27.8471 34.2103 27.725C34.393 27.6028 34.6078 27.5376 34.8276 27.5376C35.0473 27.5376 35.2621 27.6028 35.4448 27.725C35.6275 27.8471 35.7698 28.0207 35.8537 28.2238C35.9376 28.4269 35.9594 28.6504 35.9162 28.8658C35.8731 29.0813 35.7669 29.2791 35.6113 29.4343C35.5086 29.5375 35.3864 29.6194 35.2519 29.6753C35.1174 29.7313 34.9732 29.76 34.8276 29.76C34.6819 29.76 34.5377 29.7313 34.4032 29.6753C34.2687 29.6194 34.1466 29.5375 34.0439 29.4343Z" fill="#424259"/>
<path d="M31.4582 36.2125L32.4845 35.1908L30.3946 33.1009L27.2598 36.2125L29.3497 38.307L30.3946 37.2574L29.8721 36.7349L30.9171 35.69L31.4582 36.2125Z" fill="#424259"/>
<path d="M36.9165 30.7405C36.4541 31.2036 35.8513 31.5005 35.2023 31.5849C34.5533 31.6693 33.8946 31.5364 33.3291 31.207L27.2647 37.2714L26.7422 36.7489L34.0429 29.4343C34.2545 29.6224 34.53 29.7225 34.8131 29.7142C35.0961 29.7058 35.3653 29.5897 35.5655 29.3894C35.7657 29.1892 35.8819 28.9201 35.8902 28.637C35.8985 28.354 35.7984 28.0785 35.6103 27.8668L36.9165 26.5606C37.4703 27.1152 37.7813 27.8668 37.7813 28.6506C37.7813 29.4343 37.4703 30.1859 36.9165 30.7405Z" fill="#424259"/>
</g>
</g>
<defs>
<clipPath id="clip0_296_28369">
<rect width="64" height="64" fill="white"/>
</clipPath>
<clipPath id="clip1_296_28369">
<rect width="44" height="44" fill="white" transform="translate(10 10)"/>
</clipPath>
</defs>
</svg>
