<svg width="64" height="64" viewBox="0 0 64 64" fill="none" xmlns="http://www.w3.org/2000/svg">
<g clip-path="url(#clip0_296_28344)">
<path d="M32 64C49.6731 64 64 49.6731 64 32C64 14.3269 49.6731 0 32 0C14.3269 0 0 14.3269 0 32C0 49.6731 14.3269 64 32 64Z" fill="#EEF2F6"/>
<g clip-path="url(#clip1_296_28344)">
<path d="M33.5864 45.8359C36.4409 45.8423 39.2092 44.8529 41.4191 43.0365C43.6289 41.2202 45.1433 38.6894 45.704 35.876C46.2646 33.0625 45.8368 30.1407 44.4935 27.6089C43.1501 25.0772 40.9745 23.0923 38.3378 21.993C35.701 20.8937 32.7665 20.748 30.0348 21.5808C27.3032 22.4137 24.9436 24.1734 23.3586 26.5597C21.7736 28.9461 21.0615 31.8114 21.3436 34.6667C21.6257 37.522 22.8847 40.1904 24.9057 42.2168C26.0449 43.364 27.398 44.2742 28.8875 44.8952C30.377 45.5162 31.9738 45.8359 33.5864 45.8359Z" fill="#FF4171"/>
<path opacity="0.5" d="M33.5864 9H29.6818V13.0405H31.3259V15.1393C26.7257 15.7741 22.5343 18.1331 19.5917 21.7435C16.6491 25.3539 15.1728 29.9489 15.4588 34.6073C15.7447 39.2658 17.7718 43.6434 21.1336 46.8628C24.4954 50.0822 28.9436 51.9054 33.5864 51.9669H33.6522V48.2982H33.5864C29.6796 48.2982 25.9328 46.7382 23.1702 43.9613C20.4076 41.1845 18.8557 37.4182 18.8557 33.4912C18.8557 29.5641 20.4076 25.7978 23.1702 23.021C25.9328 20.2441 29.6796 18.6841 33.5864 18.6841V9Z" fill="#424259"/>
<path d="M46.6322 20.4276C43.7203 17.5078 39.9215 15.6494 35.8389 15.1476V13.0405H37.483V9H33.6523V18.6841C37.5592 18.6841 41.306 20.2441 44.0686 23.021C46.8311 25.7978 48.3831 29.5641 48.3831 33.4912C48.3831 37.4182 46.8311 41.1845 44.0686 43.9613C41.306 46.7382 37.5592 48.2982 33.6523 48.2982V51.9669C37.2791 51.9478 40.8194 50.8525 43.8292 48.8184C46.839 46.7844 49.1842 43.9023 50.5706 40.5335C51.957 37.1648 52.3228 33.4596 51.6221 29.8827C50.9215 26.3058 49.1856 23.0165 46.6322 20.4276Z" fill="#424259"/>
<path d="M34.6396 26.6165H32.5352V33.4912H34.6396V26.6165Z" fill="#424259"/>
<path d="M34.3518 32.4367L32.5293 33.4944L37.0916 41.4374L38.914 40.3797L34.3518 32.4367Z" fill="#424259"/>
<path d="M50.5181 16.7311L43.9941 12.4316L41.7902 15.8107L48.3141 20.1101L50.5181 16.7311Z" fill="#424259"/>
<path opacity="0.5" d="M23.1704 12.4264L16.6465 16.7258L18.8505 20.1049L25.3744 15.8054L23.1704 12.4264Z" fill="#424259"/>
<path d="M20.5409 32.3344H12V42.3324C12 47.0588 20.5409 50.901 20.5409 50.901C20.5409 50.901 29.0818 47.0588 29.0818 42.3324V32.3344H20.5409Z" fill="#424259"/>
</g>
</g>
<defs>
<clipPath id="clip0_296_28344">
<rect width="64" height="64" fill="white"/>
</clipPath>
<clipPath id="clip1_296_28344">
<rect width="40" height="43" fill="white" transform="translate(12 9)"/>
</clipPath>
</defs>
</svg>
