<svg width="64" height="64" viewBox="0 0 64 64" fill="none" xmlns="http://www.w3.org/2000/svg">
<g clip-path="url(#clip0_296_20319)">
<path d="M32 64C49.6731 64 64 49.6731 64 32C64 14.3269 49.6731 0 32 0C14.3269 0 0 14.3269 0 32C0 49.6731 14.3269 64 32 64Z" fill="#EEF2F6"/>
<path d="M46.1953 41.6538C47.6202 40.2282 47.6202 37.9169 46.1953 36.4914C44.7704 35.0658 42.4601 35.0658 41.0351 36.4914C39.6102 37.9169 39.6102 40.2282 41.0351 41.6538C42.4601 43.0793 44.7704 43.0793 46.1953 41.6538Z" fill="#00F5BC"/>
<path d="M51.4101 35.2662C52.8351 33.8406 52.8351 31.5294 51.4101 30.1038C49.9852 28.6782 47.6749 28.6782 46.25 30.1038C44.8251 31.5294 44.8251 33.8406 46.25 35.2662C47.6749 36.6917 49.9852 36.6917 51.4101 35.2662Z" fill="#424259"/>
<path d="M48.9248 27.3678C50.3497 25.9422 50.3497 23.6309 48.9248 22.2054C47.4998 20.7798 45.1896 20.7798 43.7646 22.2054C42.3397 23.6309 42.3397 25.9422 43.7646 27.3678C45.1896 28.7933 47.4998 28.7933 48.9248 27.3678Z" fill="#00F5BC"/>
<path d="M21.0589 18.8168C22.339 16.6711 25.1151 15.9698 27.26 17.2505C28.0914 17.7468 28.7056 18.4682 29.0719 19.2904L30.7471 18.0636C30.7587 18.0551 30.7753 18.0577 30.7838 18.0692L34.8007 23.5595L38.9355 21.9229C38.9489 21.9176 38.9556 21.9023 38.9503 21.8887L34.6031 10.8966C34.5979 10.8832 34.5825 10.8766 34.569 10.8818L10.9492 20.2306C10.9358 20.2358 10.9292 20.2512 10.9344 20.2647L14.7083 29.808L21.9356 24.5158C20.3438 23.1018 19.9278 20.7127 21.0589 18.8168Z" fill="#00F5BC"/>
<path d="M27.2607 17.2504C25.116 15.9698 22.3396 16.6711 21.0596 18.8168C19.9285 20.7127 20.3445 23.1019 21.9363 24.5157L29.0724 19.2902C28.7062 18.468 28.0919 17.7466 27.2605 17.2503L27.2607 17.2504Z" fill="#424259"/>
<path d="M19.7315 29.4855C20.5519 27.1253 23.1294 25.8776 25.4885 26.6983C26.1445 26.9266 26.7146 27.291 27.178 27.7488L29.4459 24.5588C29.5886 24.3581 29.867 24.3125 30.0642 24.4578L36.0726 28.8794L37.758 27.6452C37.7696 27.6367 37.7723 27.6201 37.7636 27.6085L34.8014 23.5597L30.7845 18.0695C30.7761 18.0579 30.7594 18.0552 30.7479 18.0639L29.0726 19.2906L21.9365 24.5162L14.7093 29.8084L10.2509 33.0728C10.2394 33.0813 10.2367 33.0979 10.2453 33.1095L16.9 42.2051L22.0019 35.0292C19.9818 34.0352 18.9732 31.6671 19.7317 29.4855H19.7315Z" fill="#424259"/>
<path d="M25.4897 26.6983C23.1305 25.8775 20.553 27.1253 19.7327 29.4854C18.9742 31.6671 19.9828 34.0352 22.0029 35.0292L27.1792 27.7485C26.7157 27.2908 26.1457 26.9265 25.4897 26.6981V26.6983Z" fill="#00F5BC"/>
<path d="M39.3216 31.2703L36.0723 28.8792L30.0639 24.4576C29.8665 24.3123 29.5883 24.3579 29.4456 24.5586L27.1777 27.7486L22.0014 35.0292L16.8996 42.2051L14.4908 45.5931C14.3481 45.7938 14.3927 46.077 14.5901 46.2221L23.8478 53.0347C24.0452 53.18 24.3234 53.1345 24.466 52.9337L39.4209 31.8991C39.5636 31.6984 39.519 31.4152 39.3216 31.2701V31.2703ZM27.2778 42.9433C24.7801 42.9433 22.7554 40.9176 22.7554 38.4188C22.7554 35.9201 24.7801 33.8944 27.2778 33.8944C29.7755 33.8944 31.8003 35.9201 31.8003 38.4188C31.8003 40.9176 29.7755 42.9433 27.2778 42.9433Z" fill="#75808A"/>
<path d="M27.2773 42.9432C29.775 42.9432 31.7998 40.9176 31.7998 38.4188C31.7998 35.92 29.775 33.8944 27.2773 33.8944C24.7797 33.8944 22.7549 35.92 22.7549 38.4188C22.7549 40.9176 24.7797 42.9432 27.2773 42.9432Z" fill="#424259"/>
</g>
<defs>
<clipPath id="clip0_296_20319">
<rect width="64" height="64" fill="white"/>
</clipPath>
</defs>
</svg>
