<svg width="80" height="80" viewBox="0 0 80 80" fill="none" xmlns="http://www.w3.org/2000/svg">
<g clip-path="url(#clip0_296_20345)">
<path d="M40 80C62.0914 80 80 62.0914 80 40C80 17.9086 62.0914 0 40 0C17.9086 0 0 17.9086 0 40C0 62.0914 17.9086 80 40 80Z" fill="#00F5BC"/>
<path d="M64.0017 40.4511H52.4907C52.4907 36.1175 51.8884 32.0507 50.8359 28.5534C53.6313 28.0284 56.4223 27.2832 59.2054 26.3158L59.265 26.2709C62.2407 30.224 64.0014 35.1351 64.0014 40.4508L64.0017 40.4511Z" fill="#424259"/>
<path opacity="0.2" d="M52.49 40.4512H64.001C64.001 45.7659 62.2403 50.678 59.2646 54.6301L59.205 54.5855C56.4232 53.6185 53.6352 52.867 50.8398 52.3317C51.8894 48.8384 52.49 44.7779 52.49 40.4512Z" fill="#424259"/>
<path opacity="0.2" d="M59.2667 26.2715L59.2071 26.3164C56.4237 27.2835 53.633 28.0286 50.8377 28.5539C48.7535 21.6358 44.913 16.9502 40.5 16.8408C48.1897 16.8893 54.9852 20.5872 59.2667 26.2715Z" fill="#424259"/>
<path d="M59.2071 54.5853L59.2667 54.6299C54.9852 60.3148 48.1897 64.012 40.5 64.0606C44.916 63.9512 48.7608 59.2579 50.842 52.3315C53.6373 52.8667 56.4251 53.6182 59.2071 54.5853Z" fill="#424259"/>
<path d="M62.0003 17C63.1427 17 64 17.9524 64 19.0001C64 20.1429 63.1427 21 62.0003 21C60.8579 21 60 20.1429 60 19.0001C60 17.9524 60.8571 17 62.0003 17V17Z" fill="#75808A"/>
<path opacity="0.2" d="M52.4925 40.4514H40.3438V29.5077C43.8489 29.5244 47.3478 29.209 50.8377 28.5536C51.8902 32.0506 52.4925 36.1178 52.4925 40.4514Z" fill="#424259"/>
<path d="M40.3438 40.4511H52.4925C52.4925 44.7778 51.8919 48.8383 50.8424 52.3316C47.3508 51.6619 43.8502 51.3293 40.3438 51.3333V40.4514V40.4511Z" fill="#424259"/>
<path d="M40.5 16.8406C44.913 16.9501 48.7536 21.6357 50.8377 28.5535C47.3478 29.2088 43.8489 29.5242 40.3438 29.5075V16.8393C40.3977 16.8393 40.4494 16.8393 40.5004 16.8406H40.5Z" fill="#424259"/>
<path opacity="0.2" d="M50.8424 52.3316C48.7612 59.2581 44.9163 63.9513 40.5004 64.0608C40.4497 64.0621 40.3977 64.0621 40.3438 64.0621V51.333C43.8502 51.3293 47.3508 51.6617 50.8424 52.3313V52.3316Z" fill="#424259"/>
<path d="M40.3442 51.3329V64.0621C40.2922 64.0621 40.2399 64.0621 40.1876 64.0607C35.7763 63.9513 31.9327 59.2644 29.8516 52.3466C33.3537 51.6746 36.851 51.3359 40.3439 51.3333L40.3442 51.3329Z" fill="#424259"/>
<path opacity="0.2" d="M40.344 40.4512V51.3331C36.8511 51.3361 33.3536 51.6747 29.8517 52.3464C28.7976 48.8494 28.1953 44.7845 28.1953 40.4509H40.344V40.4512Z" fill="#424259"/>
<path d="M40.344 29.5075V40.4509H28.1953C28.1953 36.091 28.8068 32.0039 29.8713 28.4939C33.3675 29.1522 36.8601 29.4932 40.3444 29.5072L40.344 29.5075Z" fill="#424259"/>
<path opacity="0.2" d="M40.3403 16.8393V29.5075C36.8563 29.4936 33.3634 29.1526 29.8672 28.4942C31.9513 21.6104 35.7846 16.9501 40.184 16.8406C40.2363 16.8393 40.2883 16.8393 40.3406 16.8393H40.3403Z" fill="#424259"/>
<path d="M40.1842 16.8408C35.7848 16.9502 31.9519 21.6105 29.8677 28.4944C27.0873 27.9724 24.3052 27.2495 21.5234 26.3307C25.7855 20.6145 32.563 16.891 40.1842 16.8408Z" fill="#424259"/>
<path opacity="0.2" d="M29.8482 52.3466C31.9293 59.2641 35.7729 63.9513 40.1842 64.0608C32.563 64.0109 25.7858 60.2873 21.5234 54.5712C24.2979 53.6184 27.0754 52.8786 29.8485 52.3466H29.8482Z" fill="#424259"/>
<path opacity="0.2" d="M29.8692 28.4942C28.8048 32.0041 28.1932 36.0913 28.1932 40.4512H16.8438C16.8438 35.1631 18.5866 30.274 21.5249 26.3305C24.3067 27.2497 27.0888 27.9722 29.8692 28.4942Z" fill="#424259"/>
<path d="M28.1936 40.4512C28.1936 44.7849 28.7958 48.8497 29.85 52.3467C27.0772 52.8786 24.2994 53.6185 21.5249 54.5712C18.5866 50.6278 16.8438 45.7383 16.8438 40.4512H28.1936Z" fill="#424259"/>
<path d="M19 60C20.143 60 21 60.8571 21 62.0003C21 63.0479 20.143 64 19 64C17.952 64 17 63.0479 17 62.0003C17 60.8572 17.9521 60 19 60Z" fill="#EEF2F6"/>
</g>
<defs>
<clipPath id="clip0_296_20345">
<rect width="80" height="80" fill="white"/>
</clipPath>
</defs>
</svg>
