<svg width="64" height="64" viewBox="0 0 64 64" fill="none" xmlns="http://www.w3.org/2000/svg">
<g clip-path="url(#clip0_296_20323)">
<path d="M32 64C49.6731 64 64 49.6731 64 32C64 14.3269 49.6731 0 32 0C14.3269 0 0 14.3269 0 32C0 49.6731 14.3269 64 32 64Z" fill="#EEF2F6"/>
<path d="M14.7197 15.36V36.0384C14.7197 45.8048 32.4797 53.76 32.4797 53.76V15.36H14.7197Z" fill="#424259"/>
<path d="M32.4795 15.36V53.76C32.4795 53.76 50.2395 45.8048 50.2395 36.0384V15.36H32.4795Z" fill="#00F5BC"/>
<path d="M32.3194 41.6C37.7981 41.6 42.2394 37.1586 42.2394 31.68C42.2394 26.2013 37.7981 21.76 32.3194 21.76C26.8408 21.76 22.3994 26.2013 22.3994 31.68C22.3994 37.1586 26.8408 41.6 32.3194 41.6Z" fill="#75808A"/>
<path d="M36.3927 29.6242H34.3258V27.6065C34.3258 26.5189 33.4069 25.6 32.3193 25.6C31.2316 25.6 30.3127 26.5189 30.3127 27.6065V29.6242H28.2458C27.1391 29.6242 26.2393 30.5465 26.2393 31.68C26.2393 32.8135 27.1581 33.6865 28.2458 33.6865H30.3127V35.7534C30.3127 36.8411 31.2316 37.76 32.3193 37.76C33.4069 37.76 34.3258 36.8411 34.3258 35.7534V33.6865H36.3927C37.4804 33.6865 38.3993 32.7676 38.3993 31.68C38.3993 30.5923 37.4994 29.6242 36.3927 29.6242Z" fill="#00F5BC"/>
</g>
<defs>
<clipPath id="clip0_296_20323">
<rect width="64" height="64" fill="white"/>
</clipPath>
</defs>
</svg>
