<svg width="64" height="64" viewBox="0 0 64 64" fill="none" xmlns="http://www.w3.org/2000/svg">
<g clip-path="url(#clip0_296_20331)">
<path d="M32 64C49.6731 64 64 49.6731 64 32C64 14.3269 49.6731 0 32 0C14.3269 0 0 14.3269 0 32C0 49.6731 14.3269 64 32 64Z" fill="#EEF2F6"/>
<g clip-path="url(#clip1_296_20331)">
<path fill-rule="evenodd" clip-rule="evenodd" d="M51.9996 44.2129H46.1002C45.9582 44.2129 45.8238 44.1489 45.7326 44.0379C45.6415 43.9271 45.6023 43.7806 45.6274 43.6377L45.8944 42.085C45.9064 42.0146 45.9337 41.9474 45.9742 41.8885L47.4448 39.7479L45.9742 37.6072C45.9339 37.5485 45.9065 37.4813 45.8944 37.4105L45.4516 34.8355L42.9288 34.3832C42.8598 34.371 42.7937 34.3431 42.736 34.3017L40.6394 32.8007L38.5424 34.3017C38.4844 34.3429 38.419 34.3705 38.3496 34.3832L35.8268 34.8355L35.3834 37.4105C35.3717 37.4812 35.3444 37.5483 35.304 37.6072L33.8337 39.7479L35.304 41.8885C35.3444 41.9474 35.3717 42.0144 35.3834 42.085L35.6371 43.5585C35.6553 43.6093 35.6647 43.6648 35.6647 43.7221C35.6647 43.9927 35.4498 44.2123 35.1849 44.2123C35.1833 44.2123 35.1807 44.2126 35.1784 44.2123H11.9994C11.7346 44.2123 11.5195 43.9927 11.5195 43.7225V16.4901C11.5195 16.2195 11.7346 16 11.9994 16H51.9996C52.2646 16 52.4794 16.2195 52.4794 16.4901V43.723C52.4794 43.9931 52.2645 44.2128 51.9996 44.2128V44.2129Z" fill="#FF4171"/>
<path fill-rule="evenodd" clip-rule="evenodd" d="M33.7396 40.9458H19.0762C18.9452 40.9458 18.8198 40.891 18.7294 40.7946C18.6388 40.6982 18.5908 40.5683 18.5968 40.4344C18.5993 40.381 18.6006 40.3264 18.6006 40.2722C18.6006 38.3579 17.0748 36.8006 15.1996 36.8006C14.9348 36.8006 14.7197 36.581 14.7197 36.3108V23.7177C14.7197 23.4471 14.9348 23.2276 15.1996 23.2276C17.0748 23.2276 18.6006 21.6702 18.6006 19.756C18.6006 19.4857 18.8155 19.2659 19.0804 19.2659H44.9187C45.1834 19.2659 45.3985 19.4856 45.3985 19.756C45.3985 21.6704 46.9242 23.2276 48.7994 23.2276C49.0645 23.2276 49.2793 23.4471 49.2793 23.7177V36.3107C49.2793 36.5813 49.0641 36.8005 48.7994 36.8005C48.0061 36.8005 47.2628 37.0711 46.6493 37.5818C46.5174 37.6918 46.3384 37.7224 46.1782 37.6616C46.0186 37.6007 45.9021 37.4584 45.8727 37.287L45.4508 34.8351L42.928 34.3828C42.8587 34.3708 42.7929 34.3426 42.7355 34.3017L40.6384 32.8004L38.5414 34.3017C38.4834 34.3426 38.418 34.3702 38.3486 34.3828L35.8258 34.8351L35.3827 37.41C35.3707 37.4807 35.3434 37.5479 35.3029 37.6068L33.8326 39.7474L34.0866 40.1166C34.169 40.2048 34.219 40.3237 34.219 40.4553C34.219 40.7264 34.0044 40.9458 33.7392 40.9458H33.7396Z" fill="#424259"/>
<path fill-rule="evenodd" clip-rule="evenodd" d="M37.0539 51.8399C37.0373 51.8399 37.0204 51.8389 37.0042 51.8373C36.816 51.817 36.6561 51.6854 36.5975 51.5019L35.8748 49.239L33.6778 49.7715C33.4899 49.8169 33.2966 49.7442 33.1819 49.5877C33.0674 49.4305 33.0555 49.2195 33.1512 49.0499L35.4836 44.9263C35.5842 44.7481 35.7835 44.6531 35.9821 44.6886L38.3487 45.113C38.4179 45.1253 38.4837 45.1532 38.5414 45.1945L39.9951 46.2354C40.1983 46.3809 40.2594 46.6614 40.1351 46.8811L37.4693 51.595C37.3834 51.748 37.2241 51.8399 37.0538 51.8399H37.0539Z" fill="#75808A"/>
<path fill-rule="evenodd" clip-rule="evenodd" d="M44.223 51.84C44.0528 51.84 43.8936 51.7479 43.8073 51.5948L41.1415 46.8808C41.0171 46.6612 41.078 46.3804 41.2817 46.2347L42.7354 45.1944C42.7931 45.1532 42.8585 45.1253 42.9279 45.1129L45.2948 44.6882C45.4951 44.653 45.6926 44.7477 45.7933 44.9259L48.0902 48.9871C48.157 49.0712 48.1966 49.1782 48.1966 49.2946C48.1966 49.5651 47.9814 49.7844 47.7168 49.7844H47.71C47.6732 49.7844 47.6361 49.7801 47.5989 49.7714L45.4019 49.2386L44.6792 51.5015C44.6206 51.6853 44.4614 51.8169 44.2725 51.8369C44.2559 51.8392 44.2397 51.8398 44.223 51.8398V51.84Z" fill="#75808A"/>
<path fill-rule="evenodd" clip-rule="evenodd" d="M40.6389 47.7843C40.5426 47.7843 40.4458 47.7543 40.3634 47.6953L38.0782 46.0595L35.3294 45.5663C35.1301 45.531 34.9745 45.3716 34.9396 45.1685L34.4565 42.3622L32.854 40.0298C32.7375 39.8607 32.7375 39.636 32.854 39.4673L34.4565 37.1346L34.9396 34.3283C34.9742 34.1249 35.1301 33.9662 35.3294 33.9303L38.0782 33.4379L40.3634 31.8018C40.5284 31.6836 40.7492 31.6836 40.9145 31.8018L43.1994 33.4379L45.9485 33.9302C46.1478 33.9659 46.3031 34.1254 46.3382 34.328L46.8214 37.1346L48.4239 39.467C48.5401 39.6361 48.5401 39.8611 48.4239 40.0297L46.8214 42.3624L46.3382 45.1683C46.3034 45.3718 46.1478 45.5303 45.9485 45.5662L43.1994 46.0597L40.9145 47.6951C40.8318 47.7546 40.7352 47.7846 40.6387 47.7846L40.6389 47.7843Z" fill="#EEF2F6"/>
<path fill-rule="evenodd" clip-rule="evenodd" d="M40.6403 44.2253C38.2219 44.2253 36.2549 42.2169 36.2549 39.7484C36.2549 37.28 38.2224 35.2719 40.6403 35.2719C43.0582 35.2719 45.026 37.2802 45.026 39.7484C45.026 42.2166 43.0585 44.2253 40.6403 44.2253Z" fill="#FF4171"/>
<rect x="19.8398" y="23.68" width="23.68" height="2.56" fill="#EEF2F6"/>
<rect x="19.8398" y="28.8" width="12.8" height="2.56" fill="#EEF2F6"/>
</g>
</g>
<defs>
<clipPath id="clip0_296_20331">
<rect width="64" height="64" fill="white"/>
</clipPath>
<clipPath id="clip1_296_20331">
<rect width="40.96" height="35.84" fill="white" transform="translate(11.5195 16)"/>
</clipPath>
</defs>
</svg>
