<svg width="80" height="80" viewBox="0 0 80 80" fill="none" xmlns="http://www.w3.org/2000/svg">
<g clip-path="url(#clip0_296_20350)">
<path d="M40 80C62.0914 80 80 62.0914 80 40C80 17.9086 62.0914 0 40 0C17.9086 0 0 17.9086 0 40C0 62.0914 17.9086 80 40 80Z" fill="#FF4171"/>
<path opacity="0.6" d="M40 50L33.7539 48.75V41.25H46.254V48.75L40 50Z" fill="#DDE0E6"/>
<path d="M51.2501 26.2501C51.2501 16.7501 28.75 20.0001 28.75 26.2501V35.0001C28.75 41.2502 33.75 46.2502 40.0001 46.2502C46.2501 46.2502 51.2501 41.2502 51.2501 35.0001V26.2501Z" fill="#DDE0E6"/>
<path d="M40.0001 15C32.375 15 27.5 21.125 27.5 28.7501V31.6251L30 33.7501V27.5001L45.0001 22.5L50.0001 27.5001V33.7501L52.5001 31.6251V28.7501C52.5001 23.75 51.2501 18.75 45.0001 17.5L43.7501 15H40.0001Z" fill="#424259"/>
<path opacity="0.3" d="M46.2501 48.7495L40.0001 49.9995L33.7501 48.7495C33.7501 48.7495 23.8436 50.5507 20.848 59.504C19.8699 62.4272 22.4989 64.9996 25.5814 64.9996H54.4188C57.5013 64.9996 60.1303 62.4272 59.1522 59.504C56.1566 50.5507 46.2501 48.7495 46.2501 48.7495Z" fill="#424259"/>
<path d="M38.7552 53.7502L37.5052 65.0003H42.5052L41.2552 53.7502L44.0741 49.186L40.0052 50.0002L36.0508 49.186L38.7552 53.7502Z" fill="#424259"/>
</g>
<defs>
<clipPath id="clip0_296_20350">
<rect width="80" height="80" fill="white"/>
</clipPath>
</defs>
</svg>
